SplineFontDB: 3.2
FontName: Lato-Share-Italic
FullName: Lato Share Italic
FamilyName: Lato Share
Weight: Regular
Copyright: Copyright (c) 2010-2011 by tyPoland Lukasz Dziedzic with Reserved Font Name "Lato". Licensed under the SIL Open Font License, Version 1.1.\n"Fair and Share" tax glyphs by Vector Hasting and shared under CC 4.0 SA-BY
Version: 1.104; Western+Polish opensource
ItalicAngle: -7
UnderlinePosition: -204.8
UnderlineWidth: 158.72
Ascent: 1649
Descent: 399
InvalidEm: 0
sfntRevision: 0x00011aa0
LayerCount: 2
Layer: 0 1 "Back" 1
Layer: 1 1 "Fore" 0
XUID: [1021 508 542950195 30715]
StyleMap: 0x0021
FSType: 0
OS2Version: 3
OS2_WeightWidthSlopeOnly: 0
OS2_UseTypoMetrics: 0
CreationTime: 1315810800
ModificationTime: 1758675393
PfmFamily: 17
TTFWeight: 400
TTFWidth: 5
LineGap: 0
VLineGap: 0
Panose: 2 15 8 2 2 2 4 3 2 3
OS2TypoAscent: 1649
OS2TypoAOffset: 0
OS2TypoDescent: -399
OS2TypoDOffset: 0
OS2TypoLinegap: 410
OS2WinAscent: 2021
OS2WinAOffset: 0
OS2WinDescent: 436
OS2WinDOffset: 0
HheadAscent: 2021
HheadAOffset: 0
HheadDescent: -436
HheadDOffset: 0
OS2SubXSize: 1434
OS2SubYSize: 1331
OS2SubXOff: 0
OS2SubYOff: 287
OS2SupXSize: 1434
OS2SupYSize: 1331
OS2SupXOff: 0
OS2SupYOff: 977
OS2StrikeYSize: 159
OS2StrikeYPos: 512
OS2CapHeight: 1481
OS2XHeight: 1051
OS2FamilyClass: 2051
OS2Vendor: 'tyPL'
OS2CodePages: 20000093.00000000
OS2UnicodeRanges: 800000af.4000604a.00000000.00000000
Lookup: 1 0 0 "'case' Case-Sensitive Forms in Latin lookup 0" { "'case' Case-Sensitive Forms in Latin lookup 0 subtable"  } ['case' ('DFLT' <'dflt' > 'latn' <'dflt' > ) ]
Lookup: 4 0 1 "'liga' Standard Ligatures in Latin lookup 1" { "'liga' Standard Ligatures in Latin lookup 1 subtable"  } ['liga' ('DFLT' <'dflt' > 'latn' <'dflt' > ) ]
Lookup: 1 0 0 "'sups' Superscript in Latin lookup 2" { "'sups' Superscript in Latin lookup 2 subtable" ("superior") } ['sups' ('DFLT' <'dflt' > 'latn' <'dflt' > ) ]

StartChar: .notdef
Encoding: 65536 -1 0
Width: 1120
GlyphClass: 1
Flags: W
LayerCount: 2
Fore
SplineSet
245 1175 m 1,0,1
 303 1222 303 1222 377.5 1254 c 128,-1,2
 452 1286 452 1286 553 1286 c 0,3,4
 625 1286 625 1286 682 1266.5 c 128,-1,5
 739 1247 739 1247 779 1212 c 128,-1,6
 819 1177 819 1177 840 1127 c 128,-1,7
 861 1077 861 1077 861 1017 c 0,8,9
 861 961 861 961 847 920.5 c 128,-1,10
 833 880 833 880 811.5 849.5 c 128,-1,11
 790 819 790 819 764 797.5 c 128,-1,12
 738 776 738 776 714.5 757 c 128,-1,13
 691 738 691 738 673 719.5 c 128,-1,14
 655 701 655 701 650 679 c 2,15,-1
 628 581 l 1,16,-1
 455 581 l 1,17,-1
 437 697 l 2,18,19
 436 702 436 702 435.5 708 c 128,-1,20
 435 714 435 714 435 719 c 0,21,22
 435 752 435 752 449.5 776 c 128,-1,23
 464 800 464 800 485 820 c 128,-1,24
 506 840 506 840 531 858 c 128,-1,25
 556 876 556 876 577 897 c 128,-1,26
 598 918 598 918 612.5 943 c 128,-1,27
 627 968 627 968 627 1001 c 0,28,29
 627 1037 627 1037 602.5 1059.5 c 128,-1,30
 578 1082 578 1082 530 1082 c 0,31,32
 493 1082 493 1082 468 1075 c 128,-1,33
 443 1068 443 1068 425 1060 c 128,-1,34
 407 1052 407 1052 393 1044.5 c 128,-1,35
 379 1037 379 1037 364 1037 c 0,36,37
 329 1037 329 1037 312 1067 c 2,38,-1
 245 1175 l 1,0,1
394 321 m 0,39,40
 394 350 394 350 405 375 c 128,-1,41
 416 400 416 400 434.5 419 c 128,-1,42
 453 438 453 438 478.5 449 c 128,-1,43
 504 460 504 460 534 460 c 0,44,45
 563 460 563 460 587.5 449 c 128,-1,46
 612 438 612 438 631 419 c 128,-1,47
 650 400 650 400 661 374.5 c 128,-1,48
 672 349 672 349 672 321 c 0,49,50
 672 291 672 291 661 266 c 128,-1,51
 650 241 650 241 631 222.5 c 128,-1,52
 612 204 612 204 587 193 c 128,-1,53
 562 182 562 182 534 182 c 0,54,55
 504 182 504 182 478.5 193 c 128,-1,56
 453 204 453 204 434.5 222.5 c 128,-1,57
 416 241 416 241 405 266 c 128,-1,58
 394 291 394 291 394 321 c 0,39,40
43 1481 m 1,59,-1
 1077 1481 l 1,60,-1
 1077 0 l 1,61,-1
 43 0 l 1,62,-1
 43 1481 l 1,59,-1
110 71 m 1,63,-1
 1004 71 l 1,64,-1
 1004 1411 l 1,65,-1
 110 1411 l 1,66,-1
 110 71 l 1,63,-1
EndSplineSet
Validated: 1
EndChar

StartChar: exclam
Encoding: 33 33 4
Width: 684
GlyphClass: 1
Flags: W
LayerCount: 2
Fore
SplineSet
580 1481 m 1,0,-1
 508 894 l 2,1,2
 497 801 497 801 476.5 711.5 c 128,-1,3
 456 622 456 622 429 520 c 1,4,-1
 264 520 l 1,5,6
 264 540 264 540 263.5 560.5 c 128,-1,7
 263 581 263 581 263 600 c 0,8,9
 263 677 263 677 266.5 748.5 c 128,-1,10
 270 820 270 820 280 894 c 2,11,-1
 351 1481 l 1,12,-1
 580 1481 l 1,0,-1
158 139 m 0,13,14
 158 171 158 171 169.5 199.5 c 128,-1,15
 181 228 181 228 201.5 248.5 c 128,-1,16
 222 269 222 269 251 281.5 c 128,-1,17
 280 294 280 294 312 294 c 256,18,19
 345 294 345 294 373 281.5 c 128,-1,20
 401 269 401 269 422 248.5 c 128,-1,21
 443 228 443 228 455.5 199.5 c 128,-1,22
 468 171 468 171 468 139 c 0,23,24
 468 106 468 106 455.5 78 c 128,-1,25
 443 50 443 50 422 29.5 c 128,-1,26
 401 9 401 9 373 -2.5 c 128,-1,27
 345 -14 345 -14 312 -14 c 256,28,29
 279 -14 279 -14 250.5 -2.5 c 128,-1,30
 222 9 222 9 201.5 29.5 c 128,-1,31
 181 50 181 50 169.5 78 c 128,-1,32
 158 106 158 106 158 139 c 0,13,14
EndSplineSet
Validated: 1
EndChar

StartChar: quotedbl
Encoding: 34 34 5
Width: 802
GlyphClass: 1
Flags: W
LayerCount: 2
Fore
SplineSet
452 1480 m 1,0,-1
 415 1185 l 1,1,-1
 374 1024 l 2,2,3
 363 981 363 981 342 957.5 c 128,-1,4
 321 934 321 934 278 934 c 0,5,6
 242 934 242 934 225 957.5 c 128,-1,7
 208 981 208 981 203 1024 c 1,8,-1
 203 1185 l 1,9,-1
 240 1480 l 1,10,-1
 452 1480 l 1,0,-1
805 1480 m 1,11,-1
 768 1185 l 1,12,-1
 727 1024 l 2,13,14
 716 981 716 981 695 957.5 c 128,-1,15
 674 934 674 934 631 934 c 0,16,17
 595 934 595 934 578 957.5 c 128,-1,18
 561 981 561 981 556 1024 c 1,19,-1
 556 1185 l 1,20,-1
 593 1480 l 1,21,-1
 805 1480 l 1,11,-1
EndSplineSet
Validated: 1
EndChar

StartChar: numbersign
Encoding: 35 35 6
Width: 1187
GlyphClass: 1
Flags: W
LayerCount: 2
Fore
SplineSet
828 419 m 1,0,-1
 698 0 l 1,1,-1
 586 0 l 2,2,3
 559 0 559 0 541.5 19.5 c 128,-1,4
 524 39 524 39 524 69 c 0,5,6
 524 83 524 83 529 101 c 2,7,-1
 629 419 l 1,8,-1
 413 419 l 1,9,-1
 311 89 l 2,10,11
 297 41 297 41 262.5 20.5 c 128,-1,12
 228 0 228 0 190 0 c 2,13,-1
 82 0 l 1,14,-1
 213 419 l 1,15,-1
 91 419 l 2,16,17
 63 419 63 419 48 431 c 128,-1,18
 33 443 33 443 33 471 c 0,19,20
 33 488 33 488 41 518 c 2,21,-1
 62 595 l 1,22,-1
 259 595 l 1,23,-1
 349 886 l 1,24,-1
 128 886 l 1,25,-1
 159 986 l 2,26,27
 170 1025 170 1025 197 1043 c 128,-1,28
 224 1061 224 1061 278 1061 c 2,29,-1
 396 1061 l 1,30,-1
 502 1397 l 2,31,32
 514 1436 514 1436 546 1458 c 128,-1,33
 578 1480 578 1480 616 1480 c 2,34,-1
 728 1480 l 1,35,-1
 596 1061 l 1,36,-1
 811 1061 l 1,37,-1
 942 1480 l 1,38,-1
 1052 1480 l 2,39,40
 1083 1480 1083 1480 1102 1462.5 c 128,-1,41
 1121 1445 1121 1445 1121 1418 c 0,42,43
 1121 1405 1121 1405 1117 1394 c 2,44,-1
 1012 1061 l 1,45,-1
 1222 1061 l 1,46,-1
 1189 959 l 2,47,48
 1177 921 1177 921 1151 903.5 c 128,-1,49
 1125 886 1125 886 1073 886 c 2,50,-1
 965 886 l 1,51,-1
 874 595 l 1,52,-1
 1025 595 l 2,53,54
 1054 595 1054 595 1069 583.5 c 128,-1,55
 1084 572 1084 572 1084 544 c 0,56,57
 1084 527 1084 527 1076 497 c 2,58,-1
 1054 419 l 1,59,-1
 828 419 l 1,0,-1
459 595 m 1,60,-1
 675 595 l 1,61,-1
 765 886 l 1,62,-1
 550 886 l 1,63,-1
 459 595 l 1,60,-1
EndSplineSet
Validated: 1
EndChar

StartChar: dollar
Encoding: 36 36 7
Width: 1187
GlyphClass: 1
Flags: W
LayerCount: 2
Fore
SplineSet
416 -9 m 1,0,1
 298 6 298 6 199 55 c 128,-1,2
 100 104 100 104 36 178 c 1,3,-1
 125 290 l 2,4,5
 136 304 136 304 153.5 313.5 c 128,-1,6
 171 323 171 323 190 323 c 0,7,8
 212 323 212 323 235 306.5 c 128,-1,9
 258 290 258 290 288 268.5 c 128,-1,10
 318 247 318 247 358.5 225 c 128,-1,11
 399 203 399 203 457 193 c 1,12,-1
 553 663 l 1,13,14
 488 682 488 682 426 707 c 128,-1,15
 364 732 364 732 314.5 772 c 128,-1,16
 265 812 265 812 234.5 872 c 128,-1,17
 204 932 204 932 204 1020 c 0,18,19
 204 1109 204 1109 239.5 1192 c 128,-1,20
 275 1275 275 1275 343 1340 c 128,-1,21
 411 1405 411 1405 507 1446.5 c 128,-1,22
 603 1488 603 1488 724 1493 c 1,23,-1
 751 1623 l 2,24,25
 756 1648 756 1648 776.5 1667 c 128,-1,26
 797 1686 797 1686 824 1686 c 2,27,-1
 914 1686 l 1,28,-1
 873 1485 l 1,29,30
 979 1468 979 1468 1052.5 1424 c 128,-1,31
 1126 1380 1126 1380 1177 1324 c 1,32,-1
 1107 1235 l 2,33,34
 1092 1215 1092 1215 1077 1205 c 128,-1,35
 1062 1195 1062 1195 1041 1195 c 0,36,37
 1026 1195 1026 1195 1006 1205 c 128,-1,38
 986 1215 986 1215 961 1229.5 c 128,-1,39
 936 1244 936 1244 903.5 1258.5 c 128,-1,40
 871 1273 871 1273 831 1282 c 1,41,-1
 742 848 l 1,42,43
 786 834 786 834 830 818.5 c 128,-1,44
 874 803 874 803 914.5 783 c 128,-1,45
 955 763 955 763 989.5 738 c 128,-1,46
 1024 713 1024 713 1049.5 679 c 128,-1,47
 1075 645 1075 645 1090 602 c 128,-1,48
 1105 559 1105 559 1105 504 c 0,49,50
 1105 404 1105 404 1067.5 313 c 128,-1,51
 1030 222 1030 222 960.5 152.5 c 128,-1,52
 891 83 891 83 791 38.5 c 128,-1,53
 691 -6 691 -6 566 -14 c 1,54,-1
 535 -169 l 2,55,56
 530 -193 530 -193 509 -211.5 c 128,-1,57
 488 -230 488 -230 461 -230 c 2,58,-1
 371 -230 l 1,59,-1
 416 -9 l 1,0,1
866 444 m 0,60,61
 866 479 866 479 853.5 505.5 c 128,-1,62
 841 532 841 532 818 552.5 c 128,-1,63
 795 573 795 573 763.5 588.5 c 128,-1,64
 732 604 732 604 695 617 c 1,65,-1
 608 189 l 1,66,67
 733 203 733 203 799.5 271.5 c 128,-1,68
 866 340 866 340 866 444 c 0,60,61
438 1074 m 0,69,70
 438 1039 438 1039 450.5 1012.5 c 128,-1,71
 463 986 463 986 484.5 964.5 c 128,-1,72
 506 943 506 943 535.5 926.5 c 128,-1,73
 565 910 565 910 601 896 c 1,74,-1
 681 1286 l 1,75,76
 616 1279 616 1279 570 1259.5 c 128,-1,77
 524 1240 524 1240 495 1212 c 128,-1,78
 466 1184 466 1184 452 1148.5 c 128,-1,79
 438 1113 438 1113 438 1074 c 0,69,70
EndSplineSet
Validated: 1
EndChar

StartChar: percent
Encoding: 37 37 8
Width: 1518
GlyphClass: 1
Flags: W
LayerCount: 2
Fore
SplineSet
771 1178 m 0,0,1
 771 1080 771 1080 739.5 1001.5 c 128,-1,2
 708 923 708 923 656 868 c 128,-1,3
 604 813 604 813 538 784 c 128,-1,4
 472 755 472 755 403 755 c 0,5,6
 342 755 342 755 291 777 c 128,-1,7
 240 799 240 799 204 840 c 128,-1,8
 168 881 168 881 148 938.5 c 128,-1,9
 128 996 128 996 128 1068 c 0,10,11
 128 1165 128 1165 156.5 1244 c 128,-1,12
 185 1323 185 1323 235 1378.5 c 128,-1,13
 285 1434 285 1434 352 1464 c 128,-1,14
 419 1494 419 1494 495 1494 c 0,15,16
 556 1494 556 1494 607 1472 c 128,-1,17
 658 1450 658 1450 694.5 1408.5 c 128,-1,18
 731 1367 731 1367 751 1309 c 128,-1,19
 771 1251 771 1251 771 1178 c 0,0,1
582 1177 m 0,20,21
 582 1263 582 1263 551.5 1299.5 c 128,-1,22
 521 1336 521 1336 475 1336 c 0,23,24
 441 1336 441 1336 412 1321.5 c 128,-1,25
 383 1307 383 1307 361.5 1274.5 c 128,-1,26
 340 1242 340 1242 328 1191.5 c 128,-1,27
 316 1141 316 1141 316 1068 c 0,28,29
 316 1026 316 1026 324 996.5 c 128,-1,30
 332 967 332 967 346 948.5 c 128,-1,31
 360 930 360 930 379.5 921.5 c 128,-1,32
 399 913 399 913 423 913 c 0,33,34
 456 913 456 913 485 927 c 128,-1,35
 514 941 514 941 535.5 972.5 c 128,-1,36
 557 1004 557 1004 569.5 1054 c 128,-1,37
 582 1104 582 1104 582 1177 c 0,20,21
1254 1441 m 2,38,39
 1268 1455 1268 1455 1287.5 1467.5 c 128,-1,40
 1307 1480 1307 1480 1338 1480 c 2,41,-1
 1516 1480 l 1,42,-1
 322 37 l 2,43,44
 309 21 309 21 289 10.5 c 128,-1,45
 269 0 269 0 243 0 c 2,46,-1
 62 0 l 1,47,-1
 1254 1441 l 2,38,39
1449 404 m 0,48,49
 1449 306 1449 306 1417 228 c 128,-1,50
 1385 150 1385 150 1334 95 c 128,-1,51
 1283 40 1283 40 1216.5 11 c 128,-1,52
 1150 -18 1150 -18 1081 -18 c 0,53,54
 1020 -18 1020 -18 969 4.5 c 128,-1,55
 918 27 918 27 882 67.5 c 128,-1,56
 846 108 846 108 826 165.5 c 128,-1,57
 806 223 806 223 806 294 c 0,58,59
 806 392 806 392 834.5 471.5 c 128,-1,60
 863 551 863 551 913 606.5 c 128,-1,61
 963 662 963 662 1030 692 c 128,-1,62
 1097 722 1097 722 1172 722 c 0,63,64
 1233 722 1233 722 1284.5 699.5 c 128,-1,65
 1336 677 1336 677 1372.5 635.5 c 128,-1,66
 1409 594 1409 594 1429 535.5 c 128,-1,67
 1449 477 1449 477 1449 404 c 0,48,49
1261 403 m 0,68,69
 1261 489 1261 489 1230 525.5 c 128,-1,70
 1199 562 1199 562 1153 562 c 0,71,72
 1119 562 1119 562 1090 547 c 128,-1,73
 1061 532 1061 532 1039.5 500 c 128,-1,74
 1018 468 1018 468 1006 417.5 c 128,-1,75
 994 367 994 367 994 294 c 0,76,77
 994 211 994 211 1024 175 c 128,-1,78
 1054 139 1054 139 1101 139 c 0,79,80
 1135 139 1135 139 1164 153 c 128,-1,81
 1193 167 1193 167 1214.5 198 c 128,-1,82
 1236 229 1236 229 1248.5 279.5 c 128,-1,83
 1261 330 1261 330 1261 403 c 0,68,69
EndSplineSet
Validated: 1
EndChar

StartChar: ampersand
Encoding: 38 38 9
Width: 1347
GlyphClass: 1
Flags: W
LayerCount: 2
Fore
SplineSet
745 1496 m 0,0,1
 823 1496 823 1496 886.5 1472.5 c 128,-1,2
 950 1449 950 1449 994.5 1406 c 128,-1,3
 1039 1363 1039 1363 1064 1302.5 c 128,-1,4
 1089 1242 1089 1242 1089 1167 c 1,5,-1
 943 1139 l 2,6,7
 929 1136 929 1136 919 1136 c 0,8,9
 882 1136 882 1136 871 1177 c 0,10,11
 864 1206 864 1206 852 1229.5 c 128,-1,12
 840 1253 840 1253 821.5 1271 c 128,-1,13
 803 1289 803 1289 779 1299.5 c 128,-1,14
 755 1310 755 1310 723 1310 c 0,15,16
 680 1310 680 1310 645.5 1292.5 c 128,-1,17
 611 1275 611 1275 587 1244.5 c 128,-1,18
 563 1214 563 1214 550.5 1174 c 128,-1,19
 538 1134 538 1134 538 1087 c 0,20,21
 538 1038 538 1038 555.5 985.5 c 128,-1,22
 573 933 573 933 617 876 c 2,23,-1
 921 482 l 1,24,25
 955 543 955 543 978.5 610 c 128,-1,26
 1002 677 1002 677 1016 748 c 0,27,28
 1021 772 1021 772 1032.5 786 c 128,-1,29
 1044 800 1044 800 1070 800 c 2,30,-1
 1241 800 l 1,31,32
 1224 664 1224 664 1174 541 c 128,-1,33
 1124 418 1124 418 1050 315 c 1,34,-1
 1293 0 l 1,35,-1
 1081 0 l 2,36,37
 1051 0 1051 0 1030.5 3.5 c 128,-1,38
 1010 7 1010 7 993 16 c 128,-1,39
 976 25 976 25 962 38 c 128,-1,40
 948 51 948 51 933 71 c 2,41,-1
 880 140 l 1,42,43
 785 66 785 66 675 25 c 128,-1,44
 565 -16 565 -16 445 -16 c 0,45,46
 351 -16 351 -16 276.5 10 c 128,-1,47
 202 36 202 36 149.5 84.5 c 128,-1,48
 97 133 97 133 69.5 202 c 128,-1,49
 42 271 42 271 42 357 c 0,50,51
 42 436 42 436 67 506.5 c 128,-1,52
 92 577 92 577 136.5 635.5 c 128,-1,53
 181 694 181 694 242 741 c 128,-1,54
 303 788 303 788 374 821 c 1,55,56
 341 886 341 886 325.5 949.5 c 128,-1,57
 310 1013 310 1013 310 1071 c 0,58,59
 310 1158 310 1158 341 1235.5 c 128,-1,60
 372 1313 372 1313 428 1370.5 c 128,-1,61
 484 1428 484 1428 564.5 1462 c 128,-1,62
 645 1496 645 1496 745 1496 c 0,0,1
293 390 m 0,63,64
 293 291 293 291 345.5 234.5 c 128,-1,65
 398 178 398 178 498 178 c 0,66,67
 572 178 572 178 639.5 207.5 c 128,-1,68
 707 237 707 237 766 289 c 1,69,-1
 463 689 l 1,70,71
 372 630 372 630 332.5 553.5 c 128,-1,72
 293 477 293 477 293 390 c 0,63,64
EndSplineSet
Validated: 1
EndChar

StartChar: quotesingle
Encoding: 39 39 10
Width: 451
GlyphClass: 1
Flags: W
LayerCount: 2
Fore
SplineSet
452 1480 m 1,0,-1
 415 1185 l 1,1,-1
 374 1024 l 2,2,3
 363 981 363 981 342 957.5 c 128,-1,4
 321 934 321 934 278 934 c 0,5,6
 242 934 242 934 224 957.5 c 128,-1,7
 206 981 206 981 203 1024 c 2,8,-1
 203 1185 l 1,9,-1
 240 1480 l 1,10,-1
 452 1480 l 1,0,-1
EndSplineSet
Validated: 1
EndChar

StartChar: parenleft
Encoding: 40 40 11
Width: 565
GlyphClass: 1
Flags: W
LayerCount: 2
Fore
SplineSet
309 443 m 0,0,1
 309 372 309 372 315 293.5 c 128,-1,2
 321 215 321 215 332.5 135.5 c 128,-1,3
 344 56 344 56 361.5 -19 c 128,-1,4
 379 -94 379 -94 403 -159 c 0,5,6
 410 -177 410 -177 411 -195 c 0,7,8
 411 -218 411 -218 399 -231.5 c 128,-1,9
 387 -245 387 -245 370 -255 c 2,10,-1
 254 -319 l 1,11,12
 212 -232 212 -232 182.5 -138 c 128,-1,13
 153 -44 153 -44 134 51.5 c 128,-1,14
 115 147 115 147 105.5 242 c 128,-1,15
 96 337 96 337 96 425 c 0,16,17
 96 578 96 578 115 721.5 c 128,-1,18
 134 865 134 865 179 1008.5 c 128,-1,19
 224 1152 224 1152 300 1299 c 128,-1,20
 376 1446 376 1446 489 1605 c 1,21,-1
 591 1540 l 2,22,23
 602 1532 602 1532 610 1521.5 c 128,-1,24
 618 1511 618 1511 618 1496 c 0,25,26
 618 1486 618 1486 614 1473 c 128,-1,27
 610 1460 610 1460 600 1444 c 0,28,29
 530 1327 530 1327 476 1211 c 128,-1,30
 422 1095 422 1095 385 973 c 128,-1,31
 348 851 348 851 328.5 719.5 c 128,-1,32
 309 588 309 588 309 443 c 0,0,1
EndSplineSet
Validated: 1
EndChar

StartChar: parenright
Encoding: 41 41 12
Width: 565
GlyphClass: 1
Flags: W
LayerCount: 2
Fore
SplineSet
291 842 m 0,0,1
 291 913 291 913 285.5 991.5 c 128,-1,2
 280 1070 280 1070 268 1149.5 c 128,-1,3
 256 1229 256 1229 238.5 1304 c 128,-1,4
 221 1379 221 1379 197 1444 c 0,5,6
 190 1462 190 1462 189 1480 c 0,7,8
 189 1503 189 1503 201 1516.5 c 128,-1,9
 213 1530 213 1530 230 1540 c 2,10,-1
 346 1605 l 1,11,12
 387 1518 387 1518 417 1423.5 c 128,-1,13
 447 1329 447 1329 466 1233.5 c 128,-1,14
 485 1138 485 1138 494.5 1043 c 128,-1,15
 504 948 504 948 504 860 c 0,16,17
 504 707 504 707 485 563.5 c 128,-1,18
 466 420 466 420 421 276.5 c 128,-1,19
 376 133 376 133 300 -14 c 128,-1,20
 224 -161 224 -161 111 -319 c 1,21,-1
 9 -255 l 2,22,23
 -2 -247 -2 -247 -10 -236.5 c 128,-1,24
 -18 -226 -18 -226 -18 -211 c 0,25,26
 -18 -201 -18 -201 -14 -188 c 128,-1,27
 -10 -175 -10 -175 0 -159 c 0,28,29
 70 -42 70 -42 124 74 c 128,-1,30
 178 190 178 190 215 312 c 128,-1,31
 252 434 252 434 271.5 565.5 c 128,-1,32
 291 697 291 697 291 842 c 0,0,1
EndSplineSet
Validated: 1
EndChar

StartChar: asterisk
Encoding: 42 42 13
Width: 753
GlyphClass: 1
Flags: W
LayerCount: 2
Fore
SplineSet
356 860 m 1,0,-1
 380 1049 l 2,1,2
 382 1069 382 1069 386.5 1087 c 128,-1,3
 391 1105 391 1105 399 1122 c 1,4,5
 386 1109 386 1109 370.5 1099.5 c 128,-1,6
 355 1090 355 1090 338 1078 c 2,7,-1
 179 982 l 1,8,-1
 134 1081 l 1,9,-1
 293 1177 l 2,10,11
 312 1188 312 1188 331 1195.5 c 128,-1,12
 350 1203 350 1203 370 1205 c 1,13,14
 331 1211 331 1211 300 1234 c 2,15,-1
 164 1330 l 1,16,-1
 233 1430 l 1,17,-1
 370 1332 l 2,18,19
 384 1321 384 1321 398 1310 c 128,-1,20
 412 1299 412 1299 421 1285 c 1,21,22
 418 1295 418 1295 417 1305.5 c 128,-1,23
 416 1316 416 1316 416 1327 c 0,24,25
 416 1335 416 1335 416.5 1343.5 c 128,-1,26
 417 1352 417 1352 418 1360 c 2,27,-1
 441 1550 l 1,28,-1
 558 1550 l 1,29,-1
 535 1362 l 2,30,31
 533 1342 533 1342 527.5 1323.5 c 128,-1,32
 522 1305 522 1305 514 1288 c 1,33,34
 525 1299 525 1299 539.5 1309 c 128,-1,35
 554 1319 554 1319 569 1328 c 2,36,-1
 735 1428 l 1,37,-1
 780 1329 l 1,38,-1
 622 1234 l 2,39,40
 585 1211 585 1211 547 1205 c 1,41,42
 564 1202 564 1202 581 1195 c 128,-1,43
 598 1188 598 1188 614 1177 c 2,44,-1
 750 1080 l 1,45,-1
 681 982 l 1,46,-1
 545 1078 l 2,47,48
 531 1089 531 1089 517 1099.5 c 128,-1,49
 503 1110 503 1110 494 1122 c 1,50,51
 499 1099 499 1099 499 1079 c 0,52,53
 499 1072 499 1072 498.5 1065 c 128,-1,54
 498 1058 498 1058 497 1051 c 2,55,-1
 472 860 l 1,56,-1
 356 860 l 1,0,-1
EndSplineSet
Validated: 1
EndChar

StartChar: plus
Encoding: 43 43 14
Width: 1187
GlyphClass: 1
Flags: W
LayerCount: 2
Fore
SplineSet
777 1200 m 1,0,-1
 725 778 l 1,1,-1
 1126 778 l 1,2,-1
 1104 597 l 1,3,-1
 703 597 l 1,4,-1
 651 173 l 1,5,-1
 453 173 l 1,6,-1
 505 597 l 1,7,-1
 106 597 l 1,8,-1
 129 778 l 1,9,-1
 527 778 l 1,10,-1
 580 1200 l 1,11,-1
 777 1200 l 1,0,-1
EndSplineSet
Validated: 1
EndChar

StartChar: comma
Encoding: 44 44 15
Width: 460
GlyphClass: 1
Flags: W
LayerCount: 2
Fore
SplineSet
41 156 m 0,0,1
 41 185 41 185 51.5 209.5 c 128,-1,2
 62 234 62 234 81.5 253 c 128,-1,3
 101 272 101 272 128.5 283 c 128,-1,4
 156 294 156 294 188 294 c 0,5,6
 227 294 227 294 256.5 280 c 128,-1,7
 286 266 286 266 305 242 c 128,-1,8
 324 218 324 218 333.5 187 c 128,-1,9
 343 156 343 156 343 121 c 0,10,11
 343 72 343 72 328 17.5 c 128,-1,12
 313 -37 313 -37 284.5 -91 c 128,-1,13
 256 -145 256 -145 214 -196.5 c 128,-1,14
 172 -248 172 -248 117 -291 c 1,15,-1
 73 -251 l 2,16,17
 55 -236 55 -236 54 -214 c 0,18,19
 54 -199 54 -199 71.5 -179 c 128,-1,20
 89 -159 89 -159 111 -132.5 c 128,-1,21
 133 -106 133 -106 154.5 -72.5 c 128,-1,22
 176 -39 176 -39 185 3 c 1,23,24
 152 3 152 3 126 15 c 128,-1,25
 100 27 100 27 80.5 47.5 c 128,-1,26
 61 68 61 68 51 95.5 c 128,-1,27
 41 123 41 123 41 156 c 0,0,1
EndSplineSet
Validated: 1
EndChar

StartChar: hyphen
Encoding: 45 45 16
Width: 679
GlyphClass: 1
Flags: W
LayerCount: 2
Fore
SplineSet
121 720 m 1,0,-1
 613 720 l 1,1,-1
 588 516 l 1,2,-1
 96 516 l 1,3,-1
 121 720 l 1,0,-1
EndSplineSet
Validated: 1
EndChar

StartChar: period
Encoding: 46 46 17
Width: 460
GlyphClass: 1
Flags: W
LayerCount: 2
Fore
SplineSet
35 139 m 0,0,1
 35 171 35 171 46.5 199.5 c 128,-1,2
 58 228 58 228 79 248.5 c 128,-1,3
 100 269 100 269 128.5 281.5 c 128,-1,4
 157 294 157 294 189 294 c 256,5,6
 222 294 222 294 250.5 281.5 c 128,-1,7
 279 269 279 269 300 248.5 c 128,-1,8
 321 228 321 228 333 199.5 c 128,-1,9
 345 171 345 171 345 139 c 0,10,11
 345 106 345 106 333 78 c 128,-1,12
 321 50 321 50 300 29.5 c 128,-1,13
 279 9 279 9 250.5 -2.5 c 128,-1,14
 222 -14 222 -14 189 -14 c 256,15,16
 156 -14 156 -14 128 -2.5 c 128,-1,17
 100 9 100 9 79 29.5 c 128,-1,18
 58 50 58 50 46.5 78 c 128,-1,19
 35 106 35 106 35 139 c 0,0,1
EndSplineSet
Validated: 1
EndChar

StartChar: slash
Encoding: 47 47 18
Width: 741
GlyphClass: 1
Flags: W
LayerCount: 2
Fore
SplineSet
155 -7 m 2,0,1
 133 -52 133 -52 92.5 -75.5 c 128,-1,2
 52 -99 52 -99 15 -99 c 2,3,-1
 -89 -99 l 1,4,-1
 631 1404 l 2,5,6
 651 1446 651 1446 686.5 1468 c 128,-1,7
 722 1490 722 1490 766 1490 c 2,8,-1
 868 1490 l 1,9,-1
 155 -7 l 2,0,1
EndSplineSet
Validated: 1
EndChar

StartChar: zero
Encoding: 48 48 19
Width: 1187
GlyphClass: 1
Flags: W
LayerCount: 2
Fore
SplineSet
713 1496 m 0,0,1
 813 1496 813 1496 896.5 1458 c 128,-1,2
 980 1420 980 1420 1040 1345 c 128,-1,3
 1100 1270 1100 1270 1133 1156.5 c 128,-1,4
 1166 1043 1166 1043 1166 893 c 0,5,6
 1166 663 1166 663 1116 492 c 128,-1,7
 1066 321 1066 321 979 207.5 c 128,-1,8
 892 94 892 94 775 39 c 128,-1,9
 658 -16 658 -16 525 -16 c 0,10,11
 425 -16 425 -16 341.5 21.5 c 128,-1,12
 258 59 258 59 198 134.5 c 128,-1,13
 138 210 138 210 105 323 c 128,-1,14
 72 436 72 436 72 587 c 0,15,16
 72 817 72 817 122 988 c 128,-1,17
 172 1159 172 1159 259 1272 c 128,-1,18
 346 1385 346 1385 463 1440.5 c 128,-1,19
 580 1496 580 1496 713 1496 c 0,0,1
558 186 m 0,20,21
 632 186 632 186 696.5 229 c 128,-1,22
 761 272 761 272 808.5 359 c 128,-1,23
 856 446 856 446 883.5 578 c 128,-1,24
 911 710 911 710 911 888 c 0,25,26
 911 1003 911 1003 892 1080.5 c 128,-1,27
 873 1158 873 1158 841 1205.5 c 128,-1,28
 809 1253 809 1253 767 1273 c 128,-1,29
 725 1293 725 1293 680 1293 c 0,30,31
 606 1293 606 1293 541.5 1250 c 128,-1,32
 477 1207 477 1207 429.5 1120 c 128,-1,33
 382 1033 382 1033 354.5 901.5 c 128,-1,34
 327 770 327 770 327 592 c 0,35,36
 327 477 327 477 346 399.5 c 128,-1,37
 365 322 365 322 397 274.5 c 128,-1,38
 429 227 429 227 471 206.5 c 128,-1,39
 513 186 513 186 558 186 c 0,20,21
EndSplineSet
Validated: 1
EndChar

StartChar: one
Encoding: 49 49 20
Width: 1187
GlyphClass: 1
Flags: W
LayerCount: 2
Fore
SplineSet
239 183 m 1,0,-1
 541 183 l 1,1,-1
 651 1087 l 1,2,-1
 671 1174 l 1,3,-1
 422 983 l 2,4,5
 408 972 408 972 394.5 968 c 128,-1,6
 381 964 381 964 369 964 c 0,7,8
 349 964 349 964 332.5 972.5 c 128,-1,9
 316 981 316 981 310 992 c 2,10,-1
 248 1099 l 1,11,-1
 743 1483 l 1,12,-1
 945 1483 l 1,13,-1
 784 183 l 1,14,-1
 1055 183 l 1,15,-1
 1032 0 l 1,16,-1
 217 0 l 1,17,-1
 239 183 l 1,0,-1
EndSplineSet
Validated: 1
Substitution2: "'sups' Superscript in Latin lookup 2 subtable" onesuperior
EndChar

StartChar: two
Encoding: 50 50 21
Width: 1187
GlyphClass: 1
Flags: W
LayerCount: 2
Fore
SplineSet
731 1496 m 0,0,1
 824 1496 824 1496 900 1469.5 c 128,-1,2
 976 1443 976 1443 1029.5 1395 c 128,-1,3
 1083 1347 1083 1347 1112.5 1278 c 128,-1,4
 1142 1209 1142 1209 1142 1126 c 0,5,6
 1142 1034 1142 1034 1113.5 957.5 c 128,-1,7
 1085 881 1085 881 1036.5 812 c 128,-1,8
 988 743 988 743 922.5 678.5 c 128,-1,9
 857 614 857 614 782 547 c 2,10,-1
 400 199 l 1,11,12
 449 212 449 212 497 219.5 c 128,-1,13
 545 227 545 227 587 227 c 2,14,-1
 981 227 l 2,15,16
 1017 227 1017 227 1037.5 207.5 c 128,-1,17
 1058 188 1058 188 1058 157 c 0,18,19
 1058 155 1058 155 1057.5 151 c 128,-1,20
 1057 147 1057 147 1055.5 132.5 c 128,-1,21
 1054 118 1054 118 1050 86.5 c 128,-1,22
 1046 55 1046 55 1038 0 c 1,23,-1
 29 0 l 1,24,-1
 38 81 l 2,25,26
 41 105 41 105 54.5 132.5 c 128,-1,27
 68 160 68 160 93 182 c 2,28,-1
 601 636 l 2,29,30
 675 702 675 702 728.5 759 c 128,-1,31
 782 816 782 816 818 871.5 c 128,-1,32
 854 927 854 927 871.5 982.5 c 128,-1,33
 889 1038 889 1038 889 1102 c 0,34,35
 889 1193 889 1193 835.5 1241.5 c 128,-1,36
 782 1290 782 1290 691 1290 c 0,37,38
 645 1290 645 1290 604.5 1277.5 c 128,-1,39
 564 1265 564 1265 531.5 1241.5 c 128,-1,40
 499 1218 499 1218 474 1185 c 128,-1,41
 449 1152 449 1152 432 1113 c 0,42,43
 417 1075 417 1075 393 1058.5 c 128,-1,44
 369 1042 369 1042 335 1042 c 0,45,46
 321 1042 321 1042 302 1046 c 2,47,-1
 177 1068 l 1,48,49
 206 1173 206 1173 259 1253.5 c 128,-1,50
 312 1334 312 1334 385 1388 c 128,-1,51
 458 1442 458 1442 546 1469 c 128,-1,52
 634 1496 634 1496 731 1496 c 0,0,1
EndSplineSet
Validated: 1
Substitution2: "'sups' Superscript in Latin lookup 2 subtable" twosuperior
EndChar

StartChar: three
Encoding: 51 51 22
Width: 1187
GlyphClass: 1
Flags: W
LayerCount: 2
Fore
SplineSet
762 1496 m 0,0,1
 856 1496 856 1496 930.5 1470 c 128,-1,2
 1005 1444 1005 1444 1056.5 1398 c 128,-1,3
 1108 1352 1108 1352 1135 1289.5 c 128,-1,4
 1162 1227 1162 1227 1162 1154 c 0,5,6
 1162 1073 1162 1073 1143 1012.5 c 128,-1,7
 1124 952 1124 952 1088.5 907.5 c 128,-1,8
 1053 863 1053 863 1000.5 833.5 c 128,-1,9
 948 804 948 804 882 785 c 1,10,11
 997 746 997 746 1053 669 c 128,-1,12
 1109 592 1109 592 1109 483 c 0,13,14
 1109 363 1109 363 1062.5 270 c 128,-1,15
 1016 177 1016 177 937.5 113.5 c 128,-1,16
 859 50 859 50 757.5 17 c 128,-1,17
 656 -16 656 -16 546 -16 c 0,18,19
 442 -16 442 -16 363 7 c 128,-1,20
 284 30 284 30 227 78 c 128,-1,21
 170 126 170 126 134 199.5 c 128,-1,22
 98 273 98 273 79 374 c 1,23,-1
 193 418 l 2,24,25
 224 430 224 430 251 430 c 256,26,27
 278 430 278 430 295.5 420 c 128,-1,28
 313 410 313 410 321 389 c 0,29,30
 337 338 337 338 358.5 300.5 c 128,-1,31
 380 263 380 263 409.5 238 c 128,-1,32
 439 213 439 213 478 200.5 c 128,-1,33
 517 188 517 188 568 188 c 0,34,35
 639 188 639 188 694.5 213 c 128,-1,36
 750 238 750 238 787.5 278 c 128,-1,37
 825 318 825 318 845 370.5 c 128,-1,38
 865 423 865 423 865 478 c 0,39,40
 865 520 865 520 852 555.5 c 128,-1,41
 839 591 839 591 803 616 c 128,-1,42
 767 641 767 641 704.5 656 c 128,-1,43
 642 671 642 671 544 671 c 1,44,-1
 567 844 l 1,45,46
 662 845 662 845 729.5 863 c 128,-1,47
 797 881 797 881 839 914.5 c 128,-1,48
 881 948 881 948 900 995.5 c 128,-1,49
 919 1043 919 1043 919 1105 c 0,50,51
 919 1196 919 1196 866 1243 c 128,-1,52
 813 1290 813 1290 723 1290 c 0,53,54
 629 1290 629 1290 562 1241 c 128,-1,55
 495 1192 495 1192 462 1113 c 0,56,57
 447 1075 447 1075 423 1058.5 c 128,-1,58
 399 1042 399 1042 367 1042 c 0,59,60
 353 1042 353 1042 334 1046 c 2,61,-1
 209 1068 l 1,62,63
 237 1173 237 1173 290 1253.5 c 128,-1,64
 343 1334 343 1334 415 1388 c 128,-1,65
 487 1442 487 1442 575.5 1469 c 128,-1,66
 664 1496 664 1496 762 1496 c 0,0,1
EndSplineSet
Validated: 1
Substitution2: "'sups' Superscript in Latin lookup 2 subtable" threesuperior
EndChar

StartChar: four
Encoding: 52 52 23
Width: 1187
GlyphClass: 1
Flags: W
LayerCount: 2
Fore
SplineSet
974 553 m 1,0,-1
 1159 553 l 1,1,-1
 1140 414 l 2,2,3
 1138 395 1138 395 1123 380 c 128,-1,4
 1108 365 1108 365 1083 365 c 2,5,-1
 950 365 l 1,6,-1
 906 0 l 1,7,-1
 685 0 l 1,8,-1
 729 365 l 1,9,-1
 115 365 l 2,10,11
 89 365 89 365 66 380 c 128,-1,12
 43 395 43 395 40 418 c 2,13,-1
 31 542 l 1,14,-1
 849 1482 l 1,15,-1
 1086 1482 l 1,16,-1
 974 553 l 1,0,-1
814 1056 m 2,17,18
 822 1115 822 1115 841 1189 c 1,19,-1
 298 553 l 1,20,-1
 753 553 l 1,21,-1
 814 1056 l 2,17,18
EndSplineSet
Validated: 1
EndChar

StartChar: five
Encoding: 53 53 24
Width: 1187
GlyphClass: 1
Flags: W
LayerCount: 2
Fore
SplineSet
1119 1376 m 2,0,1
 1113 1325 1113 1325 1075.5 1292.5 c 128,-1,2
 1038 1260 1038 1260 961 1260 c 2,3,-1
 547 1260 l 1,4,-1
 452 938 l 1,5,6
 548 957 548 957 633 957 c 0,7,8
 742 957 742 957 822.5 927.5 c 128,-1,9
 903 898 903 898 957.5 845.5 c 128,-1,10
 1012 793 1012 793 1039 721 c 128,-1,11
 1066 649 1066 649 1066 565 c 0,12,13
 1066 479 1066 479 1044 402.5 c 128,-1,14
 1022 326 1022 326 982 261 c 128,-1,15
 942 196 942 196 885.5 144.5 c 128,-1,16
 829 93 829 93 761 57.5 c 128,-1,17
 693 22 693 22 614.5 3 c 128,-1,18
 536 -16 536 -16 451 -16 c 0,19,20
 381 -16 381 -16 320.5 -2.5 c 128,-1,21
 260 11 260 11 209 34.5 c 128,-1,22
 158 58 158 58 115.5 89.5 c 128,-1,23
 73 121 73 121 40 155 c 1,24,-1
 127 260 l 2,25,26
 141 277 141 277 158.5 284.5 c 128,-1,27
 176 292 176 292 194 292 c 0,28,29
 220 292 220 292 244 275.5 c 128,-1,30
 268 259 268 259 300.5 240 c 128,-1,31
 333 221 333 221 378 204.5 c 128,-1,32
 423 188 423 188 489 188 c 0,33,34
 568 188 568 188 629.5 215 c 128,-1,35
 691 242 691 242 733 289 c 128,-1,36
 775 336 775 336 797 398.5 c 128,-1,37
 819 461 819 461 819 534 c 0,38,39
 819 636 819 636 755 697 c 128,-1,40
 691 758 691 758 561 758 c 0,41,42
 514 758 514 758 460 749 c 128,-1,43
 406 740 406 740 341 722 c 1,44,-1
 195 765 l 1,45,-1
 406 1481 l 1,46,-1
 1132 1481 l 1,47,-1
 1119 1376 l 2,0,1
EndSplineSet
Validated: 1
EndChar

StartChar: six
Encoding: 54 54 25
Width: 1187
GlyphClass: 1
Flags: W
LayerCount: 2
Fore
SplineSet
735 922 m 0,0,1
 813 922 813 922 883 896.5 c 128,-1,2
 953 871 953 871 1006.5 823 c 128,-1,3
 1060 775 1060 775 1091 703 c 128,-1,4
 1122 631 1122 631 1122 538 c 0,5,6
 1122 422 1122 422 1077.5 321 c 128,-1,7
 1033 220 1033 220 955 145.5 c 128,-1,8
 877 71 877 71 770 27.5 c 128,-1,9
 663 -16 663 -16 537 -16 c 0,10,11
 431 -16 431 -16 346.5 16.5 c 128,-1,12
 262 49 262 49 204 108 c 128,-1,13
 146 167 146 167 116 249.5 c 128,-1,14
 86 332 86 332 86 430 c 0,15,16
 86 497 86 497 101 560 c 128,-1,17
 116 623 116 623 145 686 c 128,-1,18
 174 749 174 749 218 813 c 128,-1,19
 262 877 262 877 321 944 c 2,20,-1
 735 1421 l 2,21,22
 755 1446 755 1446 792 1463 c 128,-1,23
 829 1480 829 1480 872 1480 c 2,24,-1
 1090 1480 l 1,25,-1
 585 940 l 1,26,-1
 523 873 l 1,27,28
 570 897 570 897 623 909.5 c 128,-1,29
 676 922 676 922 735 922 c 0,0,1
317 421 m 0,30,31
 317 369 317 369 332.5 325 c 128,-1,32
 348 281 348 281 378.5 249 c 128,-1,33
 409 217 409 217 453.5 199.5 c 128,-1,34
 498 182 498 182 556 182 c 0,35,36
 624 182 624 182 682 206 c 128,-1,37
 740 230 740 230 783 272 c 128,-1,38
 826 314 826 314 851 372.5 c 128,-1,39
 876 431 876 431 876 499 c 0,40,41
 876 554 876 554 858.5 598.5 c 128,-1,42
 841 643 841 643 808.5 674.5 c 128,-1,43
 776 706 776 706 731 722 c 128,-1,44
 686 738 686 738 630 738 c 0,45,46
 562 738 562 738 504.5 714 c 128,-1,47
 447 690 447 690 406 647.5 c 128,-1,48
 365 605 365 605 341 547.5 c 128,-1,49
 317 490 317 490 317 421 c 0,30,31
EndSplineSet
Validated: 1
EndChar

StartChar: seven
Encoding: 55 55 26
Width: 1187
GlyphClass: 1
Flags: W
LayerCount: 2
Fore
SplineSet
1242 1481 m 1,0,-1
 1231 1384 l 2,1,2
 1227 1350 1227 1350 1218 1320.5 c 128,-1,3
 1209 1291 1209 1291 1198 1272 c 2,4,-1
 457 57 l 2,5,6
 443 33 443 33 416 16.5 c 128,-1,7
 389 0 389 0 359 0 c 2,8,-1
 156 0 l 1,9,-1
 874 1144 l 2,10,11
 896 1179 896 1179 918.5 1206.5 c 128,-1,12
 941 1234 941 1234 967 1260 c 1,13,-1
 251 1260 l 2,14,15
 229 1260 229 1260 214.5 1274.5 c 128,-1,16
 200 1289 200 1289 200 1310 c 2,17,-1
 221 1481 l 1,18,-1
 1242 1481 l 1,0,-1
EndSplineSet
Validated: 1
EndChar

StartChar: eight
Encoding: 56 56 27
Width: 1187
GlyphClass: 1
Flags: W
LayerCount: 2
Fore
SplineSet
530 -16 m 0,0,1
 425 -16 425 -16 339.5 11 c 128,-1,2
 254 38 254 38 193 88 c 128,-1,3
 132 138 132 138 99.5 208.5 c 128,-1,4
 67 279 67 279 67 365 c 0,5,6
 67 518 67 518 145 622 c 128,-1,7
 223 726 223 726 384 772 c 1,8,9
 293 813 293 813 248 884.5 c 128,-1,10
 203 956 203 956 203 1053 c 0,11,12
 203 1147 203 1147 242 1228.5 c 128,-1,13
 281 1310 281 1310 349.5 1369 c 128,-1,14
 418 1428 418 1428 512 1462 c 128,-1,15
 606 1496 606 1496 716 1496 c 0,16,17
 811 1496 811 1496 888 1468.5 c 128,-1,18
 965 1441 965 1441 1019 1393 c 128,-1,19
 1073 1345 1073 1345 1103 1280 c 128,-1,20
 1133 1215 1133 1215 1133 1141 c 0,21,22
 1133 1008 1133 1008 1066.5 913 c 128,-1,23
 1000 818 1000 818 871 769 c 1,24,25
 987 729 987 729 1043.5 650.5 c 128,-1,26
 1100 572 1100 572 1100 463 c 256,27,28
 1100 353 1100 353 1057 264.5 c 128,-1,29
 1014 176 1014 176 938 113.5 c 128,-1,30
 862 51 862 51 757.5 17.5 c 128,-1,31
 653 -16 653 -16 530 -16 c 0,0,1
553 175 m 0,32,33
 624 175 624 175 678.5 196 c 128,-1,34
 733 217 733 217 771 254.5 c 128,-1,35
 809 292 809 292 828.5 344 c 128,-1,36
 848 396 848 396 848 459 c 0,37,38
 848 511 848 511 831.5 550.5 c 128,-1,39
 815 590 815 590 784.5 616.5 c 128,-1,40
 754 643 754 643 711 656.5 c 128,-1,41
 668 670 668 670 614 670 c 0,42,43
 546 670 546 670 492.5 651 c 128,-1,44
 439 632 439 632 400.5 596 c 128,-1,45
 362 560 362 560 342 507 c 128,-1,46
 322 454 322 454 322 386 c 0,47,48
 322 340 322 340 336.5 301.5 c 128,-1,49
 351 263 351 263 380.5 235 c 128,-1,50
 410 207 410 207 453 191 c 128,-1,51
 496 175 496 175 553 175 c 0,32,33
637 860 m 0,52,53
 712 860 712 860 761 884.5 c 128,-1,54
 810 909 810 909 839 947.5 c 128,-1,55
 868 986 868 986 880 1032.5 c 128,-1,56
 892 1079 892 1079 892 1123 c 0,57,58
 892 1161 892 1161 880.5 1195 c 128,-1,59
 869 1229 869 1229 845 1254.5 c 128,-1,60
 821 1280 821 1280 783.5 1295.5 c 128,-1,61
 746 1311 746 1311 694 1311 c 0,62,63
 631 1311 631 1311 583 1290.5 c 128,-1,64
 535 1270 535 1270 503 1235.5 c 128,-1,65
 471 1201 471 1201 455 1155 c 128,-1,66
 439 1109 439 1109 439 1057 c 0,67,68
 439 1019 439 1019 449.5 983.5 c 128,-1,69
 460 948 460 948 483.5 920.5 c 128,-1,70
 507 893 507 893 545 876.5 c 128,-1,71
 583 860 583 860 637 860 c 0,52,53
EndSplineSet
Validated: 1
EndChar

StartChar: nine
Encoding: 57 57 28
Width: 1187
GlyphClass: 1
Flags: W
LayerCount: 2
Fore
SplineSet
557 593 m 0,0,1
 485 593 485 593 419.5 616.5 c 128,-1,2
 354 640 354 640 304 686.5 c 128,-1,3
 254 733 254 733 224.5 801.5 c 128,-1,4
 195 870 195 870 195 962 c 0,5,6
 195 1073 195 1073 238 1170 c 128,-1,7
 281 1267 281 1267 356.5 1339.5 c 128,-1,8
 432 1412 432 1412 535.5 1454 c 128,-1,9
 639 1496 639 1496 760 1496 c 0,10,11
 862 1496 862 1496 943 1465 c 128,-1,12
 1024 1434 1024 1434 1080 1377.5 c 128,-1,13
 1136 1321 1136 1321 1165 1243 c 128,-1,14
 1194 1165 1194 1165 1194 1072 c 0,15,16
 1194 994 1194 994 1178 926 c 128,-1,17
 1162 858 1162 858 1133 794.5 c 128,-1,18
 1104 731 1104 731 1061 669 c 128,-1,19
 1018 607 1018 607 965 543 c 2,20,-1
 563 56 l 2,21,22
 543 32 543 32 508.5 16 c 128,-1,23
 474 0 474 0 431 0 c 2,24,-1
 207 0 l 1,25,-1
 736 575 l 2,26,27
 756 598 756 598 775.5 619.5 c 128,-1,28
 795 641 795 641 812 663 c 1,29,30
 756 628 756 628 691.5 610.5 c 128,-1,31
 627 593 627 593 557 593 c 0,0,1
963 1070 m 0,32,33
 963 1122 963 1122 946 1164 c 128,-1,34
 929 1206 929 1206 898.5 1235.5 c 128,-1,35
 868 1265 868 1265 825.5 1280.5 c 128,-1,36
 783 1296 783 1296 732 1296 c 0,37,38
 669 1296 669 1296 615.5 1273.5 c 128,-1,39
 562 1251 562 1251 523.5 1211 c 128,-1,40
 485 1171 485 1171 463.5 1115.5 c 128,-1,41
 442 1060 442 1060 442 994 c 0,42,43
 442 890 442 890 499 833.5 c 128,-1,44
 556 777 556 777 665 777 c 0,45,46
 734 777 734 777 789 799.5 c 128,-1,47
 844 822 844 822 883 862 c 128,-1,48
 922 902 922 902 942.5 955.5 c 128,-1,49
 963 1009 963 1009 963 1070 c 0,32,33
EndSplineSet
Validated: 1
EndChar

StartChar: colon
Encoding: 58 58 29
Width: 460
GlyphClass: 1
Flags: W
LayerCount: 2
Fore
SplineSet
35 139 m 0,0,1
 35 171 35 171 46.5 199.5 c 128,-1,2
 58 228 58 228 79 248.5 c 128,-1,3
 100 269 100 269 128.5 281.5 c 128,-1,4
 157 294 157 294 189 294 c 256,5,6
 222 294 222 294 250.5 281.5 c 128,-1,7
 279 269 279 269 300 248.5 c 128,-1,8
 321 228 321 228 333 199.5 c 128,-1,9
 345 171 345 171 345 139 c 0,10,11
 345 106 345 106 333 78 c 128,-1,12
 321 50 321 50 300 29.5 c 128,-1,13
 279 9 279 9 250.5 -2.5 c 128,-1,14
 222 -14 222 -14 189 -14 c 256,15,16
 156 -14 156 -14 128 -2.5 c 128,-1,17
 100 9 100 9 79 29.5 c 128,-1,18
 58 50 58 50 46.5 78 c 128,-1,19
 35 106 35 106 35 139 c 0,0,1
135 869 m 0,20,21
 135 901 135 901 147 929.5 c 128,-1,22
 159 958 159 958 180 978.5 c 128,-1,23
 201 999 201 999 229 1011.5 c 128,-1,24
 257 1024 257 1024 290 1024 c 256,25,26
 323 1024 323 1024 351 1011.5 c 128,-1,27
 379 999 379 999 400 978.5 c 128,-1,28
 421 958 421 958 433 929.5 c 128,-1,29
 445 901 445 901 445 869 c 0,30,31
 445 836 445 836 433 808 c 128,-1,32
 421 780 421 780 400 759.5 c 128,-1,33
 379 739 379 739 351 727.5 c 128,-1,34
 323 716 323 716 290 716 c 256,35,36
 257 716 257 716 229 727.5 c 128,-1,37
 201 739 201 739 180 759.5 c 128,-1,38
 159 780 159 780 147 808 c 128,-1,39
 135 836 135 836 135 869 c 0,20,21
EndSplineSet
Validated: 1
EndChar

StartChar: semicolon
Encoding: 59 59 30
Width: 460
GlyphClass: 1
Flags: W
LayerCount: 2
Fore
SplineSet
36 156 m 0,0,1
 36 185 36 185 46.5 209.5 c 128,-1,2
 57 234 57 234 76.5 253 c 128,-1,3
 96 272 96 272 123.5 283 c 128,-1,4
 151 294 151 294 183 294 c 0,5,6
 222 294 222 294 251.5 280 c 128,-1,7
 281 266 281 266 299.5 242 c 128,-1,8
 318 218 318 218 328 187 c 128,-1,9
 338 156 338 156 338 121 c 0,10,11
 338 72 338 72 323 17.5 c 128,-1,12
 308 -37 308 -37 279.5 -91 c 128,-1,13
 251 -145 251 -145 209 -196.5 c 128,-1,14
 167 -248 167 -248 112 -291 c 1,15,-1
 68 -251 l 2,16,17
 50 -236 50 -236 49 -214 c 0,18,19
 49 -199 49 -199 66.5 -179 c 128,-1,20
 84 -159 84 -159 106 -132.5 c 128,-1,21
 128 -106 128 -106 149.5 -72.5 c 128,-1,22
 171 -39 171 -39 180 3 c 1,23,24
 147 3 147 3 121 15 c 128,-1,25
 95 27 95 27 75.5 47.5 c 128,-1,26
 56 68 56 68 46 95.5 c 128,-1,27
 36 123 36 123 36 156 c 0,0,1
137 869 m 0,28,29
 137 901 137 901 149 929.5 c 128,-1,30
 161 958 161 958 182 978.5 c 128,-1,31
 203 999 203 999 231 1011.5 c 128,-1,32
 259 1024 259 1024 292 1024 c 256,33,34
 325 1024 325 1024 353 1011.5 c 128,-1,35
 381 999 381 999 402 978.5 c 128,-1,36
 423 958 423 958 435 929.5 c 128,-1,37
 447 901 447 901 447 869 c 0,38,39
 447 836 447 836 435 808 c 128,-1,40
 423 780 423 780 402 759.5 c 128,-1,41
 381 739 381 739 353 727.5 c 128,-1,42
 325 716 325 716 292 716 c 256,43,44
 259 716 259 716 231 727.5 c 128,-1,45
 203 739 203 739 182 759.5 c 128,-1,46
 161 780 161 780 149 808 c 128,-1,47
 137 836 137 836 137 869 c 0,28,29
EndSplineSet
Validated: 1
EndChar

StartChar: less
Encoding: 60 60 31
Width: 1092
GlyphClass: 1
Flags: W
LayerCount: 2
Fore
SplineSet
163 741 m 1,0,-1
 1026 1164 l 1,1,-1
 1004 984 l 2,2,3
 1002 964 1002 964 989.5 947 c 128,-1,4
 977 930 977 930 951 918 c 2,5,-1
 556 727 l 2,6,7
 530 715 530 715 503 706 c 128,-1,8
 476 697 476 697 446 690 c 1,9,10
 474 683 474 683 499 674.5 c 128,-1,11
 524 666 524 666 547 653 c 2,12,-1
 896 462 l 2,13,14
 916 451 916 451 924.5 437 c 128,-1,15
 933 423 933 423 933 406 c 0,16,17
 933 405 933 405 932.5 400.5 c 128,-1,18
 932 396 932 396 929.5 377.5 c 128,-1,19
 927 359 927 359 922.5 321.5 c 128,-1,20
 918 284 918 284 909 215 c 1,21,-1
 151 639 l 1,22,-1
 163 741 l 1,0,-1
EndSplineSet
Validated: 1
EndChar

StartChar: equal
Encoding: 61 61 32
Width: 1187
GlyphClass: 1
Flags: W
LayerCount: 2
Fore
SplineSet
152 600 m 1,0,-1
 1056 600 l 1,1,-1
 1033 419 l 1,2,-1
 129 419 l 1,3,-1
 152 600 l 1,0,-1
197 958 m 1,4,-1
 1099 958 l 1,5,-1
 1078 776 l 1,6,-1
 174 776 l 1,7,-1
 197 958 l 1,4,-1
EndSplineSet
Validated: 1
EndChar

StartChar: greater
Encoding: 62 62 33
Width: 1092
GlyphClass: 1
Flags: W
LayerCount: 2
Fore
SplineSet
979 639 m 1,0,-1
 116 216 l 1,1,-1
 138 396 l 2,2,3
 140 416 140 416 152.5 433.5 c 128,-1,4
 165 451 165 451 190 463 c 2,5,-1
 586 653 l 2,6,7
 612 665 612 665 639 674 c 128,-1,8
 666 683 666 683 695 690 c 1,9,10
 667 697 667 697 642 706 c 128,-1,11
 617 715 617 715 595 727 c 2,12,-1
 246 919 l 2,13,14
 226 930 226 930 217.5 943.5 c 128,-1,15
 209 957 209 957 209 975 c 0,16,17
 209 976 209 976 209.5 980 c 128,-1,18
 210 984 210 984 212 1002.5 c 128,-1,19
 214 1021 214 1021 219 1059 c 128,-1,20
 224 1097 224 1097 232 1165 c 1,21,-1
 991 741 l 1,22,-1
 979 639 l 1,0,-1
EndSplineSet
Validated: 1
EndChar

StartChar: question
Encoding: 63 63 34
Width: 798
GlyphClass: 1
Flags: W
LayerCount: 2
Fore
SplineSet
138 1346 m 1,0,1
 175 1377 175 1377 216.5 1404 c 128,-1,2
 258 1431 258 1431 305.5 1452 c 128,-1,3
 353 1473 353 1473 407 1484.5 c 128,-1,4
 461 1496 461 1496 521 1496 c 0,5,6
 601 1496 601 1496 663 1473 c 128,-1,7
 725 1450 725 1450 767 1410 c 128,-1,8
 809 1370 809 1370 830.5 1316.5 c 128,-1,9
 852 1263 852 1263 852 1201 c 0,10,11
 852 1136 852 1136 838.5 1086.5 c 128,-1,12
 825 1037 825 1037 802.5 999 c 128,-1,13
 780 961 780 961 751.5 931 c 128,-1,14
 723 901 723 901 691.5 876 c 128,-1,15
 660 851 660 851 629 829 c 128,-1,16
 598 807 598 807 571 783.5 c 128,-1,17
 544 760 544 760 523.5 733.5 c 128,-1,18
 503 707 503 707 494 672 c 2,19,-1
 453 520 l 1,20,-1
 285 520 l 1,21,-1
 285 688 l 2,22,23
 285 739 285 739 310 779 c 128,-1,24
 335 819 335 819 373.5 853 c 128,-1,25
 412 887 412 887 456 918 c 128,-1,26
 500 949 500 949 538.5 984 c 128,-1,27
 577 1019 577 1019 602 1060 c 128,-1,28
 627 1101 627 1101 627 1155 c 0,29,30
 627 1222 627 1222 589 1260 c 128,-1,31
 551 1298 551 1298 476 1298 c 0,32,33
 424 1298 424 1298 385.5 1285 c 128,-1,34
 347 1272 347 1272 319.5 1256 c 128,-1,35
 292 1240 292 1240 272.5 1226.5 c 128,-1,36
 253 1213 253 1213 237 1213 c 0,37,38
 222 1213 222 1213 209.5 1220.5 c 128,-1,39
 197 1228 197 1228 190 1244 c 2,40,-1
 138 1346 l 1,0,1
187 139 m 0,41,42
 187 171 187 171 199 199.5 c 128,-1,43
 211 228 211 228 231.5 248.5 c 128,-1,44
 252 269 252 269 280.5 281.5 c 128,-1,45
 309 294 309 294 342 294 c 256,46,47
 375 294 375 294 403 281.5 c 128,-1,48
 431 269 431 269 452 248.5 c 128,-1,49
 473 228 473 228 485.5 199.5 c 128,-1,50
 498 171 498 171 498 139 c 0,51,52
 498 106 498 106 485.5 78 c 128,-1,53
 473 50 473 50 452 29.5 c 128,-1,54
 431 9 431 9 403 -2.5 c 128,-1,55
 375 -14 375 -14 342 -14 c 256,56,57
 309 -14 309 -14 280.5 -2.5 c 128,-1,58
 252 9 252 9 231.5 29.5 c 128,-1,59
 211 50 211 50 199 78 c 128,-1,60
 187 106 187 106 187 139 c 0,41,42
EndSplineSet
Validated: 1
EndChar

StartChar: at
Encoding: 64 64 35
Width: 1526
GlyphClass: 1
Flags: W
LayerCount: 2
Fore
SplineSet
1046 188 m 0,0,1
 981 188 981 188 935 220.5 c 128,-1,2
 889 253 889 253 878 326 c 1,3,4
 813 252 813 252 746.5 220.5 c 128,-1,5
 680 189 680 189 607 189 c 0,6,7
 555 189 555 189 517 207.5 c 128,-1,8
 479 226 479 226 453.5 259 c 128,-1,9
 428 292 428 292 415.5 336.5 c 128,-1,10
 403 381 403 381 403 432 c 0,11,12
 403 494 403 494 419.5 559.5 c 128,-1,13
 436 625 436 625 468.5 686.5 c 128,-1,14
 501 748 501 748 548.5 801.5 c 128,-1,15
 596 855 596 855 658.5 895.5 c 128,-1,16
 721 936 721 936 798.5 959.5 c 128,-1,17
 876 983 876 983 967 983 c 0,18,19
 1005 983 1005 983 1035.5 980 c 128,-1,20
 1066 977 1066 977 1092.5 971.5 c 128,-1,21
 1119 966 1119 966 1142.5 957.5 c 128,-1,22
 1166 949 1166 949 1190 938 c 1,23,-1
 1052 559 l 2,24,25
 1035 513 1035 513 1028.5 478.5 c 128,-1,26
 1022 444 1022 444 1022 420 c 0,27,28
 1022 374 1022 374 1043.5 357 c 128,-1,29
 1065 340 1065 340 1099 340 c 0,30,31
 1145 340 1145 340 1187 375 c 128,-1,32
 1229 410 1229 410 1261 471 c 128,-1,33
 1293 532 1293 532 1312.5 616 c 128,-1,34
 1332 700 1332 700 1332 799 c 0,35,36
 1332 910 1332 910 1301 995 c 128,-1,37
 1270 1080 1270 1080 1212 1138 c 128,-1,38
 1154 1196 1154 1196 1071.5 1225.5 c 128,-1,39
 989 1255 989 1255 888 1255 c 0,40,41
 798 1255 798 1255 714.5 1228.5 c 128,-1,42
 631 1202 631 1202 559 1153 c 128,-1,43
 487 1104 487 1104 428.5 1035 c 128,-1,44
 370 966 370 966 328 880 c 128,-1,45
 286 794 286 794 263 694 c 128,-1,46
 240 594 240 594 240 483 c 0,47,48
 240 344 240 344 278 237.5 c 128,-1,49
 316 131 316 131 386 59 c 128,-1,50
 456 -13 456 -13 553 -50.5 c 128,-1,51
 650 -88 650 -88 768 -88 c 0,52,53
 841 -88 841 -88 904 -80 c 128,-1,54
 967 -72 967 -72 1018.5 -58 c 128,-1,55
 1070 -44 1070 -44 1110.5 -26.5 c 128,-1,56
 1151 -9 1151 -9 1181 8 c 0,57,58
 1195 16 1195 16 1207.5 19.5 c 128,-1,59
 1220 23 1220 23 1230 23 c 0,60,61
 1252 23 1252 23 1263 10.5 c 128,-1,62
 1274 -2 1274 -2 1279 -19 c 2,63,-1
 1297 -89 l 1,64,65
 1191 -159 1191 -159 1055 -203 c 128,-1,66
 919 -247 919 -247 750 -247 c 0,67,68
 594 -247 594 -247 467.5 -196 c 128,-1,69
 341 -145 341 -145 251 -51.5 c 128,-1,70
 161 42 161 42 111.5 175 c 128,-1,71
 62 308 62 308 62 474 c 0,72,73
 62 602 62 602 93 721.5 c 128,-1,74
 124 841 124 841 179 945.5 c 128,-1,75
 234 1050 234 1050 312 1135.5 c 128,-1,76
 390 1221 390 1221 484 1282 c 128,-1,77
 578 1343 578 1343 685.5 1377 c 128,-1,78
 793 1411 793 1411 907 1411 c 0,79,80
 1031 1411 1031 1411 1139.5 1368.5 c 128,-1,81
 1248 1326 1248 1326 1329.5 1246.5 c 128,-1,82
 1411 1167 1411 1167 1458 1053.5 c 128,-1,83
 1505 940 1505 940 1505 799 c 0,84,85
 1505 670 1505 670 1469 558.5 c 128,-1,86
 1433 447 1433 447 1370.5 365 c 128,-1,87
 1308 283 1308 283 1224.5 235.5 c 128,-1,88
 1141 188 1141 188 1046 188 c 0,0,1
676 347 m 0,89,90
 700 347 700 347 724.5 356 c 128,-1,91
 749 365 749 365 773 386.5 c 128,-1,92
 797 408 797 408 819.5 444 c 128,-1,93
 842 480 842 480 862 535 c 2,94,-1
 968 825 l 1,95,96
 940 831 940 831 908 831 c 0,97,98
 847 831 847 831 790 799.5 c 128,-1,99
 733 768 733 768 689.5 716 c 128,-1,100
 646 664 646 664 620 596.5 c 128,-1,101
 594 529 594 529 594 459 c 0,102,103
 594 407 594 407 614.5 377 c 128,-1,104
 635 347 635 347 676 347 c 0,89,90
EndSplineSet
Validated: 1
EndChar

StartChar: A
Encoding: 65 65 36
Width: 1313
GlyphClass: 1
Flags: W
LayerCount: 2
Fore
SplineSet
1267 0 m 1,0,-1
 1061 0 l 2,1,2
 1026 0 1026 0 1005.5 16.5 c 128,-1,3
 985 33 985 33 980 60 c 2,4,-1
 919 370 l 1,5,-1
 367 370 l 1,6,-1
 229 60 l 2,7,8
 218 36 218 36 192.5 18 c 128,-1,9
 167 0 167 0 135 0 c 2,10,-1
 -74 0 l 1,11,-1
 642 1481 l 1,12,-1
 913 1481 l 1,13,-1
 1267 0 l 1,0,-1
450 557 m 1,14,-1
 881 557 l 1,15,-1
 780 1064 l 2,16,17
 772 1101 772 1101 764 1142 c 128,-1,18
 756 1183 756 1183 749 1234 c 1,19,20
 730 1183 730 1183 710.5 1139.5 c 128,-1,21
 691 1096 691 1096 675 1063 c 2,22,-1
 450 557 l 1,14,-1
EndSplineSet
Validated: 1
EndChar

StartChar: B
Encoding: 66 66 37
Width: 1228
GlyphClass: 1
Flags: W
LayerCount: 2
Fore
SplineSet
72 0 m 1,0,-1
 254 1481 l 1,1,-1
 729 1481 l 2,2,3
 852 1481 852 1481 939.5 1457 c 128,-1,4
 1027 1433 1027 1433 1083 1389 c 128,-1,5
 1139 1345 1139 1345 1165.5 1282.5 c 128,-1,6
 1192 1220 1192 1220 1192 1143 c 0,7,8
 1192 1080 1192 1080 1175 1022 c 128,-1,9
 1158 964 1158 964 1122 914.5 c 128,-1,10
 1086 865 1086 865 1031 826 c 128,-1,11
 976 787 976 787 899 762 c 1,12,13
 1025 730 1025 730 1086.5 659 c 128,-1,14
 1148 588 1148 588 1148 478 c 0,15,16
 1148 376 1148 376 1110 288.5 c 128,-1,17
 1072 201 1072 201 1000.5 137 c 128,-1,18
 929 73 929 73 826 36.5 c 128,-1,19
 723 0 723 0 593 0 c 2,20,-1
 72 0 l 1,0,-1
417 652 m 1,21,-1
 362 207 l 1,22,-1
 613 207 l 2,23,24
 685 207 685 207 736 226.5 c 128,-1,25
 787 246 787 246 820.5 281 c 128,-1,26
 854 316 854 316 870 366 c 128,-1,27
 886 416 886 416 886 475 c 0,28,29
 886 556 886 556 834.5 604 c 128,-1,30
 783 652 783 652 667 652 c 2,31,-1
 417 652 l 1,21,-1
439 836 m 1,32,-1
 636 836 l 2,33,34
 773 836 773 836 847.5 900.5 c 128,-1,35
 922 965 922 965 922 1098 c 0,36,37
 922 1191 922 1191 869 1233.5 c 128,-1,38
 816 1276 816 1276 705 1276 c 2,39,-1
 494 1276 l 1,40,-1
 439 836 l 1,32,-1
EndSplineSet
Validated: 1
EndChar

StartChar: C
Encoding: 67 67 38
Width: 1235
GlyphClass: 1
Flags: W
LayerCount: 2
Fore
SplineSet
694 209 m 0,0,1
 756 209 756 209 803 218.5 c 128,-1,2
 850 228 850 228 884.5 243.5 c 128,-1,3
 919 259 919 259 943.5 276 c 128,-1,4
 968 293 968 293 986.5 308.5 c 128,-1,5
 1005 324 1005 324 1019 333.5 c 128,-1,6
 1033 343 1033 343 1048 343 c 0,7,8
 1060 343 1060 343 1068 338 c 128,-1,9
 1076 333 1076 333 1081 328 c 2,10,-1
 1175 212 l 1,11,12
 1079 101 1079 101 948.5 42.5 c 128,-1,13
 818 -16 818 -16 649 -16 c 0,14,15
 513 -16 513 -16 406.5 32.5 c 128,-1,16
 300 81 300 81 226.5 167 c 128,-1,17
 153 253 153 253 114.5 370.5 c 128,-1,18
 76 488 76 488 76 628 c 0,19,20
 76 756 76 756 103.5 870 c 128,-1,21
 131 984 131 984 182 1081 c 128,-1,22
 233 1178 233 1178 305 1254.5 c 128,-1,23
 377 1331 377 1331 464 1385.5 c 128,-1,24
 551 1440 551 1440 652 1468.5 c 128,-1,25
 753 1497 753 1497 862 1497 c 0,26,27
 943 1497 943 1497 1009.5 1482 c 128,-1,28
 1076 1467 1076 1467 1130.5 1440.5 c 128,-1,29
 1185 1414 1185 1414 1228 1376.5 c 128,-1,30
 1271 1339 1271 1339 1306 1293 c 1,31,-1
 1213 1183 l 2,32,33
 1203 1171 1203 1171 1189.5 1161.5 c 128,-1,34
 1176 1152 1176 1152 1155 1152 c 0,35,36
 1132 1152 1132 1152 1112 1170.5 c 128,-1,37
 1092 1189 1092 1189 1060.5 1211 c 128,-1,38
 1029 1233 1029 1233 979.5 1251.5 c 128,-1,39
 930 1270 930 1270 849 1270 c 0,40,41
 743 1270 743 1270 651.5 1226.5 c 128,-1,42
 560 1183 560 1183 492.5 1102 c 128,-1,43
 425 1021 425 1021 386.5 907 c 128,-1,44
 348 793 348 793 348 650 c 0,45,46
 348 547 348 547 374 465 c 128,-1,47
 400 383 400 383 446.5 326 c 128,-1,48
 493 269 493 269 556 239 c 128,-1,49
 619 209 619 209 694 209 c 0,0,1
EndSplineSet
Validated: 1
EndChar

StartChar: D
Encoding: 68 68 39
Width: 1406
GlyphClass: 1
Flags: W
LayerCount: 2
Fore
SplineSet
1386 840 m 0,0,1
 1386 656 1386 656 1327 501 c 128,-1,2
 1268 346 1268 346 1162 235 c 128,-1,3
 1056 124 1056 124 910.5 62 c 128,-1,4
 765 0 765 0 593 0 c 2,5,-1
 72 0 l 1,6,-1
 254 1481 l 1,7,-1
 776 1481 l 2,8,9
 917 1481 917 1481 1030.5 1432.5 c 128,-1,10
 1144 1384 1144 1384 1223 1299 c 128,-1,11
 1302 1214 1302 1214 1344 1096.5 c 128,-1,12
 1386 979 1386 979 1386 840 c 0,0,1
1114 834 m 0,13,14
 1114 933 1114 933 1089.5 1014 c 128,-1,15
 1065 1095 1065 1095 1018.5 1151.5 c 128,-1,16
 972 1208 972 1208 904.5 1239 c 128,-1,17
 837 1270 837 1270 750 1270 c 2,18,-1
 495 1270 l 1,19,-1
 365 212 l 1,20,-1
 620 212 l 2,21,22
 732 212 732 212 822.5 255 c 128,-1,23
 913 298 913 298 978 378.5 c 128,-1,24
 1043 459 1043 459 1078.5 574.5 c 128,-1,25
 1114 690 1114 690 1114 834 c 0,13,14
EndSplineSet
Validated: 1
EndChar

StartChar: E
Encoding: 69 69 40
Width: 1076
GlyphClass: 1
Flags: W
LayerCount: 2
Fore
SplineSet
1117 1481 m 1,0,-1
 1091 1269 l 1,1,-1
 495 1269 l 1,2,-1
 443 848 l 1,3,-1
 911 848 l 1,4,-1
 886 644 l 1,5,-1
 418 644 l 1,6,-1
 365 212 l 1,7,-1
 963 212 l 1,8,-1
 936 0 l 1,9,-1
 72 0 l 1,10,-1
 254 1481 l 1,11,-1
 1117 1481 l 1,0,-1
EndSplineSet
Validated: 1
EndChar

StartChar: F
Encoding: 70 70 41
Width: 1056
GlyphClass: 1
Flags: W
LayerCount: 2
Fore
SplineSet
1091 1269 m 1,0,-1
 495 1269 l 1,1,-1
 439 818 l 1,2,-1
 942 818 l 1,3,-1
 914 606 l 1,4,-1
 414 606 l 1,5,-1
 339 0 l 1,6,-1
 72 0 l 1,7,-1
 254 1481 l 1,8,-1
 1117 1481 l 1,9,-1
 1091 1269 l 1,0,-1
EndSplineSet
Validated: 1
EndChar

StartChar: G
Encoding: 71 71 42
Width: 1358
GlyphClass: 1
Flags: W
LayerCount: 2
Fore
SplineSet
724 196 m 0,0,1
 807 196 807 196 870.5 211.5 c 128,-1,2
 934 227 934 227 992 256 c 1,3,-1
 1027 539 l 1,4,-1
 863 539 l 2,5,6
 839 539 839 539 826.5 550.5 c 128,-1,7
 814 562 814 562 814 581 c 2,8,-1
 831 738 l 1,9,-1
 1292 738 l 1,10,-1
 1219 143 l 1,11,12
 1106 61 1106 61 976 22.5 c 128,-1,13
 846 -16 846 -16 679 -16 c 0,14,15
 543 -16 543 -16 432 33 c 128,-1,16
 321 82 321 82 241.5 169.5 c 128,-1,17
 162 257 162 257 119 377.5 c 128,-1,18
 76 498 76 498 76 640 c 0,19,20
 76 765 76 765 103.5 877 c 128,-1,21
 131 989 131 989 181.5 1084.5 c 128,-1,22
 232 1180 232 1180 303.5 1256 c 128,-1,23
 375 1332 375 1332 463.5 1386 c 128,-1,24
 552 1440 552 1440 654.5 1468.5 c 128,-1,25
 757 1497 757 1497 869 1497 c 0,26,27
 959 1497 959 1497 1033 1481 c 128,-1,28
 1107 1465 1107 1465 1166.5 1437.5 c 128,-1,29
 1226 1410 1226 1410 1273 1373 c 128,-1,30
 1320 1336 1320 1336 1357 1295 c 1,31,-1
 1271 1185 l 2,32,33
 1243 1149 1243 1149 1205 1149 c 0,34,35
 1181 1149 1181 1149 1160 1163 c 0,36,37
 1126 1186 1126 1186 1094.5 1205.5 c 128,-1,38
 1063 1225 1063 1225 1027 1239 c 128,-1,39
 991 1253 991 1253 948.5 1261.5 c 128,-1,40
 906 1270 906 1270 850 1270 c 0,41,42
 739 1270 739 1270 647 1225.5 c 128,-1,43
 555 1181 555 1181 488.5 1099.5 c 128,-1,44
 422 1018 422 1018 385 904 c 128,-1,45
 348 790 348 790 348 649 c 0,46,47
 348 543 348 543 375 459 c 128,-1,48
 402 375 402 375 451.5 316.5 c 128,-1,49
 501 258 501 258 570 227 c 128,-1,50
 639 196 639 196 724 196 c 0,0,1
EndSplineSet
Validated: 1
EndChar

StartChar: H
Encoding: 72 72 43
Width: 1425
GlyphClass: 1
Flags: W
LayerCount: 2
Fore
SplineSet
1229 0 m 1,0,-1
 962 0 l 1,1,-1
 1041 650 l 1,2,-1
 419 650 l 1,3,-1
 339 0 l 1,4,-1
 72 0 l 1,5,-1
 254 1481 l 1,6,-1
 521 1481 l 1,7,-1
 441 839 l 1,8,-1
 1065 839 l 1,9,-1
 1145 1481 l 1,10,-1
 1412 1481 l 1,11,-1
 1229 0 l 1,0,-1
EndSplineSet
Validated: 1
EndChar

StartChar: I
Encoding: 73 73 44
Width: 593
GlyphClass: 1
Flags: W
LayerCount: 2
Fore
SplineSet
369 0 m 1,0,-1
 101 0 l 1,1,-1
 283 1481 l 1,2,-1
 550 1481 l 1,3,-1
 369 0 l 1,0,-1
EndSplineSet
Validated: 1
EndChar

StartChar: J
Encoding: 74 74 45
Width: 821
GlyphClass: 1
Flags: W
LayerCount: 2
Fore
SplineSet
689 513 m 2,0,1
 674 390 674 390 634 292 c 128,-1,2
 594 194 594 194 530 125.5 c 128,-1,3
 466 57 466 57 378 20.5 c 128,-1,4
 290 -16 290 -16 178 -16 c 0,5,6
 124 -16 124 -16 74.5 -9.5 c 128,-1,7
 25 -3 25 -3 -28 11 c 1,8,-1
 -8 167 l 2,9,10
 -6 189 -6 189 6.5 203 c 128,-1,11
 19 217 19 217 46 217 c 0,12,13
 70 217 70 217 100.5 210 c 128,-1,14
 131 203 131 203 179 203 c 0,15,16
 226 203 226 203 266 219.5 c 128,-1,17
 306 236 306 236 338 272 c 128,-1,18
 370 308 370 308 391.5 366 c 128,-1,19
 413 424 413 424 423 507 c 2,20,-1
 542 1481 l 1,21,-1
 808 1481 l 1,22,-1
 689 513 l 2,0,1
EndSplineSet
Validated: 1
EndChar

StartChar: K
Encoding: 75 75 46
Width: 1320
GlyphClass: 1
Flags: W
LayerCount: 2
Fore
SplineSet
449 855 m 1,0,-1
 506 855 l 2,1,2
 542 855 542 855 567 866 c 128,-1,3
 592 877 592 877 612 901 c 2,4,-1
 1040 1423 l 2,5,6
 1067 1456 1067 1456 1096.5 1468.5 c 128,-1,7
 1126 1481 1126 1481 1166 1481 c 2,8,-1
 1395 1481 l 1,9,-1
 870 861 l 2,10,11
 846 833 846 833 824.5 814 c 128,-1,12
 803 795 803 795 778 783 c 1,13,14
 809 771 809 771 831 749.5 c 128,-1,15
 853 728 853 728 871 693 c 2,16,-1
 1247 0 l 1,17,-1
 1014 0 l 2,18,19
 990 0 990 0 973.5 3.5 c 128,-1,20
 957 7 957 7 945.5 13.5 c 128,-1,21
 934 20 934 20 926.5 30 c 128,-1,22
 919 40 919 40 912 52 c 2,23,-1
 607 604 l 2,24,25
 593 631 593 631 570.5 642.5 c 128,-1,26
 548 654 548 654 504 654 c 2,27,-1
 424 654 l 1,28,-1
 343 0 l 1,29,-1
 79 0 l 1,30,-1
 260 1482 l 1,31,-1
 526 1482 l 1,32,-1
 449 855 l 1,0,-1
EndSplineSet
Validated: 1
EndChar

StartChar: L
Encoding: 76 76 47
Width: 974
GlyphClass: 1
Flags: W
LayerCount: 2
Fore
SplineSet
364 220 m 1,0,-1
 902 220 l 1,1,-1
 877 0 l 1,2,-1
 72 0 l 1,3,-1
 254 1481 l 1,4,-1
 519 1481 l 1,5,-1
 364 220 l 1,0,-1
EndSplineSet
Validated: 1
EndChar

StartChar: M
Encoding: 77 77 48
Width: 1756
GlyphClass: 1
Flags: W
LayerCount: 2
Fore
SplineSet
856 559 m 0,0,1
 856 559 856 559 876 481 c 1,2,3
 888 510 888 510 902 537 c 128,-1,4
 916 564 916 564 933 592 c 2,5,-1
 1447 1438 l 2,6,7
 1456 1453 1456 1453 1466 1461.5 c 128,-1,8
 1476 1470 1476 1470 1486.5 1474.5 c 128,-1,9
 1497 1479 1497 1479 1510.5 1480 c 128,-1,10
 1524 1481 1524 1481 1541 1481 c 2,11,-1
 1743 1481 l 1,12,-1
 1561 0 l 1,13,-1
 1327 0 l 1,14,-1
 1446 965 l 2,15,16
 1450 1002 1450 1002 1456 1026 c 0,17,18
 1462 1056 1462 1056 1468 1087 c 1,19,-1
 959 242 l 2,20,21
 941 213 941 213 915.5 198.5 c 128,-1,22
 890 184 890 184 859 184 c 2,23,-1
 822 184 l 2,24,25
 791 184 791 184 768 198 c 0,26,27
 746 213 746 213 735 242 c 2,28,-1
 430 1084 l 1,29,30
 429 1052 429 1052 427.5 1023 c 128,-1,31
 426 994 426 994 423 969 c 2,32,-1
 306 0 l 1,33,-1
 72 0 l 1,34,-1
 254 1481 l 1,35,-1
 454 1481 l 2,36,37
 471 1481 471 1481 484.5 1480 c 128,-1,38
 498 1479 498 1479 508 1474.5 c 128,-1,39
 518 1470 518 1470 526 1460 c 0,40,41
 534 1451 534 1451 539 1438 c 2,42,-1
 845 592 l 1,43,-1
 856 559 l 0,0,1
EndSplineSet
Validated: 1
EndChar

StartChar: N
Encoding: 78 78 49
Width: 1425
GlyphClass: 1
Flags: W
LayerCount: 2
Fore
SplineSet
422 1480 m 0,0,1
 436 1478 436 1478 444 1473 c 0,2,3
 454 1468 454 1468 460.5 1460 c 128,-1,4
 467 1452 467 1452 475 1438 c 2,5,-1
 1052 427 l 1,6,7
 1054 457 1054 457 1056.5 485 c 128,-1,8
 1059 513 1059 513 1062 538 c 2,9,-1
 1178 1481 l 1,10,-1
 1412 1481 l 1,11,-1
 1229 0 l 1,12,-1
 1093 0 l 2,13,14
 1062 0 1062 0 1040.5 9.5 c 128,-1,15
 1019 19 1019 19 1005 46 c 2,16,-1
 431 1057 l 1,17,18
 429 1032 429 1032 427 1009 c 128,-1,19
 425 986 425 986 423 966 c 2,20,-1
 306 0 l 1,21,-1
 72 0 l 1,22,-1
 254 1481 l 1,23,-1
 393 1481 l 1,24,25
 400 1481 400 1481 406 1481 c 0,26,27
 417 1481 417 1481 422 1480 c 0,0,1
EndSplineSet
Validated: 1
EndChar

StartChar: O
Encoding: 79 79 50
Width: 1499
GlyphClass: 1
Flags: W
LayerCount: 2
Fore
SplineSet
1481 840 m 0,0,1
 1481 717 1481 717 1453.5 606 c 128,-1,2
 1426 495 1426 495 1375.5 399.5 c 128,-1,3
 1325 304 1325 304 1254 227.5 c 128,-1,4
 1183 151 1183 151 1094.5 96.5 c 128,-1,5
 1006 42 1006 42 902.5 13 c 128,-1,6
 799 -16 799 -16 685 -16 c 0,7,8
 544 -16 544 -16 431 34 c 128,-1,9
 318 84 318 84 239 172 c 128,-1,10
 160 260 160 260 118 380 c 128,-1,11
 76 500 76 500 76 640 c 0,12,13
 76 763 76 763 103 874 c 128,-1,14
 130 985 130 985 180.5 1080.5 c 128,-1,15
 231 1176 231 1176 302.5 1252.5 c 128,-1,16
 374 1329 374 1329 462.5 1384 c 128,-1,17
 551 1439 551 1439 654.5 1468 c 128,-1,18
 758 1497 758 1497 872 1497 c 0,19,20
 1013 1497 1013 1497 1126 1447 c 128,-1,21
 1239 1397 1239 1397 1318 1309 c 128,-1,22
 1397 1221 1397 1221 1439 1100.5 c 128,-1,23
 1481 980 1481 980 1481 840 c 0,0,1
1208 834 m 0,24,25
 1208 934 1208 934 1183 1016 c 128,-1,26
 1158 1098 1158 1098 1110.5 1156 c 128,-1,27
 1063 1214 1063 1214 994.5 1246 c 128,-1,28
 926 1278 926 1278 840 1278 c 0,29,30
 729 1278 729 1278 638.5 1233 c 128,-1,31
 548 1188 548 1188 483.5 1105 c 128,-1,32
 419 1022 419 1022 383.5 905 c 128,-1,33
 348 788 348 788 348 646 c 0,34,35
 348 546 348 546 372.5 464 c 128,-1,36
 397 382 397 382 444.5 324 c 128,-1,37
 492 266 492 266 560 235 c 128,-1,38
 628 204 628 204 715 204 c 0,39,40
 827 204 827 204 918 249 c 128,-1,41
 1009 294 1009 294 1073.5 376 c 128,-1,42
 1138 458 1138 458 1173 574.5 c 128,-1,43
 1208 691 1208 691 1208 834 c 0,24,25
EndSplineSet
Validated: 1
EndChar

StartChar: P
Encoding: 80 80 51
Width: 1182
GlyphClass: 1
Flags: W
LayerCount: 2
Fore
SplineSet
408 524 m 1,0,-1
 343 0 l 1,1,-1
 79 0 l 1,2,-1
 260 1481 l 1,3,-1
 711 1481 l 2,4,5
 837 1481 837 1481 927.5 1450.5 c 128,-1,6
 1018 1420 1018 1420 1076.5 1366 c 128,-1,7
 1135 1312 1135 1312 1163 1237.5 c 128,-1,8
 1191 1163 1191 1163 1191 1074 c 0,9,10
 1191 955 1191 955 1153.5 854.5 c 128,-1,11
 1116 754 1116 754 1041.5 680.5 c 128,-1,12
 967 607 967 607 854.5 565.5 c 128,-1,13
 742 524 742 524 593 524 c 2,14,-1
 408 524 l 1,0,-1
501 1276 m 1,15,-1
 433 731 l 1,16,-1
 620 731 l 2,17,18
 698 731 698 731 755 754.5 c 128,-1,19
 812 778 812 778 850 820.5 c 128,-1,20
 888 863 888 863 906 921.5 c 128,-1,21
 924 980 924 980 924 1051 c 0,22,23
 924 1101 924 1101 909.5 1143 c 128,-1,24
 895 1185 895 1185 865.5 1214 c 128,-1,25
 836 1243 836 1243 791 1259.5 c 128,-1,26
 746 1276 746 1276 685 1276 c 2,27,-1
 501 1276 l 1,15,-1
EndSplineSet
Validated: 1
EndChar

StartChar: Q
Encoding: 81 81 52
Width: 1499
GlyphClass: 1
Flags: W
LayerCount: 2
Fore
SplineSet
1481 840 m 0,0,1
 1481 722 1481 722 1456 614.5 c 128,-1,2
 1431 507 1431 507 1383.5 414.5 c 128,-1,3
 1336 322 1336 322 1270 245.5 c 128,-1,4
 1204 169 1204 169 1121 114 c 1,5,-1
 1417 -291 l 1,6,-1
 1200 -291 l 2,7,8
 1152 -291 1152 -291 1115.5 -278.5 c 128,-1,9
 1079 -266 1079 -266 1054 -230 c 2,10,-1
 884 8 l 1,11,12
 837 -3 837 -3 787 -9.5 c 128,-1,13
 737 -16 737 -16 685 -16 c 0,14,15
 544 -16 544 -16 431 34 c 128,-1,16
 318 84 318 84 239 172 c 128,-1,17
 160 260 160 260 118 380 c 128,-1,18
 76 500 76 500 76 640 c 0,19,20
 76 763 76 763 103 874 c 128,-1,21
 130 985 130 985 180.5 1080.5 c 128,-1,22
 231 1176 231 1176 302.5 1252.5 c 128,-1,23
 374 1329 374 1329 462.5 1384 c 128,-1,24
 551 1439 551 1439 654.5 1468 c 128,-1,25
 758 1497 758 1497 872 1497 c 0,26,27
 1013 1497 1013 1497 1126 1447 c 128,-1,28
 1239 1397 1239 1397 1318 1309 c 128,-1,29
 1397 1221 1397 1221 1439 1100.5 c 128,-1,30
 1481 980 1481 980 1481 840 c 0,0,1
1208 834 m 0,31,32
 1208 934 1208 934 1183 1016 c 128,-1,33
 1158 1098 1158 1098 1110.5 1156 c 128,-1,34
 1063 1214 1063 1214 994.5 1246 c 128,-1,35
 926 1278 926 1278 840 1278 c 0,36,37
 729 1278 729 1278 638.5 1233 c 128,-1,38
 548 1188 548 1188 483.5 1105 c 128,-1,39
 419 1022 419 1022 383.5 905 c 128,-1,40
 348 788 348 788 348 646 c 0,41,42
 348 546 348 546 372.5 464 c 128,-1,43
 397 382 397 382 444.5 324 c 128,-1,44
 492 266 492 266 560 235 c 128,-1,45
 628 204 628 204 715 204 c 0,46,47
 827 204 827 204 918 249 c 128,-1,48
 1009 294 1009 294 1073.5 376 c 128,-1,49
 1138 458 1138 458 1173 574.5 c 128,-1,50
 1208 691 1208 691 1208 834 c 0,31,32
EndSplineSet
Validated: 1
EndChar

StartChar: R
Encoding: 82 82 53
Width: 1238
GlyphClass: 1
Flags: W
LayerCount: 2
Fore
SplineSet
415 584 m 1,0,-1
 343 0 l 1,1,-1
 79 0 l 1,2,-1
 260 1481 l 1,3,-1
 681 1481 l 2,4,5
 809 1481 809 1481 900 1453.5 c 128,-1,6
 991 1426 991 1426 1049.5 1377.5 c 128,-1,7
 1108 1329 1108 1329 1135.5 1261.5 c 128,-1,8
 1163 1194 1163 1194 1163 1113 c 0,9,10
 1163 1027 1163 1027 1139 952 c 128,-1,11
 1115 877 1115 877 1070 815.5 c 128,-1,12
 1025 754 1025 754 959.5 708 c 128,-1,13
 894 662 894 662 811 636 c 1,14,15
 835 622 835 622 854 601.5 c 128,-1,16
 873 581 873 581 888 552 c 2,17,-1
 1152 0 l 1,18,-1
 913 0 l 2,19,20
 879 0 879 0 856.5 14 c 128,-1,21
 834 28 834 28 822 53 c 2,22,-1
 605 534 l 2,23,24
 593 561 593 561 575 572.5 c 128,-1,25
 557 584 557 584 519 584 c 2,26,-1
 415 584 l 1,0,-1
501 1276 m 1,27,-1
 438 773 l 1,28,-1
 592 773 l 2,29,30
 672 773 672 773 729.5 796 c 128,-1,31
 787 819 787 819 824.5 859.5 c 128,-1,32
 862 900 862 900 880.5 954.5 c 128,-1,33
 899 1009 899 1009 899 1071 c 0,34,35
 899 1167 899 1167 839.5 1221.5 c 128,-1,36
 780 1276 780 1276 656 1276 c 2,37,-1
 501 1276 l 1,27,-1
EndSplineSet
Validated: 1
EndChar

StartChar: S
Encoding: 83 83 54
Width: 1012
GlyphClass: 1
Flags: W
LayerCount: 2
Fore
SplineSet
957 1214 m 2,0,1
 943 1194 943 1194 928.5 1184.5 c 128,-1,2
 914 1175 914 1175 894 1175 c 256,3,4
 874 1175 874 1175 852 1191 c 128,-1,5
 830 1207 830 1207 800.5 1227 c 128,-1,6
 771 1247 771 1247 730.5 1263.5 c 128,-1,7
 690 1280 690 1280 633 1280 c 0,8,9
 577 1280 577 1280 533.5 1263.5 c 128,-1,10
 490 1247 490 1247 461 1218.5 c 128,-1,11
 432 1190 432 1190 417 1151 c 128,-1,12
 402 1112 402 1112 402 1067 c 0,13,14
 402 1020 402 1020 426.5 988.5 c 128,-1,15
 451 957 451 957 489.5 933.5 c 128,-1,16
 528 910 528 910 578.5 891.5 c 128,-1,17
 629 873 629 873 680.5 853 c 128,-1,18
 732 833 732 833 782.5 806 c 128,-1,19
 833 779 833 779 871.5 740 c 128,-1,20
 910 701 910 701 934 646.5 c 128,-1,21
 958 592 958 592 958 514 c 0,22,23
 958 405 958 405 921 309 c 128,-1,24
 884 213 884 213 813.5 141 c 128,-1,25
 743 69 743 69 643.5 26.5 c 128,-1,26
 544 -16 544 -16 419 -16 c 0,27,28
 354 -16 354 -16 291.5 -2.5 c 128,-1,29
 229 11 229 11 174 36.5 c 128,-1,30
 119 62 119 62 72 98 c 128,-1,31
 25 134 25 134 -10 178 c 1,32,-1
 84 305 l 2,33,34
 95 319 95 319 112.5 328.5 c 128,-1,35
 130 338 130 338 147 338 c 0,36,37
 163 338 163 338 179.5 327.5 c 128,-1,38
 196 317 196 317 214.5 302.5 c 128,-1,39
 233 288 233 288 255.5 270 c 128,-1,40
 278 252 278 252 306.5 237 c 128,-1,41
 335 222 335 222 371 212 c 128,-1,42
 407 202 407 202 454 202 c 0,43,44
 570 202 570 202 635 267.5 c 128,-1,45
 700 333 700 333 700 449 c 0,46,47
 700 500 700 500 676.5 532.5 c 128,-1,48
 653 565 653 565 614 587.5 c 128,-1,49
 575 610 575 610 526 627 c 128,-1,50
 477 644 477 644 425.5 663 c 128,-1,51
 374 682 374 682 324.5 707 c 128,-1,52
 275 732 275 732 236.5 771.5 c 128,-1,53
 198 811 198 811 174.5 868.5 c 128,-1,54
 151 926 151 926 151 1010 c 0,55,56
 151 1105 151 1105 186 1193 c 128,-1,57
 221 1281 221 1281 286.5 1348 c 128,-1,58
 352 1415 352 1415 446 1455.5 c 128,-1,59
 540 1496 540 1496 657 1496 c 0,60,61
 717 1496 717 1496 773 1483.5 c 128,-1,62
 829 1471 829 1471 877.5 1448.5 c 128,-1,63
 926 1426 926 1426 966.5 1395 c 128,-1,64
 1007 1364 1007 1364 1036 1326 c 1,65,-1
 957 1214 l 2,0,1
EndSplineSet
Validated: 1
EndChar

StartChar: T
Encoding: 84 84 55
Width: 1122
GlyphClass: 1
Flags: W
LayerCount: 2
Fore
SplineSet
1221 1481 m 1,0,-1
 1193 1263 l 1,1,-1
 787 1263 l 1,2,-1
 632 0 l 1,3,-1
 368 0 l 1,4,-1
 522 1263 l 1,5,-1
 116 1263 l 1,6,-1
 142 1481 l 1,7,-1
 1221 1481 l 1,0,-1
EndSplineSet
Validated: 1
EndChar

StartChar: U
Encoding: 85 85 56
Width: 1370
GlyphClass: 1
Flags: W
LayerCount: 2
Fore
SplineSet
650 213 m 0,0,1
 722 213 722 213 782 240 c 128,-1,2
 842 267 842 267 887 317 c 128,-1,3
 932 367 932 367 961 436.5 c 128,-1,4
 990 506 990 506 1000 591 c 2,5,-1
 1110 1481 l 1,6,-1
 1375 1481 l 1,7,-1
 1267 591 l 2,8,9
 1251 460 1251 460 1197.5 348.5 c 128,-1,10
 1144 237 1144 237 1060.5 156 c 128,-1,11
 977 75 977 75 866 29.5 c 128,-1,12
 755 -16 755 -16 623 -16 c 0,13,14
 503 -16 503 -16 409.5 21 c 128,-1,15
 316 58 316 58 252 126 c 128,-1,16
 188 194 188 194 155 287.5 c 128,-1,17
 122 381 122 381 122 494 c 0,18,19
 122 540 122 540 128 591 c 2,20,-1
 236 1481 l 1,21,-1
 502 1481 l 1,22,-1
 392 592 l 2,23,24
 390 573 390 573 389 554.5 c 128,-1,25
 388 536 388 536 388 518 c 0,26,27
 388 448 388 448 405 392 c 128,-1,28
 422 336 422 336 455 296 c 128,-1,29
 488 256 488 256 537.5 234.5 c 128,-1,30
 587 213 587 213 650 213 c 0,0,1
EndSplineSet
Validated: 1
EndChar

StartChar: V
Encoding: 86 86 57
Width: 1347
GlyphClass: 1
Flags: W
LayerCount: 2
Fore
SplineSet
124 1481 m 1,0,-1
 337 1481 l 2,1,2
 372 1481 372 1481 392.5 1464 c 128,-1,3
 413 1447 413 1447 418 1420 c 2,4,-1
 615 498 l 2,5,6
 625 450 625 450 634.5 401 c 128,-1,7
 644 352 644 352 652 297 c 1,8,9
 669 352 669 352 691 403 c 128,-1,10
 713 454 713 454 733 498 c 2,11,-1
 1154 1420 l 2,12,13
 1164 1443 1164 1443 1190.5 1462 c 128,-1,14
 1217 1481 1217 1481 1249 1481 c 2,15,-1
 1464 1481 l 1,16,-1
 733 0 l 1,17,-1
 492 0 l 1,18,-1
 124 1481 l 1,0,-1
EndSplineSet
Validated: 1
EndChar

StartChar: W
Encoding: 87 87 58
Width: 1979
GlyphClass: 1
Flags: W
LayerCount: 2
Fore
SplineSet
131 1481 m 1,0,-1
 340 1481 l 2,1,2
 375 1481 375 1481 396 1464 c 128,-1,3
 417 1447 417 1447 421 1420 c 2,4,-1
 551 512 l 2,5,6
 556 479 556 479 557.5 441 c 128,-1,7
 559 403 559 403 561 361 c 1,8,9
 588 445 588 445 615 512 c 2,10,-1
 984 1420 l 2,11,12
 993 1443 993 1443 1019.5 1462 c 128,-1,13
 1046 1481 1046 1481 1078 1481 c 2,14,-1
 1140 1481 l 2,15,16
 1175 1481 1175 1481 1196.5 1464 c 128,-1,17
 1218 1447 1218 1447 1223 1420 c 2,18,-1
 1370 512 l 2,19,20
 1375 479 1375 479 1379.5 442.5 c 128,-1,21
 1384 406 1384 406 1386 366 c 1,22,23
 1397 406 1397 406 1408.5 443 c 128,-1,24
 1420 480 1420 480 1433 512 c 2,25,-1
 1784 1420 l 2,26,27
 1793 1444 1793 1444 1820 1462.5 c 128,-1,28
 1847 1481 1847 1481 1880 1481 c 2,29,-1
 2090 1481 l 1,30,-1
 1485 0 l 1,31,-1
 1244 0 l 1,32,-1
 1077 1026 l 2,33,34
 1074 1045 1074 1045 1070.5 1068.5 c 128,-1,35
 1067 1092 1067 1092 1065 1117 c 1,36,37
 1057 1091 1057 1091 1048 1068.5 c 128,-1,38
 1039 1046 1039 1046 1031 1026 c 2,39,-1
 612 0 l 1,40,-1
 373 0 l 1,41,-1
 131 1481 l 1,0,-1
EndSplineSet
Validated: 1
EndChar

StartChar: X
Encoding: 88 88 59
Width: 1291
GlyphClass: 1
Flags: W
LayerCount: 2
Fore
SplineSet
497 791 m 1,0,-1
 164 1481 l 1,1,-1
 404 1481 l 2,2,3
 431 1481 431 1481 443 1473 c 128,-1,4
 455 1465 455 1465 463 1447 c 2,5,-1
 690 936 l 1,6,7
 700 958 700 958 715 979 c 2,8,-1
 1029 1444 l 2,9,10
 1054 1481 1054 1481 1090 1481 c 2,11,-1
 1367 1481 l 1,12,-1
 863 803 l 1,13,-1
 1235 0 l 1,14,-1
 997 0 l 2,15,16
 970 0 970 0 955.5 14.5 c 128,-1,17
 941 29 941 29 933 46 c 2,18,-1
 676 639 l 1,19,20
 671 631 671 631 666.5 622.5 c 128,-1,21
 662 614 662 614 656 606 c 2,22,-1
 273 46 l 2,23,24
 256 20 256 20 235.5 10 c 128,-1,25
 215 0 215 0 190 0 c 2,26,-1
 -75 0 l 1,27,-1
 497 791 l 1,0,-1
EndSplineSet
Validated: 1
EndChar

StartChar: Y
Encoding: 89 89 60
Width: 1241
GlyphClass: 1
Flags: W
LayerCount: 2
Fore
SplineSet
763 577 m 1,0,-1
 691 0 l 1,1,-1
 425 0 l 1,2,-1
 497 578 l 1,3,-1
 112 1481 l 1,4,-1
 348 1481 l 2,5,6
 383 1481 383 1481 401.5 1464 c 128,-1,7
 420 1447 420 1447 430 1420 c 2,8,-1
 622 908 l 2,9,10
 636 871 636 871 644.5 836 c 128,-1,11
 653 801 653 801 659 767 c 1,12,13
 675 801 675 801 694.5 835.5 c 128,-1,14
 714 870 714 870 737 908 c 2,15,-1
 1056 1420 l 2,16,17
 1070 1444 1070 1444 1093 1462.5 c 128,-1,18
 1116 1481 1116 1481 1150 1481 c 2,19,-1
 1370 1481 l 1,20,-1
 763 577 l 1,0,-1
EndSplineSet
Validated: 1
EndChar

StartChar: Z
Encoding: 90 90 61
Width: 1160
GlyphClass: 1
Flags: W
LayerCount: 2
Fore
SplineSet
1233 1481 m 1,0,-1
 1222 1398 l 2,1,2
 1220 1381 1220 1381 1211.5 1365.5 c 128,-1,3
 1203 1350 1203 1350 1192 1334 c 2,4,-1
 374 212 l 1,5,-1
 1060 212 l 1,6,-1
 1033 0 l 1,7,-1
 -7 0 l 1,8,-1
 3 81 l 2,9,10
 5 98 5 98 12.5 114 c 128,-1,11
 20 130 20 130 32 144 c 2,12,-1
 852 1269 l 1,13,-1
 195 1269 l 1,14,-1
 220 1481 l 1,15,-1
 1233 1481 l 1,0,-1
EndSplineSet
Validated: 1
EndChar

StartChar: bracketleft
Encoding: 91 91 62
Width: 565
GlyphClass: 1
Flags: W
LayerCount: 2
Fore
SplineSet
4 -312 m 1,0,-1
 237 1582 l 1,1,-1
 629 1582 l 1,2,-1
 617 1486 l 2,3,4
 614 1461 614 1461 593.5 1442.5 c 128,-1,5
 573 1424 573 1424 546 1424 c 2,6,-1
 422 1424 l 1,7,-1
 226 -156 l 1,8,-1
 353 -156 l 2,9,10
 376 -156 376 -156 392.5 -168.5 c 128,-1,11
 409 -181 409 -181 409 -204 c 2,12,-1
 396 -312 l 1,13,-1
 4 -312 l 1,0,-1
EndSplineSet
Validated: 1
EndChar

StartChar: backslash
Encoding: 92 92 63
Width: 739
GlyphClass: 1
Flags: W
LayerCount: 2
Fore
SplineSet
106 1490 m 1,0,-1
 209 1490 l 2,1,2
 253 1490 253 1490 283.5 1467.5 c 128,-1,3
 314 1445 314 1445 324 1404 c 2,4,-1
 674 -99 l 1,5,-1
 571 -99 l 2,6,7
 532 -99 532 -99 498 -75.5 c 128,-1,8
 464 -52 464 -52 453 -7 c 2,9,-1
 106 1490 l 1,0,-1
EndSplineSet
Validated: 1
EndChar

StartChar: bracketright
Encoding: 93 93 64
Width: 565
GlyphClass: 1
Flags: W
LayerCount: 2
Fore
SplineSet
-32 -312 m 1,0,-1
 -19 -218 l 2,1,2
 -16 -191 -16 -191 4 -173.5 c 128,-1,3
 24 -156 24 -156 51 -156 c 2,4,-1
 177 -156 l 1,5,-1
 372 1424 l 1,6,-1
 246 1424 l 2,7,8
 220 1424 220 1424 204.5 1440 c 128,-1,9
 189 1456 189 1456 189 1479 c 2,10,-1
 202 1582 l 1,11,-1
 594 1582 l 1,12,-1
 360 -312 l 1,13,-1
 -32 -312 l 1,0,-1
EndSplineSet
Validated: 1
EndChar

StartChar: asciicircum
Encoding: 94 94 65
Width: 1187
GlyphClass: 1
Flags: W
LayerCount: 2
Fore
SplineSet
1108 796 m 1,0,-1
 923 796 l 2,1,2
 899 796 899 796 884 808 c 128,-1,3
 869 820 869 820 859 838 c 2,4,-1
 697 1134 l 2,5,6
 682 1163 682 1163 669 1188.5 c 128,-1,7
 656 1214 656 1214 647 1240 c 1,8,9
 639 1213 639 1213 627.5 1187 c 128,-1,10
 616 1161 616 1161 601 1134 c 2,11,-1
 442 838 l 2,12,13
 433 821 433 821 417 808.5 c 128,-1,14
 401 796 401 796 375 796 c 2,15,-1
 180 796 l 1,16,-1
 562 1481 l 1,17,-1
 726 1481 l 1,18,-1
 1108 796 l 1,0,-1
EndSplineSet
Validated: 1
EndChar

StartChar: underscore
Encoding: 95 95 66
Width: 743
GlyphClass: 1
Flags: W
LayerCount: 2
Fore
SplineSet
664 -141 m 1,0,-1
 644 -300 l 1,1,-1
 -99 -300 l 1,2,-1
 -80 -141 l 1,3,-1
 664 -141 l 1,0,-1
EndSplineSet
Validated: 1
EndChar

StartChar: grave
Encoding: 96 96 67
Width: 605
GlyphClass: 1
Flags: W
LayerCount: 2
Fore
SplineSet
266 1496 m 2,0,1
 305 1496 305 1496 322.5 1482.5 c 128,-1,2
 340 1469 340 1469 351 1443 c 2,3,-1
 454 1194 l 1,4,-1
 314 1194 l 2,5,6
 287 1194 287 1194 270.5 1201 c 128,-1,7
 254 1208 254 1208 240 1229 c 2,8,-1
 37 1496 l 1,9,-1
 266 1496 l 2,0,1
EndSplineSet
Validated: 1
Substitution2: "'case' Case-Sensitive Forms in Latin lookup 0 subtable" grave.case
EndChar

StartChar: a
Encoding: 97 97 68
Width: 1059
GlyphClass: 1
Flags: W
LayerCount: 2
Fore
SplineSet
879 0 m 1,0,-1
 745 0 l 2,1,2
 699 0 699 0 681 21.5 c 128,-1,3
 663 43 663 43 663 76 c 2,4,-1
 671 219 l 1,5,6
 601 110 601 110 514 47.5 c 128,-1,7
 427 -15 427 -15 323 -15 c 0,8,9
 264 -15 264 -15 212 8.5 c 128,-1,10
 160 32 160 32 121.5 78.5 c 128,-1,11
 83 125 83 125 61 195 c 128,-1,12
 39 265 39 265 39 359 c 256,13,14
 39 453 39 453 62.5 542.5 c 128,-1,15
 86 632 86 632 129.5 710 c 128,-1,16
 173 788 173 788 234.5 854 c 128,-1,17
 296 920 296 920 372.5 967 c 128,-1,18
 449 1014 449 1014 537.5 1040 c 128,-1,19
 626 1066 626 1066 724 1066 c 0,20,21
 795 1066 795 1066 866 1056 c 128,-1,22
 937 1046 937 1046 1006 1019 c 1,23,-1
 879 0 l 1,0,-1
422 191 m 0,24,25
 464 191 464 191 504.5 220 c 128,-1,26
 545 249 545 249 580.5 299.5 c 128,-1,27
 616 350 616 350 647 418.5 c 128,-1,28
 678 487 678 487 700 566 c 1,29,-1
 740 884 l 1,30,31
 712 887 712 887 689 887 c 0,32,33
 604 887 604 887 531.5 848 c 128,-1,34
 459 809 459 809 405.5 743 c 128,-1,35
 352 677 352 677 322 589.5 c 128,-1,36
 292 502 292 502 292 404 c 0,37,38
 292 293 292 293 327 242 c 128,-1,39
 362 191 362 191 422 191 c 0,24,25
EndSplineSet
Validated: 1
EndChar

StartChar: b
Encoding: 98 98 69
Width: 1101
GlyphClass: 1
Flags: W
LayerCount: 2
Fore
SplineSet
61 0 m 1,0,-1
 247 1522 l 1,1,-1
 494 1522 l 1,2,-1
 411 843 l 1,3,4
 485 946 485 946 575.5 1006.5 c 128,-1,5
 666 1067 666 1067 768 1067 c 0,6,7
 834 1067 834 1067 887.5 1043 c 128,-1,8
 941 1019 941 1019 979 971 c 128,-1,9
 1017 923 1017 923 1037.5 849 c 128,-1,10
 1058 775 1058 775 1058 676 c 0,11,12
 1058 587 1058 587 1039.5 501 c 128,-1,13
 1021 415 1021 415 987 338 c 128,-1,14
 953 261 953 261 906.5 196.5 c 128,-1,15
 860 132 860 132 802.5 85 c 128,-1,16
 745 38 745 38 680 11.5 c 128,-1,17
 615 -15 615 -15 546 -15 c 0,18,19
 465 -15 465 -15 402 17 c 128,-1,20
 339 49 339 49 296 104 c 1,21,-1
 288 70 l 2,22,23
 280 33 280 33 260.5 16.5 c 128,-1,24
 241 0 241 0 199 0 c 2,25,-1
 61 0 l 1,0,-1
670 868 m 0,26,27
 628 868 628 868 585 839.5 c 128,-1,28
 542 811 542 811 501.5 761 c 128,-1,29
 461 711 461 711 426.5 642.5 c 128,-1,30
 392 574 392 574 368 497 c 1,31,-1
 337 246 l 1,32,33
 372 208 372 208 417 192.5 c 128,-1,34
 462 177 462 177 506 177 c 0,35,36
 574 177 574 177 629 219 c 128,-1,37
 684 261 684 261 723.5 328.5 c 128,-1,38
 763 396 763 396 784.5 480.5 c 128,-1,39
 806 565 806 565 806 650 c 0,40,41
 806 761 806 761 770.5 814.5 c 128,-1,42
 735 868 735 868 670 868 c 0,26,27
EndSplineSet
Validated: 1
EndChar

StartChar: c
Encoding: 99 99 70
Width: 891
GlyphClass: 1
Flags: W
LayerCount: 2
Fore
SplineSet
758 90 m 16,0,1
 708 50 708 50 662 28 c 0,2,3
 612 4 612 4 558 -5.5 c 128,-1,4
 504 -15 504 -15 439 -15 c 0,5,6
 348 -15 348 -15 276 16 c 128,-1,7
 204 47 204 47 153.5 104.5 c 128,-1,8
 103 162 103 162 77 243 c 128,-1,9
 51 324 51 324 51 423 c 0,10,11
 51 551 51 551 92 667 c 128,-1,12
 133 783 133 783 207 872 c 128,-1,13
 281 961 281 961 382 1013.5 c 128,-1,14
 483 1066 483 1066 603 1066 c 0,15,16
 707 1066 707 1066 780.5 1029 c 128,-1,17
 854 992 854 992 911 919 c 1,18,-1
 830 822 l 2,19,20
 821 813 821 813 809.5 805.5 c 128,-1,21
 798 798 798 798 783 798 c 0,22,23
 766 798 766 798 751.5 808.5 c 128,-1,24
 737 819 737 819 718 831.5 c 128,-1,25
 699 844 699 844 671 854.5 c 128,-1,26
 643 865 643 865 598 865 c 0,27,28
 540 865 540 865 486.5 833.5 c 128,-1,29
 433 802 433 802 392.5 743.5 c 128,-1,30
 352 685 352 685 328 603 c 128,-1,31
 304 521 304 521 304 422 c 0,32,33
 304 306 304 306 355.5 243 c 128,-1,34
 407 180 407 180 494 180 c 0,35,36
 552 180 552 180 590.5 197 c 128,-1,37
 629 214 629 214 655.5 234 c 128,-1,38
 682 254 682 254 703 271 c 128,-1,39
 724 288 724 288 749 288 c 0,40,41
 761 288 761 288 772.5 281 c 128,-1,42
 784 274 784 274 794 264 c 2,43,-1
 858 186 l 9,44,45
 854 167 854 167 758 90 c 16,0,1
EndSplineSet
Validated: 1
EndChar

StartChar: d
Encoding: 100 100 71
Width: 1103
GlyphClass: 1
Flags: W
LayerCount: 2
Fore
SplineSet
779 0 m 2,0,1
 733 0 733 0 714.5 21.5 c 128,-1,2
 696 43 696 43 696 76 c 2,3,-1
 705 229 l 1,4,5
 629 116 629 116 534.5 50.5 c 128,-1,6
 440 -15 440 -15 334 -15 c 0,7,8
 268 -15 268 -15 214.5 9 c 128,-1,9
 161 33 161 33 123 81 c 128,-1,10
 85 129 85 129 64.5 202.5 c 128,-1,11
 44 276 44 276 44 377 c 0,12,13
 44 466 44 466 62.5 551.5 c 128,-1,14
 81 637 81 637 114.5 714 c 128,-1,15
 148 791 148 791 195 855.5 c 128,-1,16
 242 920 242 920 299 967 c 128,-1,17
 356 1014 356 1014 421 1040.5 c 128,-1,18
 486 1067 486 1067 556 1067 c 0,19,20
 627 1067 627 1067 684 1041.5 c 128,-1,21
 741 1016 741 1016 784 972 c 1,22,-1
 853 1522 l 1,23,-1
 1101 1522 l 1,24,-1
 913 0 l 1,25,-1
 779 0 l 2,0,1
432 183 m 0,26,27
 473 183 473 183 516 211.5 c 128,-1,28
 559 240 559 240 599 289.5 c 128,-1,29
 639 339 639 339 673.5 406 c 128,-1,30
 708 473 708 473 732 551 c 1,31,-1
 764 806 l 1,32,33
 729 844 729 844 684 859 c 128,-1,34
 639 874 639 874 596 874 c 0,35,36
 528 874 528 874 473 832.5 c 128,-1,37
 418 791 418 791 378.5 723 c 128,-1,38
 339 655 339 655 317.5 570.5 c 128,-1,39
 296 486 296 486 296 401 c 0,40,41
 296 290 296 290 331.5 236.5 c 128,-1,42
 367 183 367 183 432 183 c 0,26,27
EndSplineSet
Validated: 1
EndChar

StartChar: e
Encoding: 101 101 72
Width: 968
GlyphClass: 1
Flags: W
LayerCount: 2
Fore
SplineSet
940 807 m 0,0,1
 940 736 940 736 912 678 c 128,-1,2
 884 620 884 620 811 573.5 c 128,-1,3
 738 527 738 527 613.5 494 c 128,-1,4
 489 461 489 461 297 441 c 1,5,-1
 297 428 l 2,6,7
 297 180 297 180 507 180 c 0,8,9
 552 180 552 180 587 189 c 128,-1,10
 622 198 622 198 648 210 c 128,-1,11
 674 222 674 222 695 237.5 c 128,-1,12
 716 253 716 253 734 265.5 c 128,-1,13
 752 278 752 278 769 286.5 c 128,-1,14
 786 295 786 295 807 295 c 0,15,16
 819 295 819 295 831.5 289.5 c 128,-1,17
 844 284 844 284 852 272 c 2,18,-1
 916 195 l 1,19,20
 862 141 862 141 810 100.5 c 128,-1,21
 758 60 758 60 703.5 34.5 c 128,-1,22
 649 9 649 9 588.5 -3 c 128,-1,23
 528 -15 528 -15 457 -15 c 0,24,25
 365 -15 365 -15 290 16 c 128,-1,26
 215 47 215 47 162 104 c 128,-1,27
 109 161 109 161 79.5 241.5 c 128,-1,28
 50 322 50 322 50 421 c 0,29,30
 50 504 50 504 68 584 c 128,-1,31
 86 664 86 664 120 735.5 c 128,-1,32
 154 807 154 807 203 867.5 c 128,-1,33
 252 928 252 928 314 972 c 128,-1,34
 376 1016 376 1016 450 1040.5 c 128,-1,35
 524 1065 524 1065 609 1065 c 0,36,37
 692 1065 692 1065 754 1041.5 c 128,-1,38
 816 1018 816 1018 857.5 980.5 c 128,-1,39
 899 943 899 943 919.5 897 c 128,-1,40
 940 851 940 851 940 807 c 0,0,1
595 889 m 0,41,42
 544 889 544 889 500 868 c 128,-1,43
 456 847 456 847 420.5 809 c 128,-1,44
 385 771 385 771 359 718.5 c 128,-1,45
 333 666 333 666 317 603 c 1,46,47
 444 620 444 620 521.5 641 c 128,-1,48
 599 662 599 662 641.5 686.5 c 128,-1,49
 684 711 684 711 698 738.5 c 128,-1,50
 712 766 712 766 712 798 c 0,51,52
 712 813 712 813 705 829.5 c 128,-1,53
 698 846 698 846 684.5 858.5 c 128,-1,54
 671 871 671 871 649 880 c 128,-1,55
 627 889 627 889 595 889 c 0,41,42
EndSplineSet
Validated: 1
EndChar

StartChar: f
Encoding: 102 102 73
Width: 651
GlyphClass: 1
Flags: W
LayerCount: 2
Fore
SplineSet
442 861 m 1,0,-1
 343 43 l 1,1,-1
 291 -150 l 2,2,3
 277 -200 277 -200 246.5 -226.5 c 128,-1,4
 216 -253 216 -253 161 -253 c 2,5,-1
 59 -253 l 1,6,-1
 194 861 l 1,7,-1
 113 876 l 2,8,9
 90 880 90 880 75.5 892.5 c 128,-1,10
 61 905 61 905 61 929 c 0,11,12
 61 930 61 930 61.5 933 c 128,-1,13
 62 936 62 936 63.5 946.5 c 128,-1,14
 65 957 65 957 67.5 979 c 128,-1,15
 70 1001 70 1001 75 1041 c 1,16,-1
 216 1041 l 1,17,-1
 225 1119 l 2,18,19
 236 1209 236 1209 272.5 1281 c 128,-1,20
 309 1353 309 1353 365 1403 c 128,-1,21
 421 1453 421 1453 493.5 1479.5 c 128,-1,22
 566 1506 566 1506 650 1506 c 0,23,24
 716 1506 716 1506 771 1487 c 1,25,-1
 749 1356 l 2,26,27
 747 1345 747 1345 739 1338 c 128,-1,28
 731 1331 731 1331 720 1328 c 128,-1,29
 709 1325 709 1325 695 1324 c 128,-1,30
 681 1323 681 1323 667 1323 c 0,31,32
 626 1323 626 1323 591.5 1311.5 c 128,-1,33
 557 1300 557 1300 531 1275 c 128,-1,34
 505 1250 505 1250 488 1209.5 c 128,-1,35
 471 1169 471 1169 464 1111 c 2,36,-1
 456 1041 l 1,37,-1
 691 1041 l 1,38,-1
 668 861 l 1,39,-1
 442 861 l 1,0,-1
EndSplineSet
Validated: 1
EndChar

StartChar: g
Encoding: 103 103 74
Width: 993
GlyphClass: 1
Flags: W
LayerCount: 2
Fore
SplineSet
881 746 m 0,0,1
 881 699 881 699 870.5 662 c 128,-1,2
 860 625 860 625 845 593 c 128,-1,3
 830 561 830 561 813 533 c 128,-1,4
 796 505 796 505 780.5 475.5 c 128,-1,5
 765 446 765 446 755 414 c 128,-1,6
 745 382 745 382 745 343 c 0,7,8
 745 301 745 301 762.5 265.5 c 128,-1,9
 780 230 780 230 800.5 193.5 c 128,-1,10
 821 157 821 157 838.5 115 c 128,-1,11
 856 73 856 73 856 17 c 0,12,13
 856 -61 856 -61 821 -131 c 128,-1,14
 786 -201 786 -201 720.5 -253.5 c 128,-1,15
 655 -306 655 -306 561 -337 c 128,-1,16
 467 -368 467 -368 348 -368 c 0,17,18
 251 -368 251 -368 173.5 -348 c 128,-1,19
 96 -328 96 -328 41.5 -292 c 128,-1,20
 -13 -256 -13 -256 -42.5 -207.5 c 128,-1,21
 -72 -159 -72 -159 -72 -100 c 0,22,23
 -72 -13 -72 -13 -28 46 c 128,-1,24
 16 105 16 105 86 141.5 c 128,-1,25
 156 178 156 178 242.5 194 c 128,-1,26
 329 210 329 210 415 210 c 0,27,28
 457 210 457 210 497 206.5 c 128,-1,29
 537 203 537 203 572 197 c 1,30,31
 568 213 568 213 565.5 229.5 c 128,-1,32
 563 246 563 246 563 264 c 0,33,34
 563 323 563 323 596 395 c 1,35,36
 557 368 557 368 508 354 c 128,-1,37
 459 340 459 340 389 340 c 0,38,39
 330 340 330 340 276 359.5 c 128,-1,40
 222 379 222 379 181 419 c 128,-1,41
 140 459 140 459 116 519 c 128,-1,42
 92 579 92 579 92 658 c 0,43,44
 92 735 92 735 121 808.5 c 128,-1,45
 150 882 150 882 206 939.5 c 128,-1,46
 262 997 262 997 345 1032 c 128,-1,47
 428 1067 428 1067 538 1067 c 0,48,49
 596 1067 596 1067 648.5 1053 c 128,-1,50
 701 1039 701 1039 745 1013 c 1,51,-1
 1039 1013 l 1,52,-1
 1028 931 l 2,53,54
 1024 906 1024 906 1012 888.5 c 128,-1,55
 1000 871 1000 871 978 865 c 2,56,-1
 870 837 l 1,57,58
 875 817 875 817 878 794 c 128,-1,59
 881 771 881 771 881 746 c 0,0,1
461 493 m 0,60,61
 507 493 507 493 542 514.5 c 128,-1,62
 577 536 577 536 601 570.5 c 128,-1,63
 625 605 625 605 637 648.5 c 128,-1,64
 649 692 649 692 649 737 c 0,65,66
 649 814 649 814 613.5 855 c 128,-1,67
 578 896 578 896 509 896 c 0,68,69
 463 896 463 896 428 876 c 128,-1,70
 393 856 393 856 369.5 823 c 128,-1,71
 346 790 346 790 334.5 746.5 c 128,-1,72
 323 703 323 703 323 657 c 0,73,74
 323 578 323 578 358 535.5 c 128,-1,75
 393 493 393 493 461 493 c 0,60,61
626 -4 m 0,76,77
 626 10 626 10 624.5 24 c 128,-1,78
 623 38 623 38 621 50 c 1,79,80
 566 59 566 59 519 63.5 c 128,-1,81
 472 68 472 68 431 68 c 0,82,83
 361 68 361 68 311.5 56.5 c 128,-1,84
 262 45 262 45 230 26.5 c 128,-1,85
 198 8 198 8 183 -16.5 c 128,-1,86
 168 -41 168 -41 168 -69 c 0,87,88
 168 -130 168 -130 217 -162 c 128,-1,89
 266 -194 266 -194 369 -194 c 0,90,91
 426 -194 426 -194 473 -179.5 c 128,-1,92
 520 -165 520 -165 554 -139.5 c 128,-1,93
 588 -114 588 -114 607 -79 c 128,-1,94
 626 -44 626 -44 626 -4 c 0,76,77
EndSplineSet
Validated: 1
EndChar

StartChar: h
Encoding: 104 104 75
Width: 1111
GlyphClass: 1
Flags: W
LayerCount: 2
Fore
SplineSet
61 0 m 1,0,-1
 247 1522 l 1,1,-1
 499 1522 l 1,2,-1
 420 871 l 1,3,4
 497 970 497 970 586.5 1018.5 c 128,-1,5
 676 1067 676 1067 769 1067 c 0,6,7
 828 1067 828 1067 876.5 1046 c 128,-1,8
 925 1025 925 1025 958.5 984.5 c 128,-1,9
 992 944 992 944 1010.5 885 c 128,-1,10
 1029 826 1029 826 1029 750 c 0,11,12
 1029 731 1029 731 1027.5 710.5 c 128,-1,13
 1026 690 1026 690 1024 669 c 2,14,-1
 945 0 l 1,15,-1
 692 0 l 1,16,-1
 771 669 l 2,17,18
 773 687 773 687 774.5 703.5 c 128,-1,19
 776 720 776 720 776 734 c 0,20,21
 776 802 776 802 750.5 831.5 c 128,-1,22
 725 861 725 861 673 861 c 0,23,24
 634 861 634 861 592 839 c 128,-1,25
 550 817 550 817 511 776.5 c 128,-1,26
 472 736 472 736 438 679 c 128,-1,27
 404 622 404 622 381 551 c 1,28,-1
 314 0 l 1,29,-1
 61 0 l 1,0,-1
EndSplineSet
Validated: 1
EndChar

StartChar: i
Encoding: 105 105 76
Width: 527
GlyphClass: 1
Flags: W
LayerCount: 2
Fore
SplineSet
452 1051 m 1,0,-1
 326 0 l 1,1,-1
 76 0 l 1,2,-1
 202 1051 l 1,3,-1
 452 1051 l 1,0,-1
515 1357 m 0,4,5
 515 1324 515 1324 501 1295.5 c 128,-1,6
 487 1267 487 1267 465 1245.5 c 128,-1,7
 443 1224 443 1224 414.5 1211 c 128,-1,8
 386 1198 386 1198 355 1198 c 0,9,10
 325 1198 325 1198 297 1211 c 128,-1,11
 269 1224 269 1224 247.5 1245.5 c 128,-1,12
 226 1267 226 1267 213.5 1295.5 c 128,-1,13
 201 1324 201 1324 201 1357 c 256,14,15
 201 1390 201 1390 214 1419.5 c 128,-1,16
 227 1449 227 1449 248.5 1471 c 128,-1,17
 270 1493 270 1493 298.5 1506 c 128,-1,18
 327 1519 327 1519 356 1519 c 0,19,20
 387 1519 387 1519 415.5 1506 c 128,-1,21
 444 1493 444 1493 466 1471.5 c 128,-1,22
 488 1450 488 1450 501.5 1420.5 c 128,-1,23
 515 1391 515 1391 515 1357 c 0,4,5
EndSplineSet
Validated: 1
EndChar

StartChar: j
Encoding: 106 106 77
Width: 518
GlyphClass: 1
Flags: W
LayerCount: 2
Fore
SplineSet
452 1051 m 1,0,-1
 318 -36 l 2,1,2
 310 -105 310 -105 284 -165 c 128,-1,3
 258 -225 258 -225 214.5 -270.5 c 128,-1,4
 171 -316 171 -316 109 -342.5 c 128,-1,5
 47 -369 47 -369 -34 -369 c 0,6,7
 -74 -369 -74 -369 -103 -364 c 128,-1,8
 -132 -359 -132 -359 -161 -349 c 1,9,-1
 -136 -213 l 2,10,11
 -130 -193 -130 -193 -116.5 -187 c 128,-1,12
 -103 -181 -103 -181 -69 -181 c 256,13,14
 -34 -181 -34 -181 -10 -173.5 c 128,-1,15
 14 -166 14 -166 30.5 -149 c 128,-1,16
 47 -132 47 -132 56.5 -104.5 c 128,-1,17
 66 -77 66 -77 71 -36 c 2,18,-1
 204 1051 l 1,19,-1
 452 1051 l 1,0,-1
507 1357 m 0,20,21
 507 1324 507 1324 493 1295.5 c 128,-1,22
 479 1267 479 1267 457 1245.5 c 128,-1,23
 435 1224 435 1224 406.5 1211 c 128,-1,24
 378 1198 378 1198 347 1198 c 0,25,26
 317 1198 317 1198 289 1211 c 128,-1,27
 261 1224 261 1224 239.5 1245.5 c 128,-1,28
 218 1267 218 1267 205.5 1295.5 c 128,-1,29
 193 1324 193 1324 193 1357 c 256,30,31
 193 1390 193 1390 206 1419.5 c 128,-1,32
 219 1449 219 1449 240.5 1471 c 128,-1,33
 262 1493 262 1493 290 1506 c 128,-1,34
 318 1519 318 1519 348 1519 c 0,35,36
 379 1519 379 1519 407.5 1506 c 128,-1,37
 436 1493 436 1493 458 1471.5 c 128,-1,38
 480 1450 480 1450 493.5 1420.5 c 128,-1,39
 507 1391 507 1391 507 1357 c 0,20,21
EndSplineSet
Validated: 1
EndChar

StartChar: k
Encoding: 107 107 78
Width: 1043
GlyphClass: 1
Flags: W
LayerCount: 2
Fore
SplineSet
500 1522 m 1,0,-1
 393 650 l 1,1,-1
 419 650 l 2,2,3
 443 650 443 650 457.5 657.5 c 128,-1,4
 472 665 472 665 488 684 c 2,5,-1
 767 1007 l 2,6,7
 785 1027 785 1027 804.5 1039 c 128,-1,8
 824 1051 824 1051 854 1051 c 2,9,-1
 1079 1051 l 1,10,-1
 733 660 l 2,11,12
 714 638 714 638 694.5 620.5 c 128,-1,13
 675 603 675 603 653 590 c 1,14,15
 672 576 672 576 685 555 c 128,-1,16
 698 534 698 534 711 510 c 2,17,-1
 971 0 l 1,18,-1
 752 0 l 2,19,20
 724 0 724 0 706 10 c 128,-1,21
 688 20 688 20 676 45 c 2,22,-1
 472 443 l 2,23,24
 460 467 460 467 447 474 c 128,-1,25
 434 481 434 481 406 481 c 2,26,-1
 372 481 l 1,27,-1
 313 0 l 1,28,-1
 63 0 l 1,29,-1
 250 1522 l 1,30,-1
 500 1522 l 1,0,-1
EndSplineSet
Validated: 1
EndChar

StartChar: l
Encoding: 108 108 79
Width: 510
GlyphClass: 1
Flags: W
LayerCount: 2
Fore
SplineSet
67 0 m 1,0,-1
 251 1522 l 1,1,-1
 500 1522 l 1,2,-1
 315 0 l 1,3,-1
 67 0 l 1,0,-1
EndSplineSet
Validated: 1
EndChar

StartChar: m
Encoding: 109 109 80
Width: 1618
GlyphClass: 1
Flags: W
LayerCount: 2
Fore
SplineSet
53 0 m 1,0,-1
 181 1052 l 1,1,-1
 309 1052 l 2,2,3
 348 1052 348 1052 370.5 1033.5 c 128,-1,4
 393 1015 393 1015 393 975 c 0,5,6
 393 974 393 974 393 972 c 128,-1,7
 393 970 393 970 392.5 958 c 128,-1,8
 392 946 392 946 391 922 c 128,-1,9
 390 898 390 898 388 854 c 1,10,11
 459 962 459 962 542 1014.5 c 128,-1,12
 625 1067 625 1067 715 1067 c 0,13,14
 812 1067 812 1067 868 1002.5 c 128,-1,15
 924 938 924 938 933 816 c 1,16,17
 1007 945 1007 945 1096.5 1006 c 128,-1,18
 1186 1067 1186 1067 1291 1067 c 0,19,20
 1409 1067 1409 1067 1473 987.5 c 128,-1,21
 1537 908 1537 908 1537 759 c 0,22,23
 1537 739 1537 739 1536 715.5 c 128,-1,24
 1535 692 1535 692 1532 669 c 2,25,-1
 1453 0 l 1,26,-1
 1203 0 l 1,27,28
 1223 174 1223 174 1237.5 295.5 c 128,-1,29
 1252 417 1252 417 1261.5 498.5 c 128,-1,30
 1271 580 1271 580 1276 626 c 128,-1,31
 1281 672 1281 672 1283.5 697 c 128,-1,32
 1286 722 1286 722 1286.5 730.5 c 128,-1,33
 1287 739 1287 739 1287 744 c 0,34,35
 1287 805 1287 805 1266.5 832.5 c 128,-1,36
 1246 860 1246 860 1200 860 c 0,37,38
 1161 860 1161 860 1124 839.5 c 128,-1,39
 1087 819 1087 819 1054 780 c 128,-1,40
 1021 741 1021 741 993 685 c 128,-1,41
 965 629 965 629 943 558 c 1,42,-1
 878 0 l 1,43,-1
 629 0 l 1,44,-1
 708 669 l 2,45,46
 710 691 710 691 711.5 709.5 c 128,-1,47
 713 728 713 728 713 744 c 0,48,49
 713 805 713 805 693 832.5 c 128,-1,50
 673 860 673 860 627 860 c 0,51,52
 587 860 587 860 549 838.5 c 128,-1,53
 511 817 511 817 477.5 776.5 c 128,-1,54
 444 736 444 736 416 678.5 c 128,-1,55
 388 621 388 621 367 549 c 1,56,-1
 301 0 l 1,57,-1
 53 0 l 1,0,-1
EndSplineSet
Validated: 1
EndChar

StartChar: n
Encoding: 110 110 81
Width: 1102
GlyphClass: 1
Flags: W
LayerCount: 2
Fore
SplineSet
53 0 m 1,0,-1
 179 1052 l 1,1,-1
 308 1052 l 2,2,3
 348 1052 348 1052 370 1032.5 c 128,-1,4
 392 1013 392 1013 392 970 c 2,5,-1
 385 834 l 1,6,7
 465 952 465 952 562 1009.5 c 128,-1,8
 659 1067 659 1067 763 1067 c 0,9,10
 821 1067 821 1067 868.5 1046 c 128,-1,11
 916 1025 916 1025 950 984.5 c 128,-1,12
 984 944 984 944 1002.5 885 c 128,-1,13
 1021 826 1021 826 1021 750 c 0,14,15
 1021 731 1021 731 1019.5 710.5 c 128,-1,16
 1018 690 1018 690 1016 669 c 2,17,-1
 937 0 l 1,18,-1
 684 0 l 1,19,20
 704 173 704 173 718.5 293.5 c 128,-1,21
 733 414 733 414 742.5 493.5 c 128,-1,22
 752 573 752 573 757 619 c 128,-1,23
 762 665 762 665 764.5 688.5 c 128,-1,24
 767 712 767 712 767.5 719.5 c 128,-1,25
 768 727 768 727 768 732 c 0,26,27
 768 800 768 800 743.5 830 c 128,-1,28
 719 860 719 860 667 860 c 0,29,30
 625 860 625 860 580 835.5 c 128,-1,31
 535 811 535 811 494 766 c 128,-1,32
 453 721 453 721 419 657.5 c 128,-1,33
 385 594 385 594 364 516 c 1,34,-1
 306 0 l 1,35,-1
 53 0 l 1,0,-1
EndSplineSet
Validated: 1
EndChar

StartChar: o
Encoding: 111 111 82
Width: 1044
GlyphClass: 1
Flags: W
LayerCount: 2
Fore
SplineSet
471 179 m 0,0,1
 534 179 534 179 585.5 215.5 c 128,-1,2
 637 252 637 252 673.5 313 c 128,-1,3
 710 374 710 374 729.5 455 c 128,-1,4
 749 536 749 536 749 625 c 0,5,6
 749 753 749 753 705.5 813 c 128,-1,7
 662 873 662 873 573 873 c 0,8,9
 510 873 510 873 459 837.5 c 128,-1,10
 408 802 408 802 372 740.5 c 128,-1,11
 336 679 336 679 316.5 598 c 128,-1,12
 297 517 297 517 297 427 c 0,13,14
 297 299 297 299 340 239 c 128,-1,15
 383 179 383 179 471 179 c 0,0,1
449 -15 m 0,16,17
 362 -15 362 -15 287.5 14 c 128,-1,18
 213 43 213 43 159 99.5 c 128,-1,19
 105 156 105 156 74.5 237.5 c 128,-1,20
 44 319 44 319 44 425 c 0,21,22
 44 561 44 561 87.5 679 c 128,-1,23
 131 797 131 797 206.5 883 c 128,-1,24
 282 969 282 969 382 1018 c 128,-1,25
 482 1067 482 1067 596 1067 c 0,26,27
 683 1067 683 1067 757 1038 c 128,-1,28
 831 1009 831 1009 885.5 952.5 c 128,-1,29
 940 896 940 896 970.5 814 c 128,-1,30
 1001 732 1001 732 1001 627 c 0,31,32
 1001 492 1001 492 957 374.5 c 128,-1,33
 913 257 913 257 838 170.5 c 128,-1,34
 763 84 763 84 663 34.5 c 128,-1,35
 563 -15 563 -15 449 -15 c 0,16,17
EndSplineSet
Validated: 1
EndChar

StartChar: p
Encoding: 112 112 83
Width: 1085
GlyphClass: 1
Flags: W
LayerCount: 2
Fore
SplineSet
11 -343 m 1,0,-1
 181 1052 l 1,1,-1
 309 1052 l 2,2,3
 344 1052 344 1052 368.5 1037 c 128,-1,4
 393 1022 393 1022 393 988 c 2,5,6
 393 988 393 988 393 985 c 128,-1,7
 393 982 393 982 392 966 c 128,-1,8
 391 950 391 950 390 916 c 128,-1,9
 389 882 389 882 386 819 c 1,10,11
 462 933 462 933 557.5 1000 c 128,-1,12
 653 1067 653 1067 760 1067 c 0,13,14
 826 1067 826 1067 879.5 1043 c 128,-1,15
 933 1019 933 1019 971 971 c 128,-1,16
 1009 923 1009 923 1029.5 849 c 128,-1,17
 1050 775 1050 775 1050 676 c 0,18,19
 1050 587 1050 587 1031.5 501 c 128,-1,20
 1013 415 1013 415 979 338 c 128,-1,21
 945 261 945 261 898.5 196.5 c 128,-1,22
 852 132 852 132 794.5 85 c 128,-1,23
 737 38 737 38 672 11.5 c 128,-1,24
 607 -15 607 -15 538 -15 c 0,25,26
 467 -15 467 -15 409 10 c 128,-1,27
 351 35 351 35 309 80 c 1,28,-1
 257 -343 l 1,29,-1
 11 -343 l 1,0,-1
662 868 m 0,30,31
 620 868 620 868 577 840 c 128,-1,32
 534 812 534 812 494 762.5 c 128,-1,33
 454 713 454 713 419.5 645.5 c 128,-1,34
 385 578 385 578 360 500 c 1,35,-1
 330 245 l 1,36,37
 365 208 365 208 409.5 192.5 c 128,-1,38
 454 177 454 177 498 177 c 0,39,40
 566 177 566 177 621 219 c 128,-1,41
 676 261 676 261 715.5 328.5 c 128,-1,42
 755 396 755 396 776.5 480.5 c 128,-1,43
 798 565 798 565 798 650 c 0,44,45
 798 761 798 761 762.5 814.5 c 128,-1,46
 727 868 727 868 662 868 c 0,30,31
EndSplineSet
Validated: 1
EndChar

StartChar: q
Encoding: 113 113 84
Width: 1059
GlyphClass: 1
Flags: W
LayerCount: 2
Fore
SplineSet
836 -343 m 1,0,-1
 672 -343 l 2,1,2
 650 -343 650 -343 635.5 -336 c 128,-1,3
 621 -329 621 -329 612 -317.5 c 128,-1,4
 603 -306 603 -306 599 -292 c 128,-1,5
 595 -278 595 -278 595 -263 c 0,6,7
 595 -262 595 -262 595.5 -258.5 c 128,-1,8
 596 -255 596 -255 597.5 -241.5 c 128,-1,9
 599 -228 599 -228 602 -200.5 c 128,-1,10
 605 -173 605 -173 611 -123.5 c 128,-1,11
 617 -74 617 -74 627 2.5 c 128,-1,12
 637 79 637 79 651 190 c 1,13,14
 583 94 583 94 501.5 39.5 c 128,-1,15
 420 -15 420 -15 323 -15 c 0,16,17
 264 -15 264 -15 212 8.5 c 128,-1,18
 160 32 160 32 121.5 78.5 c 128,-1,19
 83 125 83 125 61 195 c 128,-1,20
 39 265 39 265 39 359 c 256,21,22
 39 453 39 453 62.5 542.5 c 128,-1,23
 86 632 86 632 129.5 710 c 128,-1,24
 173 788 173 788 234.5 854 c 128,-1,25
 296 920 296 920 372.5 967 c 128,-1,26
 449 1014 449 1014 537.5 1040 c 128,-1,27
 626 1066 626 1066 724 1066 c 0,28,29
 795 1066 795 1066 866 1056 c 128,-1,30
 937 1046 937 1046 1006 1019 c 1,31,-1
 836 -343 l 1,0,-1
422 191 m 0,32,33
 463 191 463 191 503.5 219.5 c 128,-1,34
 544 248 544 248 579.5 297.5 c 128,-1,35
 615 347 615 347 645.5 414.5 c 128,-1,36
 676 482 676 482 698 560 c 1,37,-1
 740 885 l 1,38,39
 726 886 726 886 713.5 886.5 c 128,-1,40
 701 887 701 887 689 887 c 0,41,42
 604 887 604 887 531.5 848 c 128,-1,43
 459 809 459 809 405.5 743 c 128,-1,44
 352 677 352 677 322 589.5 c 128,-1,45
 292 502 292 502 292 404 c 0,46,47
 292 293 292 293 327 242 c 128,-1,48
 362 191 362 191 422 191 c 0,32,33
EndSplineSet
Validated: 1
EndChar

StartChar: r
Encoding: 114 114 85
Width: 744
GlyphClass: 1
Flags: W
LayerCount: 2
Fore
SplineSet
53 0 m 1,0,-1
 181 1052 l 1,1,-1
 309 1052 l 2,2,3
 346 1052 346 1052 369.5 1035.5 c 128,-1,4
 393 1019 393 1019 393 983 c 2,5,6
 393 983 393 983 393 979.5 c 128,-1,7
 393 976 393 976 392 958.5 c 128,-1,8
 391 941 391 941 390 903.5 c 128,-1,9
 389 866 389 866 386 799 c 1,10,11
 451 923 451 923 527.5 990.5 c 128,-1,12
 604 1058 604 1058 687 1058 c 0,13,14
 729 1058 729 1058 772 1039 c 1,15,-1
 726 798 l 1,16,17
 677 819 677 819 633 819 c 0,18,19
 631 819 631 819 629 819 c 0,20,21
 538 819 538 819 469 732 c 128,-1,22
 400 645 400 645 356 460 c 1,23,-1
 301 0 l 1,24,-1
 53 0 l 1,0,-1
EndSplineSet
Validated: 1
EndChar

StartChar: s
Encoding: 115 115 86
Width: 803
GlyphClass: 1
Flags: W
LayerCount: 2
Fore
SplineSet
751 853 m 2,0,1
 740 837 740 837 729.5 830 c 128,-1,2
 719 823 719 823 702 823 c 256,3,4
 685 823 685 823 666.5 833.5 c 128,-1,5
 648 844 648 844 624 856.5 c 128,-1,6
 600 869 600 869 569 879.5 c 128,-1,7
 538 890 538 890 494 890 c 0,8,9
 413 890 413 890 370 853.5 c 128,-1,10
 327 817 327 817 327 763 c 0,11,12
 327 731 327 731 344.5 709 c 128,-1,13
 362 687 362 687 391 670.5 c 128,-1,14
 420 654 420 654 457 640.5 c 128,-1,15
 494 627 494 627 532.5 611 c 128,-1,16
 571 595 571 595 608 575 c 128,-1,17
 645 555 645 555 673.5 526.5 c 128,-1,18
 702 498 702 498 720 457.5 c 128,-1,19
 738 417 738 417 738 360 c 0,20,21
 738 284 738 284 708 215.5 c 128,-1,22
 678 147 678 147 621.5 95.5 c 128,-1,23
 565 44 565 44 485.5 14 c 128,-1,24
 406 -16 406 -16 307 -16 c 0,25,26
 257 -16 257 -16 210.5 -6.5 c 128,-1,27
 164 3 164 3 123 20.5 c 128,-1,28
 82 38 82 38 48.5 61.5 c 128,-1,29
 15 85 15 85 -8 113 c 1,30,-1
 53 209 l 2,31,32
 64 226 64 226 80 235.5 c 128,-1,33
 96 245 96 245 118 245 c 256,34,35
 140 245 140 245 157 231.5 c 128,-1,36
 174 218 174 218 197.5 202 c 128,-1,37
 221 186 221 186 254.5 173 c 128,-1,38
 288 160 288 160 340 160 c 0,39,40
 382 160 382 160 414 171 c 128,-1,41
 446 182 446 182 468 201.5 c 128,-1,42
 490 221 490 221 501.5 246.5 c 128,-1,43
 513 272 513 272 513 301 c 0,44,45
 513 336 513 336 495.5 359 c 128,-1,46
 478 382 478 382 449 399 c 128,-1,47
 420 416 420 416 383 428.5 c 128,-1,48
 346 441 346 441 307.5 455.5 c 128,-1,49
 269 470 269 470 233 488.5 c 128,-1,50
 197 507 197 507 167.5 535 c 128,-1,51
 138 563 138 563 120.5 603.5 c 128,-1,52
 103 644 103 644 103 702 c 0,53,54
 103 772 103 772 130 838 c 128,-1,55
 157 904 157 904 208.5 955 c 128,-1,56
 260 1006 260 1006 335.5 1036.5 c 128,-1,57
 411 1067 411 1067 508 1067 c 0,58,59
 608 1067 608 1067 685.5 1032.5 c 128,-1,60
 763 998 763 998 816 945 c 1,61,-1
 751 853 l 2,0,1
EndSplineSet
Validated: 1
EndChar

StartChar: t
Encoding: 116 116 87
Width: 726
GlyphClass: 1
Flags: W
LayerCount: 2
Fore
SplineSet
151 214 m 0,0,1
 151 221 151 221 151 231 c 128,-1,2
 151 241 151 241 152.5 260 c 128,-1,3
 154 279 154 279 157.5 310 c 128,-1,4
 161 341 161 341 167 390 c 2,5,-1
 225 861 l 1,6,-1
 126 861 l 2,7,8
 109 861 109 861 98 872 c 128,-1,9
 87 883 87 883 87 904 c 0,10,11
 87 905 87 905 87.5 908 c 128,-1,12
 88 911 88 911 89 922 c 128,-1,13
 90 933 90 933 92.5 954.5 c 128,-1,14
 95 976 95 976 99 1015 c 1,15,-1
 259 1042 l 1,16,-1
 343 1329 l 2,17,18
 349 1349 349 1349 364 1360.5 c 128,-1,19
 379 1372 379 1372 400 1372 c 2,20,-1
 536 1372 l 1,21,-1
 495 1041 l 1,22,-1
 749 1041 l 1,23,-1
 727 861 l 1,24,-1
 472 861 l 1,25,-1
 416 403 l 2,26,27
 411 361 411 361 408.5 336.5 c 128,-1,28
 406 312 406 312 404 298.5 c 128,-1,29
 402 285 402 285 401.5 279 c 128,-1,30
 401 273 401 273 401 271 c 0,31,32
 401 232 401 232 420 209.5 c 128,-1,33
 439 187 439 187 474 187 c 0,34,35
 496 187 496 187 511 193 c 128,-1,36
 526 199 526 199 537.5 205 c 128,-1,37
 549 211 549 211 557.5 216.5 c 128,-1,38
 566 222 566 222 574 222 c 0,39,40
 585 222 585 222 592 216.5 c 128,-1,41
 599 211 599 211 604 200 c 2,42,-1
 658 77 l 1,43,44
 602 31 602 31 533.5 7.5 c 128,-1,45
 465 -16 465 -16 395 -16 c 0,46,47
 283 -16 283 -16 218.5 44 c 128,-1,48
 154 104 154 104 151 214 c 0,0,1
EndSplineSet
Validated: 1
EndChar

StartChar: u
Encoding: 117 117 88
Width: 1100
GlyphClass: 1
Flags: W
LayerCount: 2
Fore
SplineSet
419 1051 m 1,0,1
 399 878 399 878 384.5 758 c 128,-1,2
 370 638 370 638 360.5 558 c 128,-1,3
 351 478 351 478 346 432 c 128,-1,4
 341 386 341 386 338.5 362.5 c 128,-1,5
 336 339 336 339 335.5 331 c 128,-1,6
 335 323 335 323 335 317 c 0,7,8
 335 249 335 249 360 220 c 128,-1,9
 385 191 385 191 436 191 c 0,10,11
 476 191 476 191 518.5 213.5 c 128,-1,12
 561 236 561 236 600.5 276.5 c 128,-1,13
 640 317 640 317 674 375.5 c 128,-1,14
 708 434 708 434 731 506 c 1,15,-1
 797 1051 l 1,16,-1
 1050 1051 l 1,17,-1
 923 0 l 1,18,-1
 795 0 l 2,19,20
 778 0 778 0 761.5 4.5 c 128,-1,21
 745 9 745 9 732.5 18.5 c 128,-1,22
 720 28 720 28 712.5 42 c 128,-1,23
 705 56 705 56 705 76 c 2,24,-1
 705 80 l 1,25,-1
 711 208 l 1,26,27
 631 95 631 95 536 40 c 128,-1,28
 441 -15 441 -15 340 -15 c 0,29,30
 282 -15 282 -15 234 6 c 128,-1,31
 186 27 186 27 152.5 66.5 c 128,-1,32
 119 106 119 106 100.5 165 c 128,-1,33
 82 224 82 224 82 300 c 0,34,35
 82 320 82 320 83 340.5 c 128,-1,36
 84 361 84 361 87 384 c 2,37,-1
 166 1051 l 1,38,-1
 419 1051 l 1,0,1
EndSplineSet
Validated: 1
EndChar

StartChar: v
Encoding: 118 118 89
Width: 1017
GlyphClass: 1
Flags: W
LayerCount: 2
Fore
SplineSet
71 1051 m 1,0,-1
 278 1051 l 2,1,2
 305 1051 305 1051 320.5 1037.5 c 128,-1,3
 336 1024 336 1024 340 1004 c 2,4,-1
 451 442 l 2,5,6
 461 392 461 392 465 342.5 c 128,-1,7
 469 293 469 293 472 244 c 1,8,9
 486 293 486 293 503 341.5 c 128,-1,10
 520 390 520 390 544 442 c 2,11,-1
 795 1004 l 2,12,13
 804 1024 804 1024 823 1037.5 c 128,-1,14
 842 1051 842 1051 864 1051 c 2,15,-1
 1064 1051 l 1,16,-1
 546 0 l 1,17,-1
 333 0 l 1,18,-1
 71 1051 l 1,0,-1
EndSplineSet
Validated: 1
EndChar

StartChar: w
Encoding: 119 119 90
Width: 1502
GlyphClass: 1
Flags: W
LayerCount: 2
Fore
SplineSet
79 1051 m 1,0,-1
 270 1051 l 2,1,2
 297 1051 297 1051 314.5 1037.5 c 128,-1,3
 332 1024 332 1024 334 1004 c 2,4,-1
 395 442 l 2,5,6
 400 396 400 396 400.5 353 c 128,-1,7
 401 310 401 310 403 267 c 1,8,9
 418 310 418 310 435.5 353 c 128,-1,10
 453 396 453 396 471 442 c 2,11,-1
 699 1006 l 2,12,13
 707 1026 707 1026 725.5 1039.5 c 128,-1,14
 744 1053 744 1053 767 1053 c 2,15,-1
 876 1053 l 2,16,17
 903 1053 903 1053 918 1039.5 c 128,-1,18
 933 1026 933 1026 936 1006 c 2,19,-1
 1024 442 l 2,20,21
 1031 396 1031 396 1036 353 c 128,-1,22
 1041 310 1041 310 1046 267 c 1,23,24
 1057 310 1057 310 1069.5 353 c 128,-1,25
 1082 396 1082 396 1100 442 c 2,26,-1
 1304 1004 l 2,27,28
 1311 1024 1311 1024 1329.5 1037.5 c 128,-1,29
 1348 1051 1348 1051 1371 1051 c 2,30,-1
 1555 1051 l 1,31,-1
 1122 0 l 1,32,-1
 927 0 l 2,33,34
 895 0 895 0 888 45 c 2,35,-1
 787 652 l 2,36,37
 781 693 781 693 778 731 c 1,38,39
 771 711 771 711 764 691 c 128,-1,40
 757 671 757 671 749 650 c 2,41,-1
 499 45 l 2,42,43
 481 0 481 0 444 0 c 2,44,-1
 257 0 l 1,45,-1
 79 1051 l 1,0,-1
EndSplineSet
Validated: 1
EndChar

StartChar: x
Encoding: 120 120 91
Width: 1030
GlyphClass: 1
Flags: W
LayerCount: 2
Fore
SplineSet
361 568 m 1,0,-1
 118 1051 l 1,1,-1
 347 1051 l 2,2,3
 373 1051 373 1051 384 1043.5 c 128,-1,4
 395 1036 395 1036 403 1019 c 2,5,-1
 548 706 l 1,6,7
 554 718 554 718 561 730.5 c 128,-1,8
 568 743 568 743 578 757 c 2,9,-1
 762 1015 l 2,10,11
 774 1032 774 1032 787.5 1041.5 c 128,-1,12
 801 1051 801 1051 818 1051 c 2,13,-1
 1048 1051 l 1,14,-1
 678 567 l 1,15,-1
 948 0 l 1,16,-1
 718 0 l 2,17,18
 692 0 692 0 677.5 14 c 128,-1,19
 663 28 663 28 654 46 c 2,20,-1
 494 415 l 1,21,22
 489 404 489 404 482.5 392.5 c 128,-1,23
 476 381 476 381 470 372 c 2,24,-1
 237 46 l 2,25,26
 224 29 224 29 207 14.5 c 128,-1,27
 190 0 190 0 167 0 c 2,28,-1
 -55 0 l 1,29,-1
 361 568 l 1,0,-1
EndSplineSet
Validated: 1
EndChar

StartChar: y
Encoding: 121 121 92
Width: 1017
GlyphClass: 1
Flags: W
LayerCount: 2
Fore
SplineSet
380 -291 m 2,0,1
 353 -343 353 -343 298 -343 c 2,2,-1
 111 -343 l 1,3,-1
 344 80 l 1,4,-1
 79 1051 l 1,5,-1
 291 1051 l 2,6,7
 319 1051 319 1051 332.5 1037 c 128,-1,8
 346 1023 346 1023 351 1004 c 2,9,-1
 480 459 l 2,10,11
 486 432 486 432 490 406.5 c 128,-1,12
 494 381 494 381 496 354 c 1,13,14
 507 381 507 381 518.5 407 c 128,-1,15
 530 433 530 433 543 460 c 2,16,-1
 802 1005 l 2,17,18
 812 1025 812 1025 831.5 1038 c 128,-1,19
 851 1051 851 1051 871 1051 c 2,20,-1
 1074 1051 l 1,21,-1
 380 -291 l 2,0,1
EndSplineSet
Validated: 1
EndChar

StartChar: z
Encoding: 122 122 93
Width: 897
GlyphClass: 1
Flags: W
LayerCount: 2
Fore
SplineSet
890 946 m 2,0,1
 887 919 887 919 876 893.5 c 128,-1,2
 865 868 865 868 849 852 c 2,3,-1
 324 195 l 1,4,-1
 785 195 l 1,5,-1
 763 0 l 1,6,-1
 -1 0 l 1,7,-1
 12 105 l 2,8,9
 14 122 14 122 25 147 c 128,-1,10
 36 172 36 172 53 193 c 2,11,-1
 583 857 l 1,12,-1
 131 857 l 1,13,-1
 155 1051 l 1,14,-1
 903 1051 l 1,15,-1
 890 946 l 2,0,1
EndSplineSet
Validated: 1
EndChar

StartChar: braceleft
Encoding: 123 123 94
Width: 565
GlyphClass: 1
Flags: W
LayerCount: 2
Fore
SplineSet
128 452 m 0,0,1
 128 501 128 501 105 532.5 c 128,-1,2
 82 564 82 564 32 564 c 1,3,-1
 49 706 l 1,4,5
 125 706 125 706 154.5 768.5 c 128,-1,6
 184 831 184 831 184 962 c 0,7,8
 184 978 184 978 183 999.5 c 128,-1,9
 182 1021 182 1021 181.5 1044 c 128,-1,10
 181 1067 181 1067 180 1089 c 128,-1,11
 179 1111 179 1111 179 1128 c 0,12,13
 179 1237 179 1237 203.5 1321.5 c 128,-1,14
 228 1406 228 1406 278 1464 c 128,-1,15
 328 1522 328 1522 403.5 1552 c 128,-1,16
 479 1582 479 1582 583 1582 c 2,17,-1
 631 1582 l 1,18,-1
 617 1473 l 2,19,20
 615 1461 615 1461 609 1451.5 c 128,-1,21
 603 1442 603 1442 594.5 1436 c 128,-1,22
 586 1430 586 1430 576.5 1427 c 128,-1,23
 567 1424 567 1424 560 1424 c 2,24,-1
 553 1424 l 2,25,26
 485 1424 485 1424 446.5 1375.5 c 128,-1,27
 408 1327 408 1327 399 1237 c 0,28,29
 394 1185 394 1185 393 1137 c 128,-1,30
 392 1089 392 1089 392 1043 c 128,-1,31
 392 997 392 997 391 953.5 c 128,-1,32
 390 910 390 910 386 866 c 0,33,34
 382 823 382 823 368 786 c 128,-1,35
 354 749 354 749 331 718.5 c 128,-1,36
 308 688 308 688 277.5 666 c 128,-1,37
 247 644 247 644 210 634 c 1,38,39
 269 614 269 614 301 563 c 128,-1,40
 333 512 333 512 333 447 c 0,41,42
 333 388 333 388 319.5 331 c 128,-1,43
 306 274 306 274 289.5 217.5 c 128,-1,44
 273 161 273 161 260 103 c 128,-1,45
 247 45 247 45 247 -17 c 0,46,47
 247 -78 247 -78 275 -117 c 128,-1,48
 303 -156 303 -156 358 -156 c 2,49,-1
 367 -156 l 2,50,51
 381 -156 381 -156 396.5 -165.5 c 128,-1,52
 412 -175 412 -175 412 -199 c 0,53,54
 412 -200 412 -200 412 -202.5 c 128,-1,55
 412 -205 412 -205 410.5 -215.5 c 128,-1,56
 409 -226 409 -226 406 -248.5 c 128,-1,57
 403 -271 403 -271 398 -312 c 1,58,-1
 349 -312 l 2,59,60
 267 -312 267 -312 207.5 -290.5 c 128,-1,61
 148 -269 148 -269 110 -231 c 128,-1,62
 72 -193 72 -193 53 -139.5 c 128,-1,63
 34 -86 34 -86 34 -22 c 0,64,65
 34 45 34 45 48.5 105.5 c 128,-1,66
 63 166 63 166 80.5 223.5 c 128,-1,67
 98 281 98 281 113 337.5 c 128,-1,68
 128 394 128 394 128 452 c 0,0,1
EndSplineSet
Validated: 1
EndChar

StartChar: bar
Encoding: 124 124 95
Width: 614
GlyphClass: 1
Flags: W
LayerCount: 2
Fore
SplineSet
147 1584 m 1,0,-1
 344 1584 l 1,1,-1
 344 -343 l 1,2,-1
 147 -343 l 1,3,-1
 147 1584 l 1,0,-1
EndSplineSet
Validated: 1
EndChar

StartChar: braceright
Encoding: 125 125 96
Width: 565
GlyphClass: 1
Flags: W
LayerCount: 2
Fore
SplineSet
469 818 m 0,0,1
 469 769 469 769 492 737.5 c 128,-1,2
 515 706 515 706 565 706 c 1,3,-1
 548 564 l 1,4,5
 472 564 472 564 442.5 501 c 128,-1,6
 413 438 413 438 413 308 c 0,7,8
 413 292 413 292 414 270.5 c 128,-1,9
 415 249 415 249 415.5 226 c 128,-1,10
 416 203 416 203 417 180.5 c 128,-1,11
 418 158 418 158 418 141 c 0,12,13
 418 32 418 32 393.5 -52 c 128,-1,14
 369 -136 369 -136 319 -194 c 128,-1,15
 269 -252 269 -252 193 -282 c 128,-1,16
 117 -312 117 -312 14 -312 c 2,17,-1
 -34 -312 l 1,18,-1
 -20 -203 l 2,19,20
 -19 -191 -19 -191 -12.5 -181.5 c 128,-1,21
 -6 -172 -6 -172 2.5 -166 c 128,-1,22
 11 -160 11 -160 20.5 -157.5 c 128,-1,23
 30 -155 30 -155 37 -155 c 2,24,-1
 44 -155 l 2,25,26
 112 -155 112 -155 150.5 -106 c 128,-1,27
 189 -57 189 -57 198 33 c 0,28,29
 203 85 203 85 204 133 c 128,-1,30
 205 181 205 181 205 226.5 c 128,-1,31
 205 272 205 272 206 315.5 c 128,-1,32
 207 359 207 359 211 403 c 0,33,34
 215 446 215 446 229 483.5 c 128,-1,35
 243 521 243 521 266 551.5 c 128,-1,36
 289 582 289 582 319.5 603.5 c 128,-1,37
 350 625 350 625 387 636 c 1,38,39
 328 656 328 656 296 707 c 128,-1,40
 264 758 264 758 264 822 c 0,41,42
 264 881 264 881 277.5 938 c 128,-1,43
 291 995 291 995 307.5 1052 c 128,-1,44
 324 1109 324 1109 337 1167 c 128,-1,45
 350 1225 350 1225 350 1287 c 0,46,47
 350 1348 350 1348 322 1386.5 c 128,-1,48
 294 1425 294 1425 239 1425 c 2,49,-1
 230 1425 l 2,50,51
 216 1425 216 1425 200.5 1435 c 128,-1,52
 185 1445 185 1445 185 1468 c 0,53,54
 185 1469 185 1469 185 1472 c 128,-1,55
 185 1475 185 1475 186.5 1485.5 c 128,-1,56
 188 1496 188 1496 191 1518.5 c 128,-1,57
 194 1541 194 1541 199 1582 c 1,58,-1
 248 1582 l 2,59,60
 329 1582 329 1582 389 1560.5 c 128,-1,61
 449 1539 449 1539 487 1500.5 c 128,-1,62
 525 1462 525 1462 544 1409 c 128,-1,63
 563 1356 563 1356 563 1291 c 0,64,65
 563 1224 563 1224 548.5 1164 c 128,-1,66
 534 1104 534 1104 516.5 1046.5 c 128,-1,67
 499 989 499 989 484 932.5 c 128,-1,68
 469 876 469 876 469 818 c 0,0,1
EndSplineSet
Validated: 1
EndChar

StartChar: asciitilde
Encoding: 126 126 97
Width: 1187
GlyphClass: 1
Flags: W
LayerCount: 2
Fore
SplineSet
701 664 m 0,0,1
 758 664 758 664 790 700.5 c 128,-1,2
 822 737 822 737 822 804 c 1,3,-1
 1026 804 l 1,4,5
 1026 725 1026 725 1005 661 c 128,-1,6
 984 597 984 597 944.5 551.5 c 128,-1,7
 905 506 905 506 848 481.5 c 128,-1,8
 791 457 791 457 717 457 c 0,9,10
 663 457 663 457 613 471 c 128,-1,11
 563 485 563 485 518.5 502 c 128,-1,12
 474 519 474 519 435 533.5 c 128,-1,13
 396 548 396 548 364 548 c 0,14,15
 307 548 307 548 275 511 c 128,-1,16
 243 474 243 474 243 408 c 1,17,-1
 39 408 l 1,18,19
 39 487 39 487 60 550.5 c 128,-1,20
 81 614 81 614 120.5 660 c 128,-1,21
 160 706 160 706 217 730.5 c 128,-1,22
 274 755 274 755 348 755 c 0,23,24
 402 755 402 755 452 740.5 c 128,-1,25
 502 726 502 726 546.5 709 c 128,-1,26
 591 692 591 692 629.5 678 c 128,-1,27
 668 664 668 664 701 664 c 0,0,1
EndSplineSet
Validated: 1
EndChar

StartChar: exclamdown
Encoding: 161 161 99
Width: 684
GlyphClass: 1
Flags: W
LayerCount: 2
Fore
SplineSet
131 -345 m 1,0,-1
 199 203 l 2,1,2
 210 296 210 296 229.5 385 c 128,-1,3
 249 474 249 474 274 575 c 1,4,-1
 434 575 l 1,5,6
 434 558 434 558 434.5 540.5 c 128,-1,7
 435 523 435 523 435 506 c 0,8,9
 435 426 435 426 431 353 c 128,-1,10
 427 280 427 280 418 203 c 2,11,-1
 351 -345 l 1,12,-1
 131 -345 l 1,0,-1
238 912 m 0,13,14
 238 944 238 944 249.5 972.5 c 128,-1,15
 261 1001 261 1001 282 1021.5 c 128,-1,16
 303 1042 303 1042 331 1054.5 c 128,-1,17
 359 1067 359 1067 392 1067 c 256,18,19
 425 1067 425 1067 453 1054.5 c 128,-1,20
 481 1042 481 1042 502 1021.5 c 128,-1,21
 523 1001 523 1001 535.5 972.5 c 128,-1,22
 548 944 548 944 548 912 c 0,23,24
 548 879 548 879 535.5 851 c 128,-1,25
 523 823 523 823 502 802.5 c 128,-1,26
 481 782 481 782 453 770.5 c 128,-1,27
 425 759 425 759 392 759 c 256,28,29
 359 759 359 759 331 770.5 c 128,-1,30
 303 782 303 782 282 802.5 c 128,-1,31
 261 823 261 823 249.5 851 c 128,-1,32
 238 879 238 879 238 912 c 0,13,14
EndSplineSet
Validated: 1
EndChar

StartChar: cent
Encoding: 162 162 100
Width: 1187
GlyphClass: 1
Flags: W
LayerCount: 2
Fore
SplineSet
493 -9 m 1,0,1
 412 3 412 3 344 40 c 128,-1,2
 276 77 276 77 228 136 c 128,-1,3
 180 195 180 195 153 273.5 c 128,-1,4
 126 352 126 352 126 450 c 0,5,6
 126 577 126 577 166 687 c 128,-1,7
 206 797 206 797 281 879 c 128,-1,8
 356 961 356 961 465.5 1009.5 c 128,-1,9
 575 1058 575 1058 714 1063 c 1,10,-1
 748 1227 l 2,11,12
 753 1251 753 1251 773.5 1270 c 128,-1,13
 794 1289 794 1289 821 1289 c 2,14,-1
 911 1289 l 1,15,-1
 862 1054 l 1,16,17
 942 1040 942 1040 1004 1006 c 128,-1,18
 1066 972 1066 972 1115 921 c 1,19,-1
 1041 836 l 2,20,21
 1029 822 1029 822 1018.5 814.5 c 128,-1,22
 1008 807 1008 807 988 807 c 0,23,24
 974 807 974 807 959.5 814 c 128,-1,25
 945 821 945 821 926 831 c 128,-1,26
 907 841 907 841 882.5 851.5 c 128,-1,27
 858 862 858 862 825 870 c 1,28,-1
 681 170 l 1,29,30
 737 175 737 175 776 190 c 128,-1,31
 815 205 815 205 843 220.5 c 128,-1,32
 871 236 871 236 892 248 c 128,-1,33
 913 260 913 260 934 260 c 0,34,35
 965 260 965 260 977 240 c 2,36,-1
 1033 154 l 1,37,38
 993 113 993 113 947 83 c 128,-1,39
 901 53 901 53 851.5 33 c 128,-1,40
 802 13 802 13 749 2.5 c 128,-1,41
 696 -8 696 -8 643 -12 c 1,42,-1
 611 -167 l 2,43,44
 606 -191 606 -191 585.5 -209.5 c 128,-1,45
 565 -228 565 -228 538 -228 c 2,46,-1
 447 -228 l 1,47,-1
 493 -9 l 1,0,1
367 462 m 0,48,49
 367 352 367 352 409.5 281 c 128,-1,50
 452 210 452 210 531 183 c 1,51,-1
 675 878 l 1,52,53
 597 870 597 870 539 836.5 c 128,-1,54
 481 803 481 803 442.5 749 c 128,-1,55
 404 695 404 695 385.5 622.5 c 128,-1,56
 367 550 367 550 367 462 c 0,48,49
EndSplineSet
Validated: 1
EndChar

StartChar: sterling
Encoding: 163 163 101
Width: 1187
GlyphClass: 1
Flags: W
LayerCount: 2
Fore
SplineSet
908 635 m 16,0,1
 885 616 885 616 857 616 c 2,2,-1
 466 616 l 1,3,-1
 441 406 l 2,4,5
 433 336 433 336 409 283.5 c 128,-1,6
 385 231 385 231 342 187 c 1,7,8
 382 196 382 196 422 201.5 c 128,-1,9
 462 207 462 207 502 207 c 2,10,-1
 1114 207 l 1,11,-1
 1101 105 l 2,12,13
 1099 87 1099 87 1089 68 c 128,-1,14
 1079 49 1079 49 1064 34 c 128,-1,15
 1049 19 1049 19 1028.5 9.5 c 128,-1,16
 1008 0 1008 0 984 0 c 2,17,-1
 1 0 l 1,18,-1
 20 154 l 1,19,20
 91 170 91 170 131 212.5 c 128,-1,21
 171 255 171 255 182 340 c 2,22,-1
 216 616 l 1,23,-1
 57 616 l 1,24,-1
 70 715 l 2,25,26
 73 738 73 738 94 756.5 c 128,-1,27
 115 775 115 775 145 775 c 2,28,-1
 236 775 l 1,29,-1
 265 1022 l 2,30,31
 276 1118 276 1118 318.5 1204.5 c 128,-1,32
 361 1291 361 1291 430.5 1355.5 c 128,-1,33
 500 1420 500 1420 595 1458 c 128,-1,34
 690 1496 690 1496 808 1496 c 0,35,36
 896 1496 896 1496 961.5 1476 c 128,-1,37
 1027 1456 1027 1456 1074.5 1420.5 c 128,-1,38
 1122 1385 1122 1385 1154 1336.5 c 128,-1,39
 1186 1288 1186 1288 1206 1231 c 1,40,-1
 1100 1167 l 2,41,42
 1070 1152 1070 1152 1042 1152 c 0,43,44
 1025 1152 1025 1152 1008.5 1159 c 128,-1,45
 992 1166 992 1166 980 1184 c 0,46,47
 962 1209 962 1209 945 1228.5 c 128,-1,48
 928 1248 928 1248 906.5 1262 c 128,-1,49
 885 1276 885 1276 855.5 1283 c 128,-1,50
 826 1290 826 1290 784 1290 c 0,51,52
 730 1290 730 1290 684 1271.5 c 128,-1,53
 638 1253 638 1253 602.5 1219 c 128,-1,54
 567 1185 567 1185 544.5 1135.5 c 128,-1,55
 522 1086 522 1086 515 1024 c 2,56,-1
 485 775 l 1,57,-1
 943 775 l 1,58,-1
 932 678 l 9,59,60
 924 648 924 648 908 635 c 16,0,1
EndSplineSet
Validated: 1
EndChar

StartChar: currency
Encoding: 164 164 102
Width: 1187
GlyphClass: 1
Flags: W
LayerCount: 2
Fore
SplineSet
255 689 m 0,0,1
 255 743 255 743 269 792 c 128,-1,2
 283 841 283 841 308 884 c 1,3,-1
 153 1039 l 1,4,-1
 280 1164 l 1,5,-1
 434 1011 l 1,6,7
 477 1038 477 1038 527.5 1052.5 c 128,-1,8
 578 1067 578 1067 633 1067 c 0,9,10
 686 1067 686 1067 735 1053 c 128,-1,11
 784 1039 784 1039 827 1014 c 1,12,-1
 983 1169 l 1,13,-1
 1110 1043 l 1,14,-1
 954 889 l 1,15,16
 981 846 981 846 996.5 795 c 128,-1,17
 1012 744 1012 744 1012 689 c 0,18,19
 1012 635 1012 635 998 587 c 128,-1,20
 984 539 984 539 958 496 c 1,21,-1
 1114 340 l 1,22,-1
 986 214 l 1,23,-1
 831 368 l 1,24,25
 788 341 788 341 738 326.5 c 128,-1,26
 688 312 688 312 633 312 c 0,27,28
 580 312 580 312 531 325.5 c 128,-1,29
 482 339 482 339 439 365 c 1,30,-1
 284 209 l 1,31,-1
 157 336 l 1,32,-1
 311 489 l 1,33,34
 284 532 284 532 269.5 583 c 128,-1,35
 255 634 255 634 255 689 c 0,0,1
442 689 m 0,36,37
 442 650 442 650 457 615 c 128,-1,38
 472 580 472 580 498 553.5 c 128,-1,39
 524 527 524 527 559 512 c 128,-1,40
 594 497 594 497 633 497 c 0,41,42
 673 497 673 497 708 512 c 128,-1,43
 743 527 743 527 769.5 553.5 c 128,-1,44
 796 580 796 580 811 615 c 128,-1,45
 826 650 826 650 826 689 c 0,46,47
 826 730 826 730 811 765.5 c 128,-1,48
 796 801 796 801 769.5 827 c 128,-1,49
 743 853 743 853 708 868.5 c 128,-1,50
 673 884 673 884 633 884 c 0,51,52
 594 884 594 884 559 868.5 c 128,-1,53
 524 853 524 853 498 827 c 128,-1,54
 472 801 472 801 457 765.5 c 128,-1,55
 442 730 442 730 442 689 c 0,36,37
EndSplineSet
Validated: 1
EndChar

StartChar: yen
Encoding: 165 165 103
Width: 1187
GlyphClass: 1
Flags: W
LayerCount: 2
Fore
SplineSet
156 646 m 1,0,-1
 442 646 l 1,1,-1
 135 1480 l 1,2,-1
 340 1480 l 2,3,4
 373 1480 373 1480 393 1463 c 128,-1,5
 413 1446 413 1446 421 1419 c 2,6,-1
 590 908 l 2,7,8
 604 865 604 865 611 827.5 c 128,-1,9
 618 790 618 790 624 753 c 1,10,11
 636 790 636 790 652 827.5 c 128,-1,12
 668 865 668 865 692 908 c 2,13,-1
 985 1419 l 2,14,15
 998 1443 998 1443 1022.5 1461.5 c 128,-1,16
 1047 1480 1047 1480 1079 1480 c 2,17,-1
 1285 1480 l 1,18,-1
 772 646 l 1,19,-1
 1060 646 l 1,20,-1
 1043 511 l 1,21,-1
 714 511 l 1,22,-1
 701 413 l 1,23,-1
 1030 413 l 1,24,-1
 1014 276 l 1,25,-1
 684 276 l 1,26,-1
 650 0 l 1,27,-1
 407 0 l 1,28,-1
 440 276 l 1,29,-1
 110 276 l 1,30,-1
 128 413 l 1,31,-1
 457 413 l 1,32,-1
 468 511 l 1,33,-1
 139 511 l 1,34,-1
 156 646 l 1,0,-1
EndSplineSet
Validated: 1
EndChar

StartChar: brokenbar
Encoding: 166 166 104
Width: 614
GlyphClass: 1
Flags: W
LayerCount: 2
Fore
SplineSet
147 1584 m 1,0,-1
 344 1584 l 1,1,-1
 344 756 l 1,2,-1
 147 756 l 1,3,-1
 147 1584 l 1,0,-1
147 484 m 1,4,-1
 344 484 l 1,5,-1
 344 -343 l 1,6,-1
 147 -343 l 1,7,-1
 147 484 l 1,4,-1
EndSplineSet
Validated: 1
EndChar

StartChar: section
Encoding: 167 167 105
Width: 952
GlyphClass: 1
Flags: W
LayerCount: 2
Fore
SplineSet
876 1278 m 2,0,1
 865 1263 865 1263 853 1255.5 c 128,-1,2
 841 1248 841 1248 824 1248 c 0,3,4
 806 1248 806 1248 787.5 1259 c 128,-1,5
 769 1270 769 1270 745.5 1282 c 128,-1,6
 722 1294 722 1294 690.5 1305 c 128,-1,7
 659 1316 659 1316 616 1316 c 0,8,9
 575 1316 575 1316 543 1304.5 c 128,-1,10
 511 1293 511 1293 489 1274 c 128,-1,11
 467 1255 467 1255 455 1229.5 c 128,-1,12
 443 1204 443 1204 443 1177 c 0,13,14
 443 1147 443 1147 463 1123.5 c 128,-1,15
 483 1100 483 1100 515.5 1079 c 128,-1,16
 548 1058 548 1058 589 1038.5 c 128,-1,17
 630 1019 630 1019 673.5 997.5 c 128,-1,18
 717 976 717 976 758 950 c 128,-1,19
 799 924 799 924 831 891 c 128,-1,20
 863 858 863 858 883 815.5 c 128,-1,21
 903 773 903 773 903 719 c 0,22,23
 903 628 903 628 859 552 c 128,-1,24
 815 476 815 476 718 431 c 1,25,26
 752 398 752 398 773 355 c 128,-1,27
 794 312 794 312 794 255 c 0,28,29
 794 175 794 175 764.5 106 c 128,-1,30
 735 37 735 37 679.5 -14.5 c 128,-1,31
 624 -66 624 -66 543 -95 c 128,-1,32
 462 -124 462 -124 357 -124 c 0,33,34
 307 -124 307 -124 260 -114 c 128,-1,35
 213 -104 213 -104 171 -87.5 c 128,-1,36
 129 -71 129 -71 94 -47.5 c 128,-1,37
 59 -24 59 -24 35 4 c 1,38,-1
 103 96 l 2,39,40
 115 113 115 113 130.5 122 c 128,-1,41
 146 131 146 131 170 131 c 0,42,43
 193 131 193 131 210.5 117.5 c 128,-1,44
 228 104 228 104 251.5 89 c 128,-1,45
 275 74 275 74 309.5 60.5 c 128,-1,46
 344 47 344 47 399 47 c 0,47,48
 482 47 482 47 528 88.5 c 128,-1,49
 574 130 574 130 574 198 c 0,50,51
 574 236 574 236 554.5 263 c 128,-1,52
 535 290 535 290 502 312 c 128,-1,53
 469 334 469 334 427 352.5 c 128,-1,54
 385 371 385 371 341 391 c 128,-1,55
 297 411 297 411 255 435 c 128,-1,56
 213 459 213 459 180 491.5 c 128,-1,57
 147 524 147 524 127.5 567 c 128,-1,58
 108 610 108 610 108 669 c 0,59,60
 108 762 108 762 156 834.5 c 128,-1,61
 204 907 204 907 301 948 c 1,62,63
 267 983 267 983 246 1029 c 128,-1,64
 225 1075 225 1075 225 1138 c 0,65,66
 225 1210 225 1210 252.5 1274 c 128,-1,67
 280 1338 280 1338 332 1387.5 c 128,-1,68
 384 1437 384 1437 460.5 1465.5 c 128,-1,69
 537 1494 537 1494 635 1494 c 0,70,71
 737 1494 737 1494 815.5 1458.5 c 128,-1,72
 894 1423 894 1423 940 1366 c 1,73,-1
 876 1278 l 2,0,1
330 730 m 0,74,75
 330 690 330 690 354.5 661 c 128,-1,76
 379 632 379 632 418 608 c 128,-1,77
 457 584 457 584 505 561.5 c 128,-1,78
 553 539 553 539 601 513 c 1,79,80
 645 538 645 538 664 572 c 128,-1,81
 683 606 683 606 683 648 c 0,82,83
 683 689 683 689 659.5 719 c 128,-1,84
 636 749 636 749 598 772.5 c 128,-1,85
 560 796 560 796 513 817.5 c 128,-1,86
 466 839 466 839 419 864 c 1,87,88
 370 836 370 836 350 804 c 128,-1,89
 330 772 330 772 330 730 c 0,74,75
EndSplineSet
Validated: 1
EndChar

StartChar: dieresis
Encoding: 168 168 106
Width: 605
GlyphClass: 1
Flags: W
LayerCount: 2
Fore
SplineSet
357 1346 m 0,0,1
 357 1317 357 1317 346 1292 c 128,-1,2
 335 1267 335 1267 315 1248.5 c 128,-1,3
 295 1230 295 1230 269 1219 c 128,-1,4
 243 1208 243 1208 213 1208 c 0,5,6
 185 1208 185 1208 160 1219 c 128,-1,7
 135 1230 135 1230 116 1248.5 c 128,-1,8
 97 1267 97 1267 86 1292 c 128,-1,9
 75 1317 75 1317 75 1346 c 0,10,11
 75 1376 75 1376 86 1401.5 c 128,-1,12
 97 1427 97 1427 116 1446.5 c 128,-1,13
 135 1466 135 1466 160 1477.5 c 128,-1,14
 185 1489 185 1489 213 1489 c 0,15,16
 243 1489 243 1489 269 1477.5 c 128,-1,17
 295 1466 295 1466 315 1446.5 c 128,-1,18
 335 1427 335 1427 346 1401.5 c 128,-1,19
 357 1376 357 1376 357 1346 c 0,0,1
739 1346 m 0,20,21
 739 1317 739 1317 728 1292 c 128,-1,22
 717 1267 717 1267 698 1248.5 c 128,-1,23
 679 1230 679 1230 653 1219 c 128,-1,24
 627 1208 627 1208 597 1208 c 0,25,26
 568 1208 568 1208 542.5 1219 c 128,-1,27
 517 1230 517 1230 498 1248.5 c 128,-1,28
 479 1267 479 1267 468 1292 c 128,-1,29
 457 1317 457 1317 457 1346 c 0,30,31
 457 1376 457 1376 468 1401.5 c 128,-1,32
 479 1427 479 1427 498 1446.5 c 128,-1,33
 517 1466 517 1466 542.5 1477.5 c 128,-1,34
 568 1489 568 1489 597 1489 c 0,35,36
 627 1489 627 1489 653 1477.5 c 128,-1,37
 679 1466 679 1466 698 1446.5 c 128,-1,38
 717 1427 717 1427 728 1401.5 c 128,-1,39
 739 1376 739 1376 739 1346 c 0,20,21
EndSplineSet
Validated: 1
Substitution2: "'case' Case-Sensitive Forms in Latin lookup 0 subtable" dieresis.case
EndChar

StartChar: copyright
Encoding: 169 169 107
Width: 1620
GlyphClass: 1
Flags: W
LayerCount: 2
Fore
SplineSet
1070 524 m 0,0,1
 1081 524 1081 524 1090.5 519.5 c 128,-1,2
 1100 515 1100 515 1106 507 c 2,3,-1
 1190 418 l 1,4,5
 1133 345 1133 345 1045.5 306.5 c 128,-1,6
 958 268 958 268 841 268 c 0,7,8
 739 268 739 268 655.5 304.5 c 128,-1,9
 572 341 572 341 513.5 405 c 128,-1,10
 455 469 455 469 423 555.5 c 128,-1,11
 391 642 391 642 391 743 c 0,12,13
 391 847 391 847 427 934.5 c 128,-1,14
 463 1022 463 1022 526.5 1085 c 128,-1,15
 590 1148 590 1148 675.5 1183 c 128,-1,16
 761 1218 761 1218 861 1218 c 0,17,18
 975 1218 975 1218 1057 1179.5 c 128,-1,19
 1139 1141 1139 1141 1194 1081 c 1,20,-1
 1127 990 l 2,21,22
 1121 982 1121 982 1110.5 974 c 128,-1,23
 1100 966 1100 966 1083 966 c 256,24,25
 1066 966 1066 966 1050.5 976 c 128,-1,26
 1035 986 1035 986 1013.5 998.5 c 128,-1,27
 992 1011 992 1011 959 1021 c 128,-1,28
 926 1031 926 1031 873 1031 c 0,29,30
 812 1031 812 1031 764.5 1011 c 128,-1,31
 717 991 717 991 683.5 953.5 c 128,-1,32
 650 916 650 916 632.5 863 c 128,-1,33
 615 810 615 810 615 743 c 0,34,35
 615 673 615 673 633 620 c 128,-1,36
 651 567 651 567 682.5 531 c 128,-1,37
 714 495 714 495 757.5 476 c 128,-1,38
 801 457 801 457 853 457 c 0,39,40
 903 457 903 457 935.5 465 c 128,-1,41
 968 473 968 473 990.5 484.5 c 128,-1,42
 1013 496 1013 496 1030 507 c 128,-1,43
 1047 518 1047 518 1070 524 c 0,0,1
83 740 m 256,44,45
 83 844 83 844 110 941 c 128,-1,46
 137 1038 137 1038 186.5 1122 c 128,-1,47
 236 1206 236 1206 305 1275.5 c 128,-1,48
 374 1345 374 1345 457.5 1394 c 128,-1,49
 541 1443 541 1443 637 1470 c 128,-1,50
 733 1497 733 1497 838 1497 c 256,51,52
 942 1497 942 1497 1039 1470 c 128,-1,53
 1136 1443 1136 1443 1220 1394 c 128,-1,54
 1304 1345 1304 1345 1373 1275.5 c 128,-1,55
 1442 1206 1442 1206 1491 1122 c 128,-1,56
 1540 1038 1540 1038 1567 941.5 c 128,-1,57
 1594 845 1594 845 1594 740 c 0,58,59
 1594 637 1594 637 1567 540 c 128,-1,60
 1540 443 1540 443 1491 359.5 c 128,-1,61
 1442 276 1442 276 1373 207 c 128,-1,62
 1304 138 1304 138 1220 89 c 128,-1,63
 1136 40 1136 40 1039 13 c 128,-1,64
 942 -14 942 -14 838 -14 c 0,65,66
 735 -14 735 -14 638 13 c 128,-1,67
 541 40 541 40 457.5 89 c 128,-1,68
 374 138 374 138 305 207 c 128,-1,69
 236 276 236 276 186.5 359.5 c 128,-1,70
 137 443 137 443 110 539.5 c 128,-1,71
 83 636 83 636 83 740 c 256,44,45
221 740 m 0,72,73
 221 607 221 607 268.5 491.5 c 128,-1,74
 316 376 316 376 399 290.5 c 128,-1,75
 482 205 482 205 595 155.5 c 128,-1,76
 708 106 708 106 838 106 c 0,77,78
 925 106 925 106 1004.5 129 c 128,-1,79
 1084 152 1084 152 1153.5 192.5 c 128,-1,80
 1223 233 1223 233 1279.5 290.5 c 128,-1,81
 1336 348 1336 348 1376 418.5 c 128,-1,82
 1416 489 1416 489 1438 570 c 128,-1,83
 1460 651 1460 651 1460 740 c 256,84,85
 1460 829 1460 829 1438 911 c 128,-1,86
 1416 993 1416 993 1376 1064.5 c 128,-1,87
 1336 1136 1336 1136 1279.5 1193.5 c 128,-1,88
 1223 1251 1223 1251 1153.5 1292.5 c 128,-1,89
 1084 1334 1084 1334 1004.5 1356.5 c 128,-1,90
 925 1379 925 1379 838 1379 c 0,91,92
 752 1379 752 1379 672.5 1356.5 c 128,-1,93
 593 1334 593 1334 524.5 1292.5 c 128,-1,94
 456 1251 456 1251 400 1193.5 c 128,-1,95
 344 1136 344 1136 304 1064.5 c 128,-1,96
 264 993 264 993 242.5 911 c 128,-1,97
 221 829 221 829 221 740 c 0,72,73
EndSplineSet
Validated: 1
EndChar

StartChar: ordfeminine
Encoding: 170 170 108
Width: 657
GlyphClass: 1
Flags: W
LayerCount: 2
Fore
SplineSet
552 861 m 2,0,1
 528 861 528 861 517 868.5 c 128,-1,2
 506 876 506 876 498 897 c 2,3,-1
 490 934 l 1,4,5
 465 914 465 914 443 898.5 c 128,-1,6
 421 883 421 883 398 873 c 128,-1,7
 375 863 375 863 350 858 c 128,-1,8
 325 853 325 853 294 853 c 0,9,10
 221 853 221 853 178.5 891 c 128,-1,11
 136 929 136 929 136 999 c 0,12,13
 136 1038 136 1038 153 1077.5 c 128,-1,14
 170 1117 170 1117 212.5 1149.5 c 128,-1,15
 255 1182 255 1182 326.5 1203 c 128,-1,16
 398 1224 398 1224 509 1227 c 1,17,-1
 512 1270 l 2,18,19
 512 1289 512 1289 509 1305.5 c 128,-1,20
 506 1322 506 1322 497.5 1334 c 128,-1,21
 489 1346 489 1346 476 1352.5 c 128,-1,22
 463 1359 463 1359 441 1359 c 0,23,24
 410 1359 410 1359 389.5 1351 c 128,-1,25
 369 1343 369 1343 352 1334.5 c 128,-1,26
 335 1326 335 1326 319 1318.5 c 128,-1,27
 303 1311 303 1311 284 1311 c 0,28,29
 266 1311 266 1311 255 1320.5 c 128,-1,30
 244 1330 244 1330 238 1342 c 2,31,-1
 213 1400 l 1,32,33
 272 1452 272 1452 339.5 1475.5 c 128,-1,34
 407 1499 407 1499 480 1499 c 0,35,36
 527 1499 527 1499 565 1482 c 128,-1,37
 603 1465 603 1465 629.5 1436.5 c 128,-1,38
 656 1408 656 1408 670.5 1369.5 c 128,-1,39
 685 1331 685 1331 685 1287 c 0,40,41
 685 1285 685 1285 685 1279.5 c 128,-1,42
 685 1274 685 1274 683.5 1258.5 c 128,-1,43
 682 1243 682 1243 679 1215.5 c 128,-1,44
 676 1188 676 1188 670.5 1141.5 c 128,-1,45
 665 1095 665 1095 655.5 1026 c 128,-1,46
 646 957 646 957 634 861 c 1,47,-1
 552 861 l 2,0,1
365 973 m 0,48,49
 400 973 400 973 427.5 986.5 c 128,-1,50
 455 1000 455 1000 485 1029 c 1,51,-1
 496 1119 l 1,52,53
 442 1117 442 1117 405.5 1109.5 c 128,-1,54
 369 1102 369 1102 347 1089 c 128,-1,55
 325 1076 325 1076 315.5 1058.5 c 128,-1,56
 306 1041 306 1041 306 1021 c 0,57,58
 306 994 306 994 321.5 983.5 c 128,-1,59
 337 973 337 973 365 973 c 0,48,49
EndSplineSet
Validated: 1
EndChar

StartChar: guillemotleft
Encoding: 171 171 109
Width: 943
GlyphClass: 1
Flags: W
LayerCount: 2
Fore
SplineSet
124 535 m 1,0,-1
 129 565 l 1,1,-1
 421 970 l 1,2,-1
 496 932 l 2,3,4
 529 919 529 919 528 887 c 0,5,6
 528 876 528 876 522.5 863.5 c 128,-1,7
 517 851 517 851 509 837 c 2,8,-1
 352 592 l 2,9,10
 335 566 335 566 314 549 c 1,11,12
 322 542 322 542 328.5 531 c 128,-1,13
 335 520 335 520 341 508 c 2,14,-1
 438 263 l 2,15,16
 446 244 446 244 446 227 c 0,17,18
 446 185 446 185 402 166 c 2,19,-1
 317 129 l 1,20,-1
 124 535 l 1,0,-1
440 535 m 1,21,-1
 445 565 l 1,22,-1
 737 970 l 1,23,-1
 812 932 l 2,24,25
 845 919 845 919 845 887 c 0,26,27
 845 876 845 876 839.5 863.5 c 128,-1,28
 834 851 834 851 825 837 c 2,29,-1
 669 592 l 2,30,31
 652 566 652 566 631 549 c 1,32,33
 639 542 639 542 645 531 c 128,-1,34
 651 520 651 520 657 508 c 2,35,-1
 755 263 l 2,36,37
 763 244 763 244 763 227 c 0,38,39
 763 185 763 185 719 166 c 2,40,-1
 634 129 l 1,41,-1
 440 535 l 1,21,-1
EndSplineSet
Validated: 1
EndChar

StartChar: logicalnot
Encoding: 172 172 110
Width: 1187
GlyphClass: 1
Flags: W
LayerCount: 2
Fore
SplineSet
175 778 m 1,0,-1
 1079 778 l 1,1,-1
 1021 307 l 1,2,-1
 814 307 l 1,3,-1
 850 597 l 1,4,-1
 154 597 l 1,5,-1
 175 778 l 1,0,-1
EndSplineSet
Validated: 1
EndChar

StartChar: uni00AD
Encoding: 173 173 111
Width: 679
GlyphClass: 1
Flags: W
LayerCount: 2
Fore
SplineSet
121 720 m 1,0,-1
 613 720 l 1,1,-1
 588 516 l 1,2,-1
 96 516 l 1,3,-1
 121 720 l 1,0,-1
EndSplineSet
Validated: 1
EndChar

StartChar: registered
Encoding: 174 174 112
Width: 1620
GlyphClass: 1
Flags: W
LayerCount: 2
Fore
SplineSet
81 740 m 0,0,1
 81 897 81 897 140.5 1034.5 c 128,-1,2
 200 1172 200 1172 302 1275 c 128,-1,3
 404 1378 404 1378 541.5 1437.5 c 128,-1,4
 679 1497 679 1497 836 1497 c 0,5,6
 940 1497 940 1497 1037 1470 c 128,-1,7
 1134 1443 1134 1443 1218 1394 c 128,-1,8
 1302 1345 1302 1345 1371 1275.5 c 128,-1,9
 1440 1206 1440 1206 1489 1122 c 128,-1,10
 1538 1038 1538 1038 1565 941.5 c 128,-1,11
 1592 845 1592 845 1592 740 c 0,12,13
 1592 637 1592 637 1565 540 c 128,-1,14
 1538 443 1538 443 1489 359.5 c 128,-1,15
 1440 276 1440 276 1371 207 c 128,-1,16
 1302 138 1302 138 1218 89 c 128,-1,17
 1134 40 1134 40 1037 13 c 128,-1,18
 940 -14 940 -14 836 -14 c 256,19,20
 732 -14 732 -14 635.5 13 c 128,-1,21
 539 40 539 40 455 89 c 128,-1,22
 371 138 371 138 302 207 c 128,-1,23
 233 276 233 276 184 359.5 c 128,-1,24
 135 443 135 443 108 539.5 c 128,-1,25
 81 636 81 636 81 740 c 0,0,1
218 740 m 0,26,27
 218 607 218 607 265.5 491.5 c 128,-1,28
 313 376 313 376 396.5 290.5 c 128,-1,29
 480 205 480 205 593 155.5 c 128,-1,30
 706 106 706 106 836 106 c 0,31,32
 923 106 923 106 1002.5 129 c 128,-1,33
 1082 152 1082 152 1151.5 192.5 c 128,-1,34
 1221 233 1221 233 1277.5 290.5 c 128,-1,35
 1334 348 1334 348 1374 418.5 c 128,-1,36
 1414 489 1414 489 1436 570 c 128,-1,37
 1458 651 1458 651 1458 740 c 256,38,39
 1458 829 1458 829 1436 911 c 128,-1,40
 1414 993 1414 993 1374 1064.5 c 128,-1,41
 1334 1136 1334 1136 1277.5 1193.5 c 128,-1,42
 1221 1251 1221 1251 1151.5 1292.5 c 128,-1,43
 1082 1334 1082 1334 1002.5 1356.5 c 128,-1,44
 923 1379 923 1379 836 1379 c 256,45,46
 749 1379 749 1379 669.5 1356.5 c 128,-1,47
 590 1334 590 1334 521.5 1292.5 c 128,-1,48
 453 1251 453 1251 397 1193.5 c 128,-1,49
 341 1136 341 1136 301 1064.5 c 128,-1,50
 261 993 261 993 239.5 911 c 128,-1,51
 218 829 218 829 218 740 c 0,26,27
721 616 m 1,52,-1
 721 284 l 1,53,-1
 502 284 l 1,54,-1
 502 1202 l 1,55,-1
 830 1202 l 2,56,57
 1021 1202 1021 1202 1110.5 1133.5 c 128,-1,58
 1200 1065 1200 1065 1200 937 c 0,59,60
 1200 846 1200 846 1153 778 c 128,-1,61
 1106 710 1106 710 1007 679 c 1,62,63
 1031 666 1031 666 1046 645.5 c 128,-1,64
 1061 625 1061 625 1076 598 c 2,65,-1
 1262 284 l 1,66,-1
 1051 284 l 2,67,68
 1006 284 1006 284 987 317 c 2,69,-1
 839 587 l 2,70,71
 831 602 831 602 817.5 609 c 128,-1,72
 804 616 804 616 777 616 c 2,73,-1
 721 616 l 1,52,-1
721 773 m 1,74,-1
 812 773 l 2,75,76
 865 773 865 773 898.5 782 c 128,-1,77
 932 791 932 791 951 808 c 128,-1,78
 970 825 970 825 977 851 c 128,-1,79
 984 877 984 877 984 909 c 256,80,81
 984 941 984 941 978 965 c 128,-1,82
 972 989 972 989 955 1005 c 128,-1,83
 938 1021 938 1021 908 1028.5 c 128,-1,84
 878 1036 878 1036 830 1036 c 2,85,-1
 721 1036 l 1,86,-1
 721 773 l 1,74,-1
EndSplineSet
Validated: 1
EndChar

StartChar: macron
Encoding: 175 175 113
Width: 605
GlyphClass: 1
Flags: W
LayerCount: 2
Fore
SplineSet
132 1402 m 1,0,-1
 698 1402 l 1,1,-1
 679 1245 l 1,2,-1
 113 1245 l 1,3,-1
 132 1402 l 1,0,-1
EndSplineSet
Validated: 1
Substitution2: "'case' Case-Sensitive Forms in Latin lookup 0 subtable" macron.case
EndChar

StartChar: degree
Encoding: 176 176 114
Width: 802
GlyphClass: 1
Flags: W
LayerCount: 2
Fore
SplineSet
130 1150 m 0,0,1
 130 1223 130 1223 157 1287 c 128,-1,2
 184 1351 184 1351 232 1398 c 128,-1,3
 280 1445 280 1445 344.5 1472 c 128,-1,4
 409 1499 409 1499 483 1499 c 256,5,6
 558 1499 558 1499 623 1472 c 128,-1,7
 688 1445 688 1445 735.5 1398 c 128,-1,8
 783 1351 783 1351 811 1287 c 128,-1,9
 839 1223 839 1223 839 1150 c 0,10,11
 839 1079 839 1079 811 1015.5 c 128,-1,12
 783 952 783 952 735.5 904.5 c 128,-1,13
 688 857 688 857 623 829.5 c 128,-1,14
 558 802 558 802 483 802 c 256,15,16
 408 802 408 802 344 829.5 c 128,-1,17
 280 857 280 857 232 904.5 c 128,-1,18
 184 952 184 952 157 1015.5 c 128,-1,19
 130 1079 130 1079 130 1150 c 0,0,1
305 1148 m 0,20,21
 305 1110 305 1110 318.5 1077 c 128,-1,22
 332 1044 332 1044 356 1020 c 128,-1,23
 380 996 380 996 412 982.5 c 128,-1,24
 444 969 444 969 483 969 c 0,25,26
 521 969 521 969 553.5 982.5 c 128,-1,27
 586 996 586 996 610 1020 c 128,-1,28
 634 1044 634 1044 647 1077 c 128,-1,29
 660 1110 660 1110 660 1148 c 0,30,31
 660 1187 660 1187 647 1220 c 128,-1,32
 634 1253 634 1253 610 1278 c 128,-1,33
 586 1303 586 1303 553.5 1317 c 128,-1,34
 521 1331 521 1331 483 1331 c 0,35,36
 444 1331 444 1331 412 1317 c 128,-1,37
 380 1303 380 1303 356 1278 c 128,-1,38
 332 1253 332 1253 318.5 1220 c 128,-1,39
 305 1187 305 1187 305 1148 c 0,20,21
EndSplineSet
Validated: 1
EndChar

StartChar: plusminus
Encoding: 177 177 115
Width: 1187
GlyphClass: 1
Flags: W
LayerCount: 2
Fore
SplineSet
785 1266 m 1,0,-1
 740 900 l 1,1,-1
 1141 900 l 1,2,-1
 1118 719 l 1,3,-1
 718 719 l 1,4,-1
 675 367 l 1,5,-1
 477 367 l 1,6,-1
 520 719 l 1,7,-1
 123 719 l 1,8,-1
 143 900 l 1,9,-1
 543 900 l 1,10,-1
 588 1266 l 1,11,-1
 785 1266 l 1,0,-1
66 263 m 1,12,-1
 1062 263 l 1,13,-1
 1039 82 l 1,14,-1
 44 82 l 1,15,-1
 66 263 l 1,12,-1
EndSplineSet
Validated: 1
EndChar

StartChar: twosuperior
Encoding: 178 178 116
Width: 681
GlyphClass: 1
Flags: W
LayerCount: 2
Fore
SplineSet
500 1687 m 0,0,1
 554 1687 554 1687 595.5 1672 c 128,-1,2
 637 1657 637 1657 665 1631 c 128,-1,3
 693 1605 693 1605 707.5 1569 c 128,-1,4
 722 1533 722 1533 722 1491 c 0,5,6
 722 1444 722 1444 706.5 1405 c 128,-1,7
 691 1366 691 1366 665 1331.5 c 128,-1,8
 639 1297 639 1297 605 1265.5 c 128,-1,9
 571 1234 571 1234 535 1201 c 2,10,-1
 380 1061 l 1,11,12
 410 1069 410 1069 438.5 1074 c 128,-1,13
 467 1079 467 1079 490 1079 c 2,14,-1
 632 1079 l 2,15,16
 684 1079 684 1079 684 1034 c 0,17,18
 684 1033 684 1033 682.5 1020.5 c 128,-1,19
 681 1008 681 1008 679.5 993.5 c 128,-1,20
 678 979 678 979 677 966 c 128,-1,21
 676 953 676 953 676 952 c 2,22,-1
 672 922 l 1,23,-1
 120 922 l 1,24,-1
 128 979 l 2,25,26
 130 995 130 995 138.5 1013.5 c 128,-1,27
 147 1032 147 1032 165 1048 c 2,28,-1
 407 1261 l 2,29,30
 436 1286 436 1286 460.5 1312 c 128,-1,31
 485 1338 485 1338 503.5 1365.5 c 128,-1,32
 522 1393 522 1393 533 1420 c 128,-1,33
 544 1447 544 1447 544 1473 c 0,34,35
 544 1506 544 1506 525 1526 c 128,-1,36
 506 1546 506 1546 473 1546 c 0,37,38
 438 1546 438 1546 415 1527.5 c 128,-1,39
 392 1509 392 1509 373 1478 c 0,40,41
 362 1459 362 1459 348 1450 c 128,-1,42
 334 1441 334 1441 311 1441 c 0,43,44
 306 1441 306 1441 299.5 1441.5 c 128,-1,45
 293 1442 293 1442 286 1443 c 2,46,-1
 191 1458 l 1,47,48
 206 1516 206 1516 235.5 1559 c 128,-1,49
 265 1602 265 1602 305 1630.5 c 128,-1,50
 345 1659 345 1659 394.5 1673 c 128,-1,51
 444 1687 444 1687 500 1687 c 0,0,1
EndSplineSet
Validated: 1
EndChar

StartChar: threesuperior
Encoding: 179 179 117
Width: 681
GlyphClass: 1
Flags: W
LayerCount: 2
Fore
SplineSet
520 1687 m 0,0,1
 573 1687 573 1687 614.5 1672 c 128,-1,2
 656 1657 656 1657 684.5 1632.5 c 128,-1,3
 713 1608 713 1608 727 1575 c 128,-1,4
 741 1542 741 1542 741 1506 c 0,5,6
 741 1436 741 1436 711 1391 c 128,-1,7
 681 1346 681 1346 611 1321 c 1,8,9
 663 1303 663 1303 688.5 1269.5 c 128,-1,10
 714 1236 714 1236 714 1183 c 0,11,12
 714 1114 714 1114 687 1063.5 c 128,-1,13
 660 1013 660 1013 617 979.5 c 128,-1,14
 574 946 574 946 521 929.5 c 128,-1,15
 468 913 468 913 415 913 c 0,16,17
 360 913 360 913 317 924 c 128,-1,18
 274 935 274 935 243.5 959 c 128,-1,19
 213 983 213 983 192.5 1022 c 128,-1,20
 172 1061 172 1061 160 1117 c 1,21,-1
 241 1150 l 2,22,23
 259 1157 259 1157 280 1157 c 0,24,25
 318 1157 318 1157 329 1129 c 0,26,27
 333 1118 333 1118 339.5 1105.5 c 128,-1,28
 346 1093 346 1093 357 1082 c 128,-1,29
 368 1071 368 1071 384 1064.5 c 128,-1,30
 400 1058 400 1058 424 1058 c 0,31,32
 476 1058 476 1058 506.5 1089.5 c 128,-1,33
 537 1121 537 1121 537 1167 c 0,34,35
 537 1211 537 1211 505.5 1229 c 128,-1,36
 474 1247 474 1247 395 1247 c 1,37,-1
 411 1369 l 1,38,39
 498 1370 498 1370 533 1393.5 c 128,-1,40
 568 1417 568 1417 568 1473 c 0,41,42
 568 1506 568 1506 549 1524.5 c 128,-1,43
 530 1543 530 1543 494 1543 c 0,44,45
 455 1543 455 1543 431.5 1526 c 128,-1,46
 408 1509 408 1509 393 1480 c 0,47,48
 380 1460 380 1460 367.5 1450.5 c 128,-1,49
 355 1441 355 1441 335 1441 c 0,50,51
 330 1441 330 1441 323.5 1441.5 c 128,-1,52
 317 1442 317 1442 310 1443 c 2,53,-1
 221 1458 l 1,54,55
 236 1516 236 1516 265.5 1559 c 128,-1,56
 295 1602 295 1602 334.5 1630.5 c 128,-1,57
 374 1659 374 1659 421 1673 c 128,-1,58
 468 1687 468 1687 520 1687 c 0,0,1
EndSplineSet
Validated: 1
EndChar

StartChar: acute
Encoding: 180 180 118
Width: 605
GlyphClass: 1
Flags: W
LayerCount: 2
Fore
SplineSet
760 1496 m 1,0,-1
 492 1229 l 2,1,2
 472 1209 472 1209 453 1201.5 c 128,-1,3
 434 1194 434 1194 407 1194 c 2,4,-1
 261 1194 l 1,5,-1
 425 1443 l 2,6,7
 442 1470 442 1470 463 1483 c 128,-1,8
 484 1496 484 1496 523 1496 c 2,9,-1
 760 1496 l 1,0,-1
EndSplineSet
Validated: 1
Substitution2: "'case' Case-Sensitive Forms in Latin lookup 0 subtable" acute.case
EndChar

StartChar: mu
Encoding: 181 181 119
Width: 1075
GlyphClass: 1
Flags: W
LayerCount: 2
Fore
SplineSet
415 1050 m 1,0,1
 393 875 393 875 377.5 754 c 128,-1,2
 362 633 362 633 352.5 554 c 128,-1,3
 343 475 343 475 338 431.5 c 128,-1,4
 333 388 333 388 330.5 367 c 128,-1,5
 328 346 328 346 327.5 341 c 128,-1,6
 327 336 327 336 327 334 c 0,7,8
 327 258 327 258 361 216.5 c 128,-1,9
 395 175 395 175 464 175 c 0,10,11
 521 175 521 175 575 203 c 128,-1,12
 629 231 629 231 681 282 c 1,13,-1
 777 1050 l 1,14,-1
 1020 1050 l 1,15,-1
 891 0 l 1,16,-1
 741 0 l 2,17,18
 695 0 695 0 686 45 c 1,19,-1
 679 128 l 1,20,21
 646 97 646 97 616.5 75 c 128,-1,22
 587 53 587 53 556.5 39.5 c 128,-1,23
 526 26 526 26 494.5 19.5 c 128,-1,24
 463 13 463 13 428 13 c 0,25,26
 376 13 376 13 334.5 30 c 128,-1,27
 293 47 293 47 263 79 c 1,28,29
 265 65 265 65 265 51.5 c 128,-1,30
 265 38 265 38 265 24 c 0,31,32
 265 -6 265 -6 263 -36 c 128,-1,33
 261 -66 261 -66 258 -92 c 2,34,-1
 227 -345 l 1,35,-1
 106 -345 l 2,36,37
 60 -345 60 -345 35 -323 c 128,-1,38
 10 -301 10 -301 10 -260 c 0,39,40
 10 -256 10 -256 10 -252 c 128,-1,41
 10 -248 10 -248 11 -243 c 2,42,-1
 171 1050 l 1,43,-1
 415 1050 l 1,0,1
EndSplineSet
Validated: 1
EndChar

StartChar: paragraph
Encoding: 182 182 120
Width: 1434
GlyphClass: 1
Flags: W
LayerCount: 2
Fore
SplineSet
1522 1481 m 1,0,-1
 1496 1269 l 1,1,-1
 1276 1269 l 1,2,-1
 1094 -214 l 1,3,-1
 873 -214 l 1,4,-1
 1055 1269 l 1,5,-1
 814 1269 l 1,6,-1
 633 -214 l 1,7,-1
 412 -214 l 1,8,-1
 517 645 l 1,9,10
 421 645 421 645 343 672 c 128,-1,11
 265 699 265 699 211 748.5 c 128,-1,12
 157 798 157 798 127 865.5 c 128,-1,13
 97 933 97 933 97 1014 c 0,14,15
 97 1109 97 1109 135 1194 c 128,-1,16
 173 1279 173 1279 241.5 1343 c 128,-1,17
 310 1407 310 1407 406.5 1444 c 128,-1,18
 503 1481 503 1481 620 1481 c 2,19,-1
 1522 1481 l 1,0,-1
EndSplineSet
Validated: 1
EndChar

StartChar: periodcentered
Encoding: 183 183 121
Width: 572
GlyphClass: 1
Flags: W
LayerCount: 2
Fore
SplineSet
114 609 m 256,0,1
 114 649 114 649 129 684.5 c 128,-1,2
 144 720 144 720 170.5 746 c 128,-1,3
 197 772 197 772 231.5 787 c 128,-1,4
 266 802 266 802 306 802 c 0,5,6
 347 802 347 802 382.5 787 c 128,-1,7
 418 772 418 772 444 746 c 128,-1,8
 470 720 470 720 485.5 684.5 c 128,-1,9
 501 649 501 649 501 609 c 256,10,11
 501 569 501 569 485.5 535 c 128,-1,12
 470 501 470 501 444 475 c 128,-1,13
 418 449 418 449 382.5 434 c 128,-1,14
 347 419 347 419 306 419 c 0,15,16
 266 419 266 419 231.5 434 c 128,-1,17
 197 449 197 449 170.5 475 c 128,-1,18
 144 501 144 501 129 535 c 128,-1,19
 114 569 114 569 114 609 c 256,0,1
EndSplineSet
Validated: 1
EndChar

StartChar: cedilla
Encoding: 184 184 122
Width: 605
GlyphClass: 1
Flags: W
LayerCount: 2
Fore
SplineSet
85 -236 m 0,0,1
 92 -236 92 -236 98.5 -238.5 c 128,-1,2
 105 -241 105 -241 113.5 -244 c 128,-1,3
 122 -247 122 -247 132 -249.5 c 128,-1,4
 142 -252 142 -252 157 -252 c 0,5,6
 189 -252 189 -252 205 -236 c 128,-1,7
 221 -220 221 -220 221 -199 c 0,8,9
 221 -172 221 -172 190.5 -159 c 128,-1,10
 160 -146 160 -146 93 -137 c 1,11,-1
 154 14 l 1,12,-1
 306 14 l 1,13,-1
 278 -59 l 1,14,15
 353 -78 353 -78 383.5 -112.5 c 128,-1,16
 414 -147 414 -147 414 -191 c 0,17,18
 414 -230 414 -230 395 -261 c 128,-1,19
 376 -292 376 -292 342 -313.5 c 128,-1,20
 308 -335 308 -335 261.5 -346 c 128,-1,21
 215 -357 215 -357 160 -357 c 0,22,23
 121 -357 121 -357 88 -351 c 128,-1,24
 55 -345 55 -345 23 -333 c 1,25,-1
 56 -257 l 2,26,27
 65 -236 65 -236 85 -236 c 0,0,1
EndSplineSet
Validated: 1
EndChar

StartChar: onesuperior
Encoding: 185 185 123
Width: 681
GlyphClass: 1
Flags: W
LayerCount: 2
Fore
SplineSet
239 1049 m 1,0,-1
 381 1049 l 1,1,-1
 425 1414 l 1,2,-1
 436 1464 l 1,3,-1
 346 1399 l 2,4,5
 336 1392 336 1392 326.5 1389 c 128,-1,6
 317 1386 317 1386 309 1386 c 0,7,8
 295 1386 295 1386 284.5 1392.5 c 128,-1,9
 274 1399 274 1399 269 1406 c 2,10,-1
 224 1482 l 1,11,-1
 485 1679 l 1,12,-1
 633 1679 l 1,13,-1
 555 1049 l 1,14,-1
 660 1049 l 1,15,-1
 645 922 l 1,16,-1
 222 922 l 1,17,-1
 239 1049 l 1,0,-1
EndSplineSet
Validated: 1
EndChar

StartChar: ordmasculine
Encoding: 186 186 124
Width: 734
GlyphClass: 1
Flags: W
LayerCount: 2
Fore
SplineSet
490 1498 m 0,0,1
 552 1498 552 1498 602.5 1478.5 c 128,-1,2
 653 1459 653 1459 688.5 1422.5 c 128,-1,3
 724 1386 724 1386 743.5 1335 c 128,-1,4
 763 1284 763 1284 763 1222 c 0,5,6
 763 1136 763 1136 736.5 1067 c 128,-1,7
 710 998 710 998 663 949.5 c 128,-1,8
 616 901 616 901 551.5 875 c 128,-1,9
 487 849 487 849 412 849 c 0,10,11
 349 849 349 849 297.5 868.5 c 128,-1,12
 246 888 246 888 210 924.5 c 128,-1,13
 174 961 174 961 154.5 1012.5 c 128,-1,14
 135 1064 135 1064 135 1128 c 0,15,16
 135 1213 135 1213 161.5 1281.5 c 128,-1,17
 188 1350 188 1350 236 1398 c 128,-1,18
 284 1446 284 1446 348.5 1472 c 128,-1,19
 413 1498 413 1498 490 1498 c 0,0,1
429 991 m 0,20,21
 506 991 506 991 539.5 1052 c 128,-1,22
 573 1113 573 1113 573 1222 c 0,23,24
 573 1287 573 1287 548 1321.5 c 128,-1,25
 523 1356 523 1356 473 1356 c 0,26,27
 429 1356 429 1356 400.5 1339 c 128,-1,28
 372 1322 372 1322 355 1292 c 128,-1,29
 338 1262 338 1262 331.5 1219.5 c 128,-1,30
 325 1177 325 1177 325 1125 c 0,31,32
 325 1059 325 1059 350.5 1025 c 128,-1,33
 376 991 376 991 429 991 c 0,20,21
EndSplineSet
Validated: 1
EndChar

StartChar: guillemotright
Encoding: 187 187 125
Width: 943
GlyphClass: 1
Flags: W
LayerCount: 2
Fore
SplineSet
516 565 m 1,0,-1
 513 535 l 1,1,-1
 221 129 l 1,2,-1
 146 166 l 2,3,4
 114 181 114 181 115 212 c 0,5,6
 115 235 115 235 132 263 c 2,7,-1
 291 508 l 2,8,9
 299 520 299 520 308 531 c 128,-1,10
 317 542 317 542 327 549 c 1,11,12
 310 565 310 565 301 592 c 2,13,-1
 202 837 l 2,14,15
 196 853 196 853 196 869 c 0,16,17
 196 911 196 911 241 932 c 2,18,-1
 325 970 l 1,19,-1
 516 565 l 1,0,-1
833 565 m 1,20,-1
 829 535 l 1,21,-1
 538 129 l 1,22,-1
 463 166 l 2,23,24
 431 181 431 181 431 212 c 0,25,26
 431 235 431 235 449 263 c 2,27,-1
 607 508 l 2,28,29
 615 520 615 520 624.5 531 c 128,-1,30
 634 542 634 542 643 549 c 1,31,32
 626 565 626 565 617 592 c 2,33,-1
 518 837 l 2,34,35
 512 853 512 853 512 869 c 0,36,37
 512 911 512 911 557 932 c 2,38,-1
 641 970 l 1,39,-1
 833 565 l 1,20,-1
EndSplineSet
Validated: 1
EndChar

StartChar: onequarter
Encoding: 188 188 126
Width: 1510
GlyphClass: 1
Flags: W
LayerCount: 2
Fore
SplineSet
471 73 m 2,0,1
 441 30 441 30 409 15 c 128,-1,2
 377 0 377 0 338 0 c 2,3,-1
 238 0 l 1,4,-1
 1198 1396 l 2,5,6
 1227 1437 1227 1437 1260.5 1458.5 c 128,-1,7
 1294 1480 1294 1480 1339 1480 c 2,8,-1
 1440 1480 l 1,9,-1
 471 73 l 2,0,1
1332 302 m 1,10,-1
 1430 302 l 1,11,-1
 1418 200 l 2,12,13
 1416 188 1416 188 1406.5 177.5 c 128,-1,14
 1397 167 1397 167 1380 167 c 2,15,-1
 1316 167 l 1,16,-1
 1295 0 l 1,17,-1
 1148 0 l 1,18,-1
 1168 167 l 1,19,-1
 871 167 l 2,20,21
 847 167 847 167 835 177.5 c 128,-1,22
 823 188 823 188 822 204 c 2,23,-1
 815 291 l 1,24,-1
 1220 757 l 1,25,-1
 1389 757 l 1,26,-1
 1332 302 l 1,10,-1
201 850 m 1,27,-1
 343 850 l 1,28,-1
 386 1209 l 2,29,30
 388 1226 388 1226 390.5 1238.5 c 128,-1,31
 393 1251 393 1251 398 1266 c 1,32,-1
 308 1200 l 2,33,34
 292 1188 292 1188 272 1188 c 0,35,36
 258 1188 258 1188 247 1195 c 128,-1,37
 236 1202 236 1202 228 1213 c 2,38,-1
 186 1283 l 1,39,-1
 447 1481 l 1,40,-1
 595 1481 l 1,41,-1
 517 850 l 1,42,-1
 623 850 l 1,43,-1
 607 723 l 1,44,-1
 184 723 l 1,45,-1
 201 850 l 1,27,-1
1206 469 m 2,46,47
 1209 494 1209 494 1214.5 523 c 128,-1,48
 1220 552 1220 552 1228 583 c 1,49,-1
 990 302 l 1,50,-1
 1186 302 l 1,51,-1
 1206 469 l 2,46,47
EndSplineSet
Validated: 1
EndChar

StartChar: onehalf
Encoding: 189 189 127
Width: 1510
GlyphClass: 1
Flags: W
LayerCount: 2
Fore
SplineSet
437 73 m 2,0,1
 407 30 407 30 375 15 c 128,-1,2
 343 0 343 0 304 0 c 2,3,-1
 204 0 l 1,4,-1
 1164 1396 l 2,5,6
 1193 1437 1193 1437 1227 1458.5 c 128,-1,7
 1261 1480 1261 1480 1306 1480 c 2,8,-1
 1406 1480 l 1,9,-1
 437 73 l 2,0,1
1198 765 m 0,10,11
 1252 765 1252 765 1293.5 750 c 128,-1,12
 1335 735 1335 735 1363.5 709 c 128,-1,13
 1392 683 1392 683 1406 647 c 128,-1,14
 1420 611 1420 611 1420 569 c 0,15,16
 1420 522 1420 522 1405 483 c 128,-1,17
 1390 444 1390 444 1363.5 410 c 128,-1,18
 1337 376 1337 376 1303.5 344 c 128,-1,19
 1270 312 1270 312 1233 280 c 2,20,-1
 1078 139 l 1,21,22
 1108 147 1108 147 1136.5 152.5 c 128,-1,23
 1165 158 1165 158 1189 158 c 2,24,-1
 1330 158 l 2,25,26
 1382 158 1382 158 1382 113 c 0,27,28
 1382 111 1382 111 1379 83 c 2,29,-1
 1370 0 l 1,30,-1
 818 0 l 1,31,-1
 826 57 l 2,32,33
 828 73 828 73 837 92 c 128,-1,34
 846 111 846 111 863 126 c 2,35,-1
 1105 339 l 2,36,37
 1134 364 1134 364 1159 390.5 c 128,-1,38
 1184 417 1184 417 1202.5 444 c 128,-1,39
 1221 471 1221 471 1231.5 498 c 128,-1,40
 1242 525 1242 525 1242 551 c 0,41,42
 1242 584 1242 584 1223 604.5 c 128,-1,43
 1204 625 1204 625 1171 625 c 0,44,45
 1136 625 1136 625 1112.5 606.5 c 128,-1,46
 1089 588 1089 588 1071 556 c 0,47,48
 1061 537 1061 537 1047 528 c 128,-1,49
 1033 519 1033 519 1011 519 c 0,50,51
 1001 519 1001 519 979 522 c 2,52,-1
 890 537 l 1,53,54
 905 595 905 595 934.5 637.5 c 128,-1,55
 964 680 964 680 1003.5 708.5 c 128,-1,56
 1043 737 1043 737 1092.5 751 c 128,-1,57
 1142 765 1142 765 1198 765 c 0,10,11
208 850 m 1,58,-1
 350 850 l 1,59,-1
 393 1209 l 2,60,61
 395 1226 395 1226 397.5 1238.5 c 128,-1,62
 400 1251 400 1251 406 1266 c 1,63,-1
 315 1200 l 2,64,65
 299 1188 299 1188 280 1188 c 0,66,67
 266 1188 266 1188 254.5 1195 c 128,-1,68
 243 1202 243 1202 236 1213 c 2,69,-1
 194 1283 l 1,70,-1
 455 1481 l 1,71,-1
 602 1481 l 1,72,-1
 524 850 l 1,73,-1
 630 850 l 1,74,-1
 614 723 l 1,75,-1
 191 723 l 1,76,-1
 208 850 l 1,58,-1
EndSplineSet
Validated: 1
EndChar

StartChar: threequarters
Encoding: 190 190 128
Width: 1510
GlyphClass: 1
Flags: W
LayerCount: 2
Fore
SplineSet
487 73 m 2,0,1
 457 30 457 30 425 15 c 128,-1,2
 393 0 393 0 354 0 c 2,3,-1
 254 0 l 1,4,-1
 1214 1396 l 2,5,6
 1243 1437 1243 1437 1277 1458.5 c 128,-1,7
 1311 1480 1311 1480 1356 1480 c 2,8,-1
 1456 1480 l 1,9,-1
 487 73 l 2,0,1
1345 302 m 1,10,-1
 1442 302 l 1,11,-1
 1431 200 l 2,12,13
 1429 188 1429 188 1419 177.5 c 128,-1,14
 1409 167 1409 167 1393 167 c 2,15,-1
 1328 167 l 1,16,-1
 1308 0 l 1,17,-1
 1160 0 l 1,18,-1
 1181 167 l 1,19,-1
 884 167 l 2,20,21
 860 167 860 167 848 177.5 c 128,-1,22
 836 188 836 188 835 204 c 2,23,-1
 827 291 l 1,24,-1
 1232 757 l 1,25,-1
 1401 757 l 1,26,-1
 1345 302 l 1,10,-1
497 1488 m 0,27,28
 550 1488 550 1488 591.5 1473 c 128,-1,29
 633 1458 633 1458 661 1433.5 c 128,-1,30
 689 1409 689 1409 703.5 1376 c 128,-1,31
 718 1343 718 1343 718 1308 c 0,32,33
 718 1238 718 1238 687.5 1192.5 c 128,-1,34
 657 1147 657 1147 588 1122 c 1,35,36
 640 1104 640 1104 665 1070.5 c 128,-1,37
 690 1037 690 1037 690 984 c 0,38,39
 690 915 690 915 663.5 864.5 c 128,-1,40
 637 814 637 814 594 781 c 128,-1,41
 551 748 551 748 497.5 731.5 c 128,-1,42
 444 715 444 715 391 715 c 0,43,44
 336 715 336 715 293.5 725.5 c 128,-1,45
 251 736 251 736 220 760 c 128,-1,46
 189 784 189 784 168.5 823 c 128,-1,47
 148 862 148 862 136 919 c 1,48,-1
 217 951 l 2,49,50
 239 959 239 959 256 959 c 0,51,52
 294 959 294 959 305 931 c 0,53,54
 316 901 316 901 337 880 c 128,-1,55
 358 859 358 859 400 859 c 0,56,57
 452 859 452 859 482.5 891 c 128,-1,58
 513 923 513 923 513 969 c 0,59,60
 513 1013 513 1013 482 1031 c 128,-1,61
 451 1049 451 1049 372 1049 c 1,62,-1
 387 1170 l 1,63,64
 474 1171 474 1171 509.5 1195 c 128,-1,65
 545 1219 545 1219 545 1274 c 0,66,67
 545 1307 545 1307 526 1326 c 128,-1,68
 507 1345 507 1345 470 1345 c 0,69,70
 431 1345 431 1345 407.5 1327.5 c 128,-1,71
 384 1310 384 1310 370 1281 c 0,72,73
 360 1261 360 1261 346.5 1251.5 c 128,-1,74
 333 1242 333 1242 312 1242 c 0,75,76
 307 1242 307 1242 299 1242.5 c 128,-1,77
 291 1243 291 1243 274 1246 c 2,78,-1
 198 1260 l 1,79,80
 213 1318 213 1318 242 1360.5 c 128,-1,81
 271 1403 271 1403 310.5 1431.5 c 128,-1,82
 350 1460 350 1460 397.5 1474 c 128,-1,83
 445 1488 445 1488 497 1488 c 0,27,28
1219 469 m 2,84,85
 1222 494 1222 494 1227 523 c 128,-1,86
 1232 552 1232 552 1240 583 c 1,87,-1
 1002 302 l 1,88,-1
 1198 302 l 1,89,-1
 1219 469 l 2,84,85
EndSplineSet
Validated: 1
EndChar

StartChar: questiondown
Encoding: 191 191 129
Width: 798
GlyphClass: 1
Flags: W
LayerCount: 2
Fore
SplineSet
692 -210 m 1,0,1
 655 -240 655 -240 613.5 -267 c 128,-1,2
 572 -294 572 -294 524.5 -314.5 c 128,-1,3
 477 -335 477 -335 424 -347 c 128,-1,4
 371 -359 371 -359 309 -359 c 0,5,6
 233 -359 233 -359 172.5 -338.5 c 128,-1,7
 112 -318 112 -318 69 -280 c 128,-1,8
 26 -242 26 -242 3 -186.5 c 128,-1,9
 -20 -131 -20 -131 -20 -62 c 0,10,11
 -20 20 -20 20 3.5 78 c 128,-1,12
 27 136 27 136 62 178 c 128,-1,13
 97 220 97 220 140 251 c 128,-1,14
 183 282 183 282 222.5 308.5 c 128,-1,15
 262 335 262 335 292 362 c 128,-1,16
 322 389 322 389 332 425 c 2,17,-1
 374 575 l 1,18,-1
 540 575 l 1,19,-1
 540 408 l 2,20,21
 540 362 540 362 516.5 327 c 128,-1,22
 493 292 493 292 457.5 261.5 c 128,-1,23
 422 231 422 231 381 203 c 128,-1,24
 340 175 340 175 304.5 143.5 c 128,-1,25
 269 112 269 112 245.5 73 c 128,-1,26
 222 34 222 34 222 -17 c 0,27,28
 222 -53 222 -53 233 -80.5 c 128,-1,29
 244 -108 244 -108 262 -126 c 128,-1,30
 280 -144 280 -144 304 -153.5 c 128,-1,31
 328 -163 328 -163 355 -163 c 0,32,33
 407 -163 407 -163 445.5 -149.5 c 128,-1,34
 484 -136 484 -136 512 -120 c 128,-1,35
 540 -104 540 -104 559.5 -91 c 128,-1,36
 579 -78 579 -78 594 -78 c 0,37,38
 628 -78 628 -78 640 -106 c 2,39,-1
 692 -210 l 1,0,1
336 913 m 0,40,41
 336 945 336 945 347.5 973.5 c 128,-1,42
 359 1002 359 1002 379.5 1022.5 c 128,-1,43
 400 1043 400 1043 429 1055.5 c 128,-1,44
 458 1068 458 1068 490 1068 c 256,45,46
 523 1068 523 1068 551.5 1055.5 c 128,-1,47
 580 1043 580 1043 601 1022.5 c 128,-1,48
 622 1002 622 1002 634 973.5 c 128,-1,49
 646 945 646 945 646 913 c 0,50,51
 646 880 646 880 634 852 c 128,-1,52
 622 824 622 824 601 803.5 c 128,-1,53
 580 783 580 783 551.5 771.5 c 128,-1,54
 523 760 523 760 490 760 c 256,55,56
 457 760 457 760 428.5 771.5 c 128,-1,57
 400 783 400 783 379.5 803.5 c 128,-1,58
 359 824 359 824 347.5 852 c 128,-1,59
 336 880 336 880 336 913 c 0,40,41
EndSplineSet
Validated: 1
EndChar

StartChar: AE
Encoding: 198 198 136
Width: 1752
GlyphClass: 1
Flags: W
LayerCount: 2
Fore
SplineSet
761 1481 m 1,0,-1
 1792 1481 l 1,1,-1
 1766 1269 l 1,2,-1
 1108 1269 l 1,3,-1
 1108 847 l 1,4,-1
 1586 847 l 1,5,-1
 1561 643 l 1,6,-1
 1108 643 l 1,7,-1
 1108 212 l 1,8,-1
 1636 212 l 1,9,-1
 1610 0 l 1,10,-1
 857 0 l 1,11,-1
 857 370 l 1,12,-1
 379 370 l 1,13,-1
 210 60 l 2,14,15
 197 36 197 36 169.5 18 c 128,-1,16
 142 0 142 0 110 0 c 2,17,-1
 -97 0 l 1,18,-1
 761 1481 l 1,0,-1
481 557 m 1,19,-1
 857 557 l 1,20,-1
 857 1264 l 1,21,22
 839 1218 839 1218 820.5 1178.5 c 128,-1,23
 802 1139 802 1139 781 1104 c 2,24,-1
 481 557 l 1,19,-1
EndSplineSet
Validated: 1
EndChar

StartChar: Ccedilla
Encoding: 199 199 137
Width: 1235
GlyphClass: 1
Flags: W
LayerCount: 2
Fore
SplineSet
508 -236 m 0,0,1
 515 -236 515 -236 521.5 -238.5 c 128,-1,2
 528 -241 528 -241 536.5 -244 c 128,-1,3
 545 -247 545 -247 555 -249.5 c 128,-1,4
 565 -252 565 -252 580 -252 c 0,5,6
 612 -252 612 -252 628 -236 c 128,-1,7
 644 -220 644 -220 644 -199 c 0,8,9
 644 -172 644 -172 613.5 -159 c 128,-1,10
 583 -146 583 -146 516 -137 c 1,11,-1
 566 -11 l 1,12,13
 449 3 449 3 357.5 56.5 c 128,-1,14
 266 110 266 110 203.5 194.5 c 128,-1,15
 141 279 141 279 108.5 389.5 c 128,-1,16
 76 500 76 500 76 628 c 256,17,18
 76 756 76 756 103.5 870 c 128,-1,19
 131 984 131 984 182 1081 c 128,-1,20
 233 1178 233 1178 305 1254.5 c 128,-1,21
 377 1331 377 1331 464 1385.5 c 128,-1,22
 551 1440 551 1440 652 1468.5 c 128,-1,23
 753 1497 753 1497 862 1497 c 0,24,25
 943 1497 943 1497 1009.5 1482 c 128,-1,26
 1076 1467 1076 1467 1130.5 1440.5 c 128,-1,27
 1185 1414 1185 1414 1228 1376.5 c 128,-1,28
 1271 1339 1271 1339 1306 1293 c 1,29,-1
 1213 1183 l 2,30,31
 1203 1171 1203 1171 1189.5 1161.5 c 128,-1,32
 1176 1152 1176 1152 1155 1152 c 0,33,34
 1132 1152 1132 1152 1112 1170.5 c 128,-1,35
 1092 1189 1092 1189 1060.5 1211 c 128,-1,36
 1029 1233 1029 1233 979.5 1251.5 c 128,-1,37
 930 1270 930 1270 849 1270 c 0,38,39
 743 1270 743 1270 651.5 1226.5 c 128,-1,40
 560 1183 560 1183 492.5 1102 c 128,-1,41
 425 1021 425 1021 386.5 907 c 128,-1,42
 348 793 348 793 348 650 c 0,43,44
 348 547 348 547 374 465 c 128,-1,45
 400 383 400 383 446.5 326 c 128,-1,46
 493 269 493 269 556.5 239 c 128,-1,47
 620 209 620 209 694 209 c 0,48,49
 756 209 756 209 803 218.5 c 128,-1,50
 850 228 850 228 884.5 243.5 c 128,-1,51
 919 259 919 259 943.5 276 c 128,-1,52
 968 293 968 293 986.5 308.5 c 128,-1,53
 1005 324 1005 324 1019 333.5 c 128,-1,54
 1033 343 1033 343 1048 343 c 0,55,56
 1060 343 1060 343 1068 338 c 128,-1,57
 1076 333 1076 333 1081 328 c 2,58,-1
 1175 212 l 1,59,60
 1088 113 1088 113 975 55.5 c 128,-1,61
 862 -2 862 -2 718 -13 c 1,62,-1
 700 -59 l 1,63,64
 775 -78 775 -78 806 -112.5 c 128,-1,65
 837 -147 837 -147 837 -191 c 0,66,67
 837 -230 837 -230 818 -261 c 128,-1,68
 799 -292 799 -292 765 -313.5 c 128,-1,69
 731 -335 731 -335 684.5 -346 c 128,-1,70
 638 -357 638 -357 583 -357 c 0,71,72
 544 -357 544 -357 511 -351 c 128,-1,73
 478 -345 478 -345 445 -333 c 1,74,-1
 479 -257 l 2,75,76
 488 -236 488 -236 508 -236 c 0,0,1
EndSplineSet
Validated: 1
EndChar

StartChar: Eth
Encoding: 208 208 146
Width: 1489
GlyphClass: 1
Flags: W
LayerCount: 2
Fore
SplineSet
90 820 m 1,0,-1
 256 820 l 1,1,-1
 337 1481 l 1,2,-1
 859 1481 l 2,3,4
 1000 1481 1000 1481 1113.5 1432.5 c 128,-1,5
 1227 1384 1227 1384 1306 1299 c 128,-1,6
 1385 1214 1385 1214 1427 1096.5 c 128,-1,7
 1469 979 1469 979 1469 840 c 0,8,9
 1469 656 1469 656 1410 501 c 128,-1,10
 1351 346 1351 346 1245.5 235 c 128,-1,11
 1140 124 1140 124 995 62 c 128,-1,12
 850 0 850 0 679 0 c 2,13,-1
 157 0 l 1,14,-1
 238 669 l 1,15,-1
 70 669 l 1,16,-1
 90 820 l 1,0,-1
1197 834 m 0,17,18
 1197 933 1197 933 1172.5 1014 c 128,-1,19
 1148 1095 1148 1095 1101.5 1151.5 c 128,-1,20
 1055 1208 1055 1208 987.5 1239 c 128,-1,21
 920 1270 920 1270 834 1270 c 2,22,-1
 579 1270 l 1,23,-1
 523 820 l 1,24,-1
 860 820 l 1,25,-1
 843 669 l 1,26,-1
 505 669 l 1,27,-1
 450 212 l 1,28,-1
 705 212 l 2,29,30
 817 212 817 212 907.5 255 c 128,-1,31
 998 298 998 298 1062.5 378.5 c 128,-1,32
 1127 459 1127 459 1162 574.5 c 128,-1,33
 1197 690 1197 690 1197 834 c 0,17,18
EndSplineSet
Validated: 1
EndChar

StartChar: multiply
Encoding: 215 215 153
Width: 1187
GlyphClass: 1
Flags: W
LayerCount: 2
Fore
SplineSet
1120 1023 m 1,0,-1
 743 688 l 1,1,-1
 1051 338 l 1,2,-1
 907 210 l 1,3,-1
 599 560 l 1,4,-1
 204 208 l 1,5,-1
 91 336 l 1,6,-1
 486 688 l 1,7,-1
 191 1025 l 1,8,-1
 336 1153 l 1,9,-1
 631 816 l 1,10,-1
 1007 1151 l 1,11,-1
 1120 1023 l 1,0,-1
EndSplineSet
Validated: 1
EndChar

StartChar: Oslash
Encoding: 216 216 154
Width: 1499
GlyphClass: 1
Flags: W
LayerCount: 2
Fore
SplineSet
1481 840 m 0,0,1
 1481 717 1481 717 1453.5 606 c 128,-1,2
 1426 495 1426 495 1375.5 399.5 c 128,-1,3
 1325 304 1325 304 1254 227.5 c 128,-1,4
 1183 151 1183 151 1094.5 96.5 c 128,-1,5
 1006 42 1006 42 902.5 13 c 128,-1,6
 799 -16 799 -16 685 -16 c 0,7,8
 592 -16 592 -16 513 5.5 c 128,-1,9
 434 27 434 27 367 66 c 1,10,-1
 282 -42 l 2,11,12
 249 -83 249 -83 207 -98.5 c 128,-1,13
 165 -114 165 -114 127 -114 c 2,14,-1
 23 -114 l 1,15,-1
 244 166 l 1,16,17
 162 255 162 255 119 376 c 128,-1,18
 76 497 76 497 76 640 c 0,19,20
 76 763 76 763 103 874 c 128,-1,21
 130 985 130 985 180.5 1080.5 c 128,-1,22
 231 1176 231 1176 302.5 1252.5 c 128,-1,23
 374 1329 374 1329 462.5 1384 c 128,-1,24
 551 1439 551 1439 654.5 1468 c 128,-1,25
 758 1497 758 1497 872 1497 c 0,26,27
 973 1497 973 1497 1059.5 1471 c 128,-1,28
 1146 1445 1146 1445 1217 1397 c 1,29,-1
 1283 1481 l 2,30,31
 1297 1499 1297 1499 1309.5 1511.5 c 128,-1,32
 1322 1524 1322 1524 1335 1531.5 c 128,-1,33
 1348 1539 1348 1539 1363.5 1542.5 c 128,-1,34
 1379 1546 1379 1546 1401 1546 c 2,35,-1
 1537 1546 l 1,36,-1
 1333 1289 l 1,37,38
 1405 1201 1405 1201 1443 1087 c 128,-1,39
 1481 973 1481 973 1481 840 c 0,0,1
348 646 m 0,40,41
 348 565 348 565 364 497.5 c 128,-1,42
 380 430 380 430 410 376 c 1,43,-1
 1064 1203 l 1,44,45
 1019 1239 1019 1239 963 1258.5 c 128,-1,46
 907 1278 907 1278 840 1278 c 0,47,48
 729 1278 729 1278 638.5 1233 c 128,-1,49
 548 1188 548 1188 483.5 1105 c 128,-1,50
 419 1022 419 1022 383.5 905 c 128,-1,51
 348 788 348 788 348 646 c 0,40,41
1208 834 m 0,52,53
 1208 903 1208 903 1196.5 962.5 c 128,-1,54
 1185 1022 1185 1022 1162 1072 c 1,55,-1
 518 257 l 1,56,57
 601 204 601 204 715 204 c 0,58,59
 827 204 827 204 918 249 c 128,-1,60
 1009 294 1009 294 1073.5 376 c 128,-1,61
 1138 458 1138 458 1173 574.5 c 128,-1,62
 1208 691 1208 691 1208 834 c 0,52,53
EndSplineSet
Validated: 1
EndChar

StartChar: Thorn
Encoding: 222 222 160
Width: 1182
GlyphClass: 1
Flags: W
LayerCount: 2
Fore
SplineSet
556 1223 m 1,0,-1
 742 1223 l 2,1,2
 866 1223 866 1223 957 1192.5 c 128,-1,3
 1048 1162 1048 1162 1106.5 1108.5 c 128,-1,4
 1165 1055 1165 1055 1193.5 980.5 c 128,-1,5
 1222 906 1222 906 1222 818 c 0,6,7
 1222 698 1222 698 1184.5 598 c 128,-1,8
 1147 498 1147 498 1071.5 424.5 c 128,-1,9
 996 351 996 351 884 310 c 128,-1,10
 772 269 772 269 624 269 c 2,11,-1
 437 269 l 1,12,-1
 404 0 l 1,13,-1
 140 0 l 1,14,-1
 322 1481 l 1,15,-1
 588 1481 l 1,16,-1
 556 1223 l 1,0,-1
530 1017 m 1,17,-1
 463 475 l 1,18,-1
 650 475 l 2,19,20
 729 475 729 475 786.5 498.5 c 128,-1,21
 844 522 844 522 881.5 564.5 c 128,-1,22
 919 607 919 607 936.5 666 c 128,-1,23
 954 725 954 725 954 796 c 0,24,25
 954 846 954 846 940 887 c 128,-1,26
 926 928 926 928 896 956.5 c 128,-1,27
 866 985 866 985 821.5 1001 c 128,-1,28
 777 1017 777 1017 716 1017 c 2,29,-1
 530 1017 l 1,17,-1
EndSplineSet
Validated: 1
EndChar

StartChar: germandbls
Encoding: 223 223 161
Width: 1185
GlyphClass: 1
Flags: W
LayerCount: 2
Fore
SplineSet
776 1505 m 0,0,1
 880 1505 880 1505 951.5 1474 c 128,-1,2
 1023 1443 1023 1443 1067.5 1396.5 c 128,-1,3
 1112 1350 1112 1350 1131.5 1294 c 128,-1,4
 1151 1238 1151 1238 1151 1189 c 0,5,6
 1151 1121 1151 1121 1129 1073.5 c 128,-1,7
 1107 1026 1107 1026 1074.5 991 c 128,-1,8
 1042 956 1042 956 1004 931 c 128,-1,9
 966 906 966 906 933.5 882.5 c 128,-1,10
 901 859 901 859 879 834 c 128,-1,11
 857 809 857 809 857 775 c 0,12,13
 857 744 857 744 877.5 721 c 128,-1,14
 898 698 898 698 928.5 676.5 c 128,-1,15
 959 655 959 655 995.5 631 c 128,-1,16
 1032 607 1032 607 1063 573.5 c 128,-1,17
 1094 540 1094 540 1114.5 493 c 128,-1,18
 1135 446 1135 446 1135 381 c 0,19,20
 1135 284 1135 284 1099.5 210 c 128,-1,21
 1064 136 1064 136 1005.5 85.5 c 128,-1,22
 947 35 947 35 871.5 9.5 c 128,-1,23
 796 -16 796 -16 715 -16 c 0,24,25
 672 -16 672 -16 630.5 -6.5 c 128,-1,26
 589 3 589 3 551.5 20.5 c 128,-1,27
 514 38 514 38 482 61.5 c 128,-1,28
 450 85 450 85 424 113 c 1,29,-1
 493 206 l 2,30,31
 504 221 504 221 520.5 230.5 c 128,-1,32
 537 240 537 240 559 240 c 256,33,34
 581 240 581 240 599 226.5 c 128,-1,35
 617 213 617 213 638.5 196.5 c 128,-1,36
 660 180 660 180 688 167 c 128,-1,37
 716 154 716 154 757 154 c 0,38,39
 787 154 787 154 813.5 166 c 128,-1,40
 840 178 840 178 859.5 200 c 128,-1,41
 879 222 879 222 890 252 c 128,-1,42
 901 282 901 282 901 315 c 0,43,44
 901 357 901 357 878.5 386.5 c 128,-1,45
 856 416 856 416 821.5 439.5 c 128,-1,46
 787 463 787 463 748 485 c 128,-1,47
 709 507 709 507 674.5 536 c 128,-1,48
 640 565 640 565 617.5 604.5 c 128,-1,49
 595 644 595 644 595 703 c 0,50,51
 595 772 595 772 618.5 819.5 c 128,-1,52
 642 867 642 867 678 902.5 c 128,-1,53
 714 938 714 938 755 966.5 c 128,-1,54
 796 995 796 995 831.5 1025.5 c 128,-1,55
 867 1056 867 1056 890.5 1092 c 128,-1,56
 914 1128 914 1128 914 1181 c 0,57,58
 914 1210 914 1210 904.5 1237 c 128,-1,59
 895 1264 895 1264 874.5 1284 c 128,-1,60
 854 1304 854 1304 822 1316 c 128,-1,61
 790 1328 790 1328 743 1328 c 0,62,63
 682 1328 682 1328 632 1293 c 128,-1,64
 582 1258 582 1258 544.5 1200.5 c 128,-1,65
 507 1143 507 1143 482.5 1068 c 128,-1,66
 458 993 458 993 449 913 c 2,67,-1
 343 43 l 1,68,-1
 291 -150 l 2,69,70
 277 -200 277 -200 246.5 -226.5 c 128,-1,71
 216 -253 216 -253 161 -253 c 2,72,-1
 59 -253 l 1,73,-1
 195 861 l 1,74,-1
 101 878 l 2,75,76
 74 883 74 883 60 895 c 128,-1,77
 46 907 46 907 46 930 c 2,78,-1
 57 1038 l 1,79,-1
 227 1038 l 1,80,81
 255 1130 255 1130 306.5 1214.5 c 128,-1,82
 358 1299 358 1299 429 1363.5 c 128,-1,83
 500 1428 500 1428 587.5 1466.5 c 128,-1,84
 675 1505 675 1505 776 1505 c 0,0,1
EndSplineSet
Validated: 1
EndChar

StartChar: ae
Encoding: 230 230 168
Width: 1495
GlyphClass: 1
Flags: W
LayerCount: 2
Fore
SplineSet
1146 1066 m 0,0,1
 1212 1066 1212 1066 1268 1045 c 128,-1,2
 1324 1024 1324 1024 1365.5 987 c 128,-1,3
 1407 950 1407 950 1430.5 901 c 128,-1,4
 1454 852 1454 852 1454 797 c 0,5,6
 1454 759 1454 759 1443.5 720.5 c 128,-1,7
 1433 682 1433 682 1406.5 646.5 c 128,-1,8
 1380 611 1380 611 1336 580 c 128,-1,9
 1292 549 1292 549 1225 525 c 128,-1,10
 1158 501 1158 501 1065 485.5 c 128,-1,11
 972 470 972 470 849 467 c 1,12,13
 849 317 849 317 904 248.5 c 128,-1,14
 959 180 959 180 1059 180 c 0,15,16
 1128 180 1128 180 1171.5 198 c 128,-1,17
 1215 216 1215 216 1247 237.5 c 128,-1,18
 1279 259 1279 259 1304 277 c 128,-1,19
 1329 295 1329 295 1359 295 c 0,20,21
 1371 295 1371 295 1383.5 289.5 c 128,-1,22
 1396 284 1396 284 1404 272 c 2,23,-1
 1468 195 l 1,24,25
 1414 141 1414 141 1362.5 100.5 c 128,-1,26
 1311 60 1311 60 1256 34.5 c 128,-1,27
 1201 9 1201 9 1140.5 -3 c 128,-1,28
 1080 -15 1080 -15 1009 -15 c 0,29,30
 910 -15 910 -15 827.5 35 c 128,-1,31
 745 85 745 85 698 189 c 1,32,33
 663 135 663 135 618.5 96 c 128,-1,34
 574 57 574 57 524.5 32 c 128,-1,35
 475 7 475 7 422.5 -4.5 c 128,-1,36
 370 -16 370 -16 319 -16 c 0,37,38
 167 -16 167 -16 91 49 c 128,-1,39
 15 114 15 114 15 237 c 0,40,41
 15 306 15 306 45 372 c 128,-1,42
 75 438 75 438 146.5 492 c 128,-1,43
 218 546 218 546 338 581 c 128,-1,44
 458 616 458 616 637 622 c 1,45,46
 642 668 642 668 643.5 687 c 128,-1,47
 645 706 645 706 645 718 c 0,48,49
 645 798 645 798 611.5 836 c 128,-1,50
 578 874 578 874 512 874 c 0,51,52
 457 874 457 874 418.5 859.5 c 128,-1,53
 380 845 380 845 349.5 827.5 c 128,-1,54
 319 810 319 810 294 795 c 128,-1,55
 269 780 269 780 240 780 c 0,56,57
 215 780 215 780 198.5 792.5 c 128,-1,58
 182 805 182 805 174 824 c 2,59,-1
 140 903 l 1,60,61
 233 986 233 986 330.5 1027.5 c 128,-1,62
 428 1069 428 1069 540 1069 c 0,63,64
 648 1069 648 1069 711.5 1026.5 c 128,-1,65
 775 984 775 984 804 909 c 1,66,67
 867 983 867 983 952.5 1024.5 c 128,-1,68
 1038 1066 1038 1066 1146 1066 c 0,0,1
617 472 m 1,69,70
 509 467 509 467 439 450 c 128,-1,71
 369 433 369 433 327 406 c 128,-1,72
 285 379 285 379 268 343.5 c 128,-1,73
 251 308 251 308 251 267 c 0,74,75
 251 209 251 209 281 180 c 128,-1,76
 311 151 311 151 367 151 c 0,77,78
 412 151 412 151 453 166.5 c 128,-1,79
 494 182 494 182 526 216 c 128,-1,80
 558 250 558 250 580.5 301.5 c 128,-1,81
 603 353 603 353 612 425 c 2,82,-1
 617 472 l 1,69,70
1114 890 m 0,83,84
 1061 890 1061 890 1019 870 c 128,-1,85
 977 850 977 850 945 813.5 c 128,-1,86
 913 777 913 777 892 726 c 128,-1,87
 871 675 871 675 860 611 c 1,88,89
 975 620 975 620 1047.5 637 c 128,-1,90
 1120 654 1120 654 1161.5 676.5 c 128,-1,91
 1203 699 1203 699 1218.5 727 c 128,-1,92
 1234 755 1234 755 1234 784 c 0,93,94
 1234 830 1234 830 1204.5 860 c 128,-1,95
 1175 890 1175 890 1114 890 c 0,83,84
EndSplineSet
Validated: 1
EndChar

StartChar: ccedilla
Encoding: 231 231 169
Width: 891
GlyphClass: 1
Flags: W
LayerCount: 2
Fore
SplineSet
294 -236 m 0,0,1
 301 -236 301 -236 307.5 -238.5 c 128,-1,2
 314 -241 314 -241 322.5 -244 c 128,-1,3
 331 -247 331 -247 341 -249.5 c 128,-1,4
 351 -252 351 -252 366 -252 c 0,5,6
 398 -252 398 -252 414 -236 c 128,-1,7
 430 -220 430 -220 430 -199 c 0,8,9
 430 -172 430 -172 399.5 -159 c 128,-1,10
 369 -146 369 -146 302 -137 c 1,11,-1
 353 -7 l 1,12,13
 281 6 281 6 225 42.5 c 128,-1,14
 169 79 169 79 130.5 134 c 128,-1,15
 92 189 92 189 71.5 262.5 c 128,-1,16
 51 336 51 336 51 423 c 0,17,18
 51 551 51 551 92 667 c 128,-1,19
 133 783 133 783 207 872 c 128,-1,20
 281 961 281 961 382 1013.5 c 128,-1,21
 483 1066 483 1066 603 1066 c 0,22,23
 707 1066 707 1066 780.5 1029 c 128,-1,24
 854 992 854 992 911 919 c 1,25,-1
 830 822 l 2,26,27
 822 812 822 812 810 805 c 128,-1,28
 798 798 798 798 783 798 c 0,29,30
 766 798 766 798 751.5 808.5 c 128,-1,31
 737 819 737 819 718 831.5 c 128,-1,32
 699 844 699 844 671 854.5 c 128,-1,33
 643 865 643 865 598 865 c 0,34,35
 540 865 540 865 486.5 833.5 c 128,-1,36
 433 802 433 802 392.5 743.5 c 128,-1,37
 352 685 352 685 328 603 c 128,-1,38
 304 521 304 521 304 422 c 0,39,40
 304 306 304 306 355.5 243 c 128,-1,41
 407 180 407 180 494 180 c 0,42,43
 552 180 552 180 590.5 197 c 128,-1,44
 629 214 629 214 655.5 234 c 128,-1,45
 682 254 682 254 703 271 c 128,-1,46
 724 288 724 288 749 288 c 0,47,48
 776 288 776 288 794 264 c 2,49,-1
 858 186 l 1,50,51
 813 136 813 136 771.5 101 c 128,-1,52
 730 66 730 66 687.5 42 c 128,-1,53
 645 18 645 18 600.5 5 c 128,-1,54
 556 -8 556 -8 505 -12 c 1,55,-1
 486 -59 l 1,56,57
 561 -78 561 -78 592 -112.5 c 128,-1,58
 623 -147 623 -147 623 -191 c 0,59,60
 623 -230 623 -230 604 -261 c 128,-1,61
 585 -292 585 -292 551 -313.5 c 128,-1,62
 517 -335 517 -335 470.5 -346 c 128,-1,63
 424 -357 424 -357 369 -357 c 0,64,65
 330 -357 330 -357 297 -351 c 128,-1,66
 264 -345 264 -345 231 -333 c 1,67,-1
 265 -257 l 2,68,69
 274 -236 274 -236 294 -236 c 0,0,1
EndSplineSet
Validated: 1
EndChar

StartChar: eth
Encoding: 240 240 178
Width: 1070
GlyphClass: 1
Flags: W
LayerCount: 2
Fore
SplineSet
440 1085 m 2,0,1
 433 1096 433 1096 433 1110 c 0,2,3
 433 1135 433 1135 455 1148 c 2,4,-1
 573 1225 l 1,5,6
 504 1261 504 1261 419 1286 c 0,7,8
 369 1302 369 1302 369 1340 c 0,9,10
 369 1360 369 1360 381 1385 c 2,11,-1
 418 1463 l 1,12,13
 514 1446 514 1446 601 1412 c 128,-1,14
 688 1378 688 1378 762 1325 c 1,15,-1
 950 1442 l 1,16,-1
 991 1362 l 2,17,18
 998 1348 998 1348 998 1335 c 0,19,20
 998 1310 998 1310 973 1293 c 2,21,-1
 868 1227 l 1,22,23
 945 1140 945 1140 988 1020 c 128,-1,24
 1031 900 1031 900 1031 743 c 0,25,26
 1031 569 1031 569 992.5 429 c 128,-1,27
 954 289 954 289 881 190 c 128,-1,28
 808 91 808 91 701 38 c 128,-1,29
 594 -15 594 -15 458 -15 c 0,30,31
 369 -15 369 -15 294 14.5 c 128,-1,32
 219 44 219 44 165.5 100 c 128,-1,33
 112 156 112 156 81.5 235.5 c 128,-1,34
 51 315 51 315 51 415 c 0,35,36
 51 525 51 525 88.5 622.5 c 128,-1,37
 126 720 126 720 192 793.5 c 128,-1,38
 258 867 258 867 348 910 c 128,-1,39
 438 953 438 953 545 953 c 0,40,41
 641 953 641 953 714 914.5 c 128,-1,42
 787 876 787 876 837 799 c 1,43,44
 832 911 832 911 799 994 c 128,-1,45
 766 1077 766 1077 698 1141 c 1,46,-1
 486 1005 l 1,47,-1
 440 1085 l 2,0,1
487 171 m 0,48,49
 539 171 539 171 587 192 c 128,-1,50
 635 213 635 213 674.5 261 c 128,-1,51
 714 309 714 309 743.5 387 c 128,-1,52
 773 465 773 465 790 579 c 1,53,54
 780 617 780 617 762 651.5 c 128,-1,55
 744 686 744 686 718 711.5 c 128,-1,56
 692 737 692 737 656 752.5 c 128,-1,57
 620 768 620 768 571 768 c 0,58,59
 506 768 506 768 454.5 741.5 c 128,-1,60
 403 715 403 715 367.5 669 c 128,-1,61
 332 623 332 623 313 560.5 c 128,-1,62
 294 498 294 498 294 426 c 0,63,64
 294 366 294 366 308.5 318 c 128,-1,65
 323 270 323 270 348.5 237.5 c 128,-1,66
 374 205 374 205 409.5 188 c 128,-1,67
 445 171 445 171 487 171 c 0,48,49
EndSplineSet
Validated: 1
EndChar

StartChar: divide
Encoding: 247 247 185
Width: 1187
GlyphClass: 1
Flags: W
LayerCount: 2
Fore
SplineSet
129 778 m 1,0,-1
 1126 778 l 1,1,-1
 1104 597 l 1,2,-1
 106 597 l 1,3,-1
 129 778 l 1,0,-1
508 1034 m 0,4,5
 508 1069 508 1069 522 1099.5 c 128,-1,6
 536 1130 536 1130 559 1153.5 c 128,-1,7
 582 1177 582 1177 613 1190 c 128,-1,8
 644 1203 644 1203 679 1203 c 0,9,10
 708 1203 708 1203 733 1192.5 c 128,-1,11
 758 1182 758 1182 775.5 1163.5 c 128,-1,12
 793 1145 793 1145 803 1120.5 c 128,-1,13
 813 1096 813 1096 813 1067 c 0,14,15
 813 1031 813 1031 799 1001 c 128,-1,16
 785 971 785 971 761 949 c 128,-1,17
 737 927 737 927 706.5 914 c 128,-1,18
 676 901 676 901 642 901 c 0,19,20
 612 901 612 901 587 911.5 c 128,-1,21
 562 922 562 922 544.5 939.5 c 128,-1,22
 527 957 527 957 517.5 981.5 c 128,-1,23
 508 1006 508 1006 508 1034 c 0,4,5
418 305 m 0,24,25
 418 340 418 340 431.5 370.5 c 128,-1,26
 445 401 445 401 468.5 424 c 128,-1,27
 492 447 492 447 523 460.5 c 128,-1,28
 554 474 554 474 589 474 c 0,29,30
 618 474 618 474 643 463.5 c 128,-1,31
 668 453 668 453 685 434.5 c 128,-1,32
 702 416 702 416 712.5 391.5 c 128,-1,33
 723 367 723 367 723 338 c 0,34,35
 723 302 723 302 709 272 c 128,-1,36
 695 242 695 242 671 220 c 128,-1,37
 647 198 647 198 616.5 185 c 128,-1,38
 586 172 586 172 552 172 c 0,39,40
 522 172 522 172 497 182.5 c 128,-1,41
 472 193 472 193 454.5 210.5 c 128,-1,42
 437 228 437 228 427.5 252.5 c 128,-1,43
 418 277 418 277 418 305 c 0,24,25
EndSplineSet
Validated: 1
EndChar

StartChar: oslash
Encoding: 248 248 186
Width: 1044
GlyphClass: 1
Flags: W
LayerCount: 2
Fore
SplineSet
449 -15 m 0,0,1
 329 -15 329 -15 239 37 c 1,2,-1
 228 24 l 2,3,4
 198 -17 198 -17 157.5 -33.5 c 128,-1,5
 117 -50 117 -50 77 -50 c 2,6,-1
 -16 -50 l 1,7,-1
 124 141 l 1,8,9
 85 195 85 195 64.5 266 c 128,-1,10
 44 337 44 337 44 425 c 0,11,12
 44 561 44 561 87.5 679 c 128,-1,13
 131 797 131 797 206.5 883 c 128,-1,14
 282 969 282 969 382 1018 c 128,-1,15
 482 1067 482 1067 596 1067 c 0,16,17
 715 1067 715 1067 807 1014 c 1,18,-1
 820 1032 l 2,19,20
 833 1050 833 1050 845 1063 c 128,-1,21
 857 1076 857 1076 869.5 1084.5 c 128,-1,22
 882 1093 882 1093 897 1096.5 c 128,-1,23
 912 1100 912 1100 935 1100 c 2,24,-1
 1060 1100 l 1,25,-1
 921 909 l 1,26,27
 960 855 960 855 980.5 784.5 c 128,-1,28
 1001 714 1001 714 1001 627 c 0,29,30
 1001 492 1001 492 957 374.5 c 128,-1,31
 913 257 913 257 838 170.5 c 128,-1,32
 763 84 763 84 663 34.5 c 128,-1,33
 563 -15 563 -15 449 -15 c 0,0,1
281 427 m 0,34,35
 281 378 281 378 289 334 c 1,36,-1
 671 860 l 1,37,38
 628 889 628 889 573 889 c 0,39,40
 510 889 510 889 456 855 c 128,-1,41
 402 821 402 821 363.5 760 c 128,-1,42
 325 699 325 699 303 614 c 128,-1,43
 281 529 281 529 281 427 c 0,34,35
471 163 m 0,44,45
 534 163 534 163 588 197 c 128,-1,46
 642 231 642 231 681 292.5 c 128,-1,47
 720 354 720 354 742 438.5 c 128,-1,48
 764 523 764 523 764 625 c 0,49,50
 764 650 764 650 762 672 c 128,-1,51
 760 694 760 694 756 715 c 1,52,-1
 374 190 l 1,53,54
 415 163 415 163 471 163 c 0,44,45
EndSplineSet
Validated: 1
EndChar

StartChar: thorn
Encoding: 254 254 192
Width: 1094
GlyphClass: 1
Flags: W
LayerCount: 2
Fore
SplineSet
19 -343 m 1,0,-1
 247 1522 l 1,1,-1
 496 1522 l 1,2,-1
 412 844 l 1,3,4
 486 947 486 947 576.5 1007 c 128,-1,5
 667 1067 667 1067 769 1067 c 0,6,7
 835 1067 835 1067 888 1043 c 128,-1,8
 941 1019 941 1019 979 971 c 128,-1,9
 1017 923 1017 923 1037.5 849 c 128,-1,10
 1058 775 1058 775 1058 676 c 0,11,12
 1058 587 1058 587 1039.5 501 c 128,-1,13
 1021 415 1021 415 987 338 c 128,-1,14
 953 261 953 261 906.5 196.5 c 128,-1,15
 860 132 860 132 802.5 85 c 128,-1,16
 745 38 745 38 680 11.5 c 128,-1,17
 615 -15 615 -15 546 -15 c 0,18,19
 475 -15 475 -15 417.5 10 c 128,-1,20
 360 35 360 35 317 80 c 1,21,-1
 276 -259 l 2,22,23
 272 -292 272 -292 245.5 -317.5 c 128,-1,24
 219 -343 219 -343 176 -343 c 2,25,-1
 19 -343 l 1,0,-1
670 868 m 0,26,27
 629 868 629 868 586.5 840 c 128,-1,28
 544 812 544 812 504 763 c 128,-1,29
 464 714 464 714 429 647 c 128,-1,30
 394 580 394 580 370 503 c 1,31,-1
 338 245 l 1,32,33
 373 208 373 208 418 192.5 c 128,-1,34
 463 177 463 177 507 177 c 0,35,36
 575 177 575 177 630 219 c 128,-1,37
 685 261 685 261 724.5 328.5 c 128,-1,38
 764 396 764 396 785.5 480.5 c 128,-1,39
 807 565 807 565 807 650 c 0,40,41
 807 761 807 761 771 814.5 c 128,-1,42
 735 868 735 868 670 868 c 0,26,27
EndSplineSet
Validated: 1
EndChar

StartChar: Aogonek
Encoding: 260 260 194
Width: 1313
GlyphClass: 1
Flags: W
LayerCount: 2
Fore
SplineSet
1243 -195 m 0,0,1
 1261 -195 1261 -195 1265 -211 c 2,2,-1
 1289 -301 l 1,3,4
 1256 -324 1256 -324 1207 -338.5 c 128,-1,5
 1158 -353 1158 -353 1106 -353 c 0,6,7
 1019 -353 1019 -353 974 -315.5 c 128,-1,8
 929 -278 929 -278 929 -219 c 0,9,10
 929 -158 929 -158 970 -102 c 128,-1,11
 1011 -46 1011 -46 1087 0 c 1,12,-1
 1061 0 l 2,13,14
 1026 0 1026 0 1005.5 16.5 c 128,-1,15
 985 33 985 33 980 60 c 2,16,-1
 919 370 l 1,17,-1
 367 370 l 1,18,-1
 229 60 l 2,19,20
 218 36 218 36 192.5 18 c 128,-1,21
 167 0 167 0 135 0 c 2,22,-1
 -74 0 l 1,23,-1
 642 1481 l 1,24,-1
 913 1481 l 1,25,-1
 1267 0 l 1,26,-1
 1233 0 l 1,27,28
 1211 -11 1211 -11 1190 -27 c 128,-1,29
 1169 -43 1169 -43 1153.5 -62.5 c 128,-1,30
 1138 -82 1138 -82 1127.5 -104.5 c 128,-1,31
 1117 -127 1117 -127 1117 -152 c 0,32,33
 1117 -179 1117 -179 1132 -195 c 128,-1,34
 1147 -211 1147 -211 1174 -211 c 0,35,36
 1191 -211 1191 -211 1202 -208.5 c 128,-1,37
 1213 -206 1213 -206 1221 -203 c 128,-1,38
 1229 -200 1229 -200 1233.5 -197.5 c 128,-1,39
 1238 -195 1238 -195 1243 -195 c 0,0,1
450 557 m 1,40,-1
 881 557 l 1,41,-1
 780 1064 l 2,42,43
 774 1097 774 1097 765 1140 c 128,-1,44
 756 1183 756 1183 749 1234 c 1,45,46
 730 1183 730 1183 710.5 1139.5 c 128,-1,47
 691 1096 691 1096 675 1063 c 2,48,-1
 450 557 l 1,40,-1
EndSplineSet
Validated: 1
EndChar

StartChar: aogonek
Encoding: 261 261 195
Width: 1068
GlyphClass: 1
Flags: W
LayerCount: 2
Fore
SplineSet
865 -195 m 0,0,1
 883 -195 883 -195 887 -211 c 2,2,-1
 911 -301 l 1,3,4
 878 -324 878 -324 829 -338.5 c 128,-1,5
 780 -353 780 -353 728 -353 c 0,6,7
 641 -353 641 -353 596 -315.5 c 128,-1,8
 551 -278 551 -278 551 -219 c 0,9,10
 551 -158 551 -158 593 -100.5 c 128,-1,11
 635 -43 635 -43 715 3 c 1,12,13
 685 11 685 11 674 32.5 c 128,-1,14
 663 54 663 54 663 84 c 2,15,-1
 671 219 l 1,16,17
 601 110 601 110 514 47.5 c 128,-1,18
 427 -15 427 -15 323 -15 c 0,19,20
 264 -15 264 -15 212 8.5 c 128,-1,21
 160 32 160 32 121.5 78.5 c 128,-1,22
 83 125 83 125 61 195 c 128,-1,23
 39 265 39 265 39 359 c 256,24,25
 39 453 39 453 62.5 542.5 c 128,-1,26
 86 632 86 632 129.5 710 c 128,-1,27
 173 788 173 788 234.5 854 c 128,-1,28
 296 920 296 920 372.5 967 c 128,-1,29
 449 1014 449 1014 537.5 1040 c 128,-1,30
 626 1066 626 1066 724 1066 c 0,31,32
 795 1066 795 1066 866 1056 c 128,-1,33
 937 1046 937 1046 1006 1019 c 1,34,-1
 879 0 l 1,35,-1
 855 0 l 1,36,37
 833 -11 833 -11 812.5 -27 c 128,-1,38
 792 -43 792 -43 776 -62.5 c 128,-1,39
 760 -82 760 -82 749.5 -104.5 c 128,-1,40
 739 -127 739 -127 739 -152 c 0,41,42
 739 -179 739 -179 754 -195 c 128,-1,43
 769 -211 769 -211 796 -211 c 0,44,45
 813 -211 813 -211 824.5 -208.5 c 128,-1,46
 836 -206 836 -206 843.5 -203 c 128,-1,47
 851 -200 851 -200 855.5 -197.5 c 128,-1,48
 860 -195 860 -195 865 -195 c 0,0,1
422 191 m 0,49,50
 464 191 464 191 504.5 220 c 128,-1,51
 545 249 545 249 580.5 299.5 c 128,-1,52
 616 350 616 350 647 418.5 c 128,-1,53
 678 487 678 487 700 566 c 1,54,-1
 740 884 l 1,55,56
 712 887 712 887 689 887 c 0,57,58
 604 887 604 887 531.5 848 c 128,-1,59
 459 809 459 809 405.5 743 c 128,-1,60
 352 677 352 677 322 589.5 c 128,-1,61
 292 502 292 502 292 404 c 0,62,63
 292 293 292 293 327 242 c 128,-1,64
 362 191 362 191 422 191 c 0,49,50
EndSplineSet
Validated: 1
EndChar

StartChar: Eogonek
Encoding: 280 280 198
Width: 1076
GlyphClass: 1
Flags: W
LayerCount: 2
Fore
SplineSet
843 -195 m 0,0,1
 861 -195 861 -195 864 -211 c 2,2,-1
 889 -301 l 1,3,4
 856 -324 856 -324 807 -338.5 c 128,-1,5
 758 -353 758 -353 706 -353 c 0,6,7
 619 -353 619 -353 573.5 -315.5 c 128,-1,8
 528 -278 528 -278 528 -219 c 0,9,10
 528 -158 528 -158 569 -102 c 128,-1,11
 610 -46 610 -46 687 0 c 1,12,-1
 72 0 l 1,13,-1
 254 1481 l 1,14,-1
 1117 1481 l 1,15,-1
 1091 1269 l 1,16,-1
 495 1269 l 1,17,-1
 443 848 l 1,18,-1
 911 848 l 1,19,-1
 886 644 l 1,20,-1
 418 644 l 1,21,-1
 365 212 l 1,22,-1
 963 212 l 1,23,-1
 936 0 l 1,24,-1
 833 0 l 1,25,26
 811 -11 811 -11 790 -27 c 128,-1,27
 769 -43 769 -43 753 -62.5 c 128,-1,28
 737 -82 737 -82 727 -104.5 c 128,-1,29
 717 -127 717 -127 717 -152 c 0,30,31
 717 -179 717 -179 731.5 -195 c 128,-1,32
 746 -211 746 -211 773 -211 c 0,33,34
 790 -211 790 -211 801.5 -208.5 c 128,-1,35
 813 -206 813 -206 820.5 -203 c 128,-1,36
 828 -200 828 -200 833 -197.5 c 128,-1,37
 838 -195 838 -195 843 -195 c 0,0,1
EndSplineSet
Validated: 1
EndChar

StartChar: eogonek
Encoding: 281 281 199
Width: 968
GlyphClass: 1
Flags: W
LayerCount: 2
Fore
SplineSet
604 -195 m 0,0,1
 622 -195 622 -195 626 -211 c 2,2,-1
 650 -301 l 1,3,4
 617 -324 617 -324 568 -338.5 c 128,-1,5
 519 -353 519 -353 467 -353 c 0,6,7
 380 -353 380 -353 335 -315.5 c 128,-1,8
 290 -278 290 -278 290 -219 c 0,9,10
 290 -163 290 -163 324.5 -110.5 c 128,-1,11
 359 -58 359 -58 426 -14 c 1,12,13
 341 -9 341 -9 271.5 24 c 128,-1,14
 202 57 202 57 152.5 113.5 c 128,-1,15
 103 170 103 170 76.5 248 c 128,-1,16
 50 326 50 326 50 421 c 0,17,18
 50 504 50 504 68 584 c 128,-1,19
 86 664 86 664 120 735.5 c 128,-1,20
 154 807 154 807 203 867.5 c 128,-1,21
 252 928 252 928 314 972 c 128,-1,22
 376 1016 376 1016 450 1040.5 c 128,-1,23
 524 1065 524 1065 609 1065 c 0,24,25
 692 1065 692 1065 754 1041.5 c 128,-1,26
 816 1018 816 1018 857.5 980.5 c 128,-1,27
 899 943 899 943 919.5 897 c 128,-1,28
 940 851 940 851 940 807 c 0,29,30
 940 736 940 736 912 678 c 128,-1,31
 884 620 884 620 811 573.5 c 128,-1,32
 738 527 738 527 613.5 494 c 128,-1,33
 489 461 489 461 297 441 c 1,34,-1
 297 428 l 2,35,36
 297 180 297 180 507 180 c 0,37,38
 552 180 552 180 587 189 c 128,-1,39
 622 198 622 198 648 210 c 128,-1,40
 674 222 674 222 695 237.5 c 128,-1,41
 716 253 716 253 734 265.5 c 128,-1,42
 752 278 752 278 769 286.5 c 128,-1,43
 786 295 786 295 807 295 c 0,44,45
 819 295 819 295 831 289 c 128,-1,46
 843 283 843 283 852 272 c 2,47,-1
 916 195 l 1,48,49
 834 113 834 113 756.5 64 c 128,-1,50
 679 15 679 15 588 -3 c 1,51,52
 568 -14 568 -14 547.5 -30 c 128,-1,53
 527 -46 527 -46 512 -65 c 128,-1,54
 497 -84 497 -84 487.5 -105.5 c 128,-1,55
 478 -127 478 -127 478 -152 c 0,56,57
 478 -179 478 -179 493 -195 c 128,-1,58
 508 -211 508 -211 535 -211 c 0,59,60
 552 -211 552 -211 563 -208.5 c 128,-1,61
 574 -206 574 -206 582 -203 c 128,-1,62
 590 -200 590 -200 594.5 -197.5 c 128,-1,63
 599 -195 599 -195 604 -195 c 0,0,1
595 889 m 0,64,65
 544 889 544 889 500 868 c 128,-1,66
 456 847 456 847 420.5 809 c 128,-1,67
 385 771 385 771 359 718.5 c 128,-1,68
 333 666 333 666 317 603 c 1,69,70
 444 620 444 620 521.5 641 c 128,-1,71
 599 662 599 662 641.5 686.5 c 128,-1,72
 684 711 684 711 698 738.5 c 128,-1,73
 712 766 712 766 712 798 c 0,74,75
 712 813 712 813 705 829.5 c 128,-1,76
 698 846 698 846 684.5 858.5 c 128,-1,77
 671 871 671 871 649 880 c 128,-1,78
 627 889 627 889 595 889 c 0,64,65
EndSplineSet
Validated: 1
EndChar

StartChar: dotlessi
Encoding: 305 305 200
Width: 527
GlyphClass: 1
Flags: W
LayerCount: 2
Fore
SplineSet
452 1051 m 1,0,-1
 326 0 l 1,1,-1
 76 0 l 1,2,-1
 202 1051 l 1,3,-1
 452 1051 l 1,0,-1
EndSplineSet
Validated: 1
EndChar

StartChar: Lslash
Encoding: 321 321 201
Width: 1040
GlyphClass: 1
Flags: W
LayerCount: 2
Fore
SplineSet
512 893 m 1,0,-1
 855 1068 l 1,1,-1
 833 890 l 2,2,3
 831 871 831 871 820.5 858 c 128,-1,4
 810 845 810 845 794 837 c 2,5,-1
 484 672 l 1,6,-1
 429 220 l 1,7,-1
 968 220 l 1,8,-1
 942 0 l 1,9,-1
 137 0 l 1,10,-1
 204 546 l 1,11,-1
 11 452 l 1,12,-1
 35 633 l 2,13,14
 39 667 39 667 70 682 c 2,15,-1
 230 764 l 1,16,-1
 319 1481 l 1,17,-1
 585 1481 l 1,18,-1
 512 893 l 1,0,-1
EndSplineSet
Validated: 1
EndChar

StartChar: lslash
Encoding: 322 322 202
Width: 649
GlyphClass: 1
Flags: W
LayerCount: 2
Fore
SplineSet
74 755 m 2,0,1
 74 791 74 791 104 804 c 2,2,-1
 241 861 l 1,3,-1
 321 1522 l 1,4,-1
 569 1522 l 1,5,-1
 500 953 l 1,6,-1
 660 1019 l 1,7,-1
 660 873 l 2,8,9
 660 833 660 833 626 818 c 2,10,-1
 476 754 l 1,11,-1
 385 0 l 1,12,-1
 136 0 l 1,13,-1
 216 663 l 1,14,-1
 74 605 l 1,15,-1
 74 755 l 2,0,1
EndSplineSet
Validated: 1
EndChar

StartChar: OE
Encoding: 338 338 205
Width: 2027
GlyphClass: 1
Flags: W
LayerCount: 2
Fore
SplineSet
2068 1481 m 1,0,-1
 2042 1269 l 1,1,-1
 1447 1269 l 1,2,-1
 1395 847 l 1,3,-1
 1862 847 l 1,4,-1
 1837 643 l 1,5,-1
 1370 643 l 1,6,-1
 1318 212 l 1,7,-1
 1912 212 l 1,8,-1
 1886 0 l 1,9,-1
 1055 0 l 1,10,-1
 1076 177 l 1,11,12
 986 85 986 85 870 35 c 128,-1,13
 754 -15 754 -15 616 -15 c 0,14,15
 490 -15 490 -15 390 34 c 128,-1,16
 290 83 290 83 220.5 169 c 128,-1,17
 151 255 151 255 113.5 373.5 c 128,-1,18
 76 492 76 492 76 630 c 0,19,20
 76 754 76 754 101 866.5 c 128,-1,21
 126 979 126 979 171.5 1075 c 128,-1,22
 217 1171 217 1171 282.5 1249 c 128,-1,23
 348 1327 348 1327 428.5 1382.5 c 128,-1,24
 509 1438 509 1438 603 1467.5 c 128,-1,25
 697 1497 697 1497 801 1497 c 0,26,27
 939 1497 939 1497 1042 1438 c 128,-1,28
 1145 1379 1145 1379 1211 1277 c 1,29,-1
 1237 1481 l 1,30,-1
 2068 1481 l 1,0,-1
1121 844 m 0,31,32
 1121 942 1121 942 1100 1023.5 c 128,-1,33
 1079 1105 1079 1105 1038.5 1163.5 c 128,-1,34
 998 1222 998 1222 939 1254 c 128,-1,35
 880 1286 880 1286 803 1286 c 0,36,37
 700 1286 700 1286 616 1238.5 c 128,-1,38
 532 1191 532 1191 472.5 1105.5 c 128,-1,39
 413 1020 413 1020 380.5 900 c 128,-1,40
 348 780 348 780 348 636 c 0,41,42
 348 538 348 538 369 457 c 128,-1,43
 390 376 390 376 430.5 317.5 c 128,-1,44
 471 259 471 259 531 227.5 c 128,-1,45
 591 196 591 196 669 196 c 0,46,47
 771 196 771 196 854.5 243 c 128,-1,48
 938 290 938 290 997.5 375.5 c 128,-1,49
 1057 461 1057 461 1089 580.5 c 128,-1,50
 1121 700 1121 700 1121 844 c 0,31,32
EndSplineSet
Validated: 1
EndChar

StartChar: oe
Encoding: 339 339 206
Width: 1594
GlyphClass: 1
Flags: W
LayerCount: 2
Fore
SplineSet
1260 1066 m 0,0,1
 1330 1066 1330 1066 1386.5 1047 c 128,-1,2
 1443 1028 1443 1028 1483 993 c 128,-1,3
 1523 958 1523 958 1545 909.5 c 128,-1,4
 1567 861 1567 861 1567 803 c 0,5,6
 1567 735 1567 735 1538.5 677.5 c 128,-1,7
 1510 620 1510 620 1439.5 573.5 c 128,-1,8
 1369 527 1369 527 1247.5 494 c 128,-1,9
 1126 461 1126 461 940 442 c 1,10,11
 943 307 943 307 998.5 243.5 c 128,-1,12
 1054 180 1054 180 1150 180 c 0,13,14
 1219 180 1219 180 1263 198 c 128,-1,15
 1307 216 1307 216 1338 237.5 c 128,-1,16
 1369 259 1369 259 1394 277 c 128,-1,17
 1419 295 1419 295 1449 295 c 0,18,19
 1478 295 1478 295 1495 272 c 2,20,-1
 1560 195 l 1,21,22
 1506 141 1506 141 1454 100.5 c 128,-1,23
 1402 60 1402 60 1346.5 34.5 c 128,-1,24
 1291 9 1291 9 1230.5 -3 c 128,-1,25
 1170 -15 1170 -15 1100 -15 c 0,26,27
 1003 -15 1003 -15 921.5 34 c 128,-1,28
 840 83 840 83 794 183 c 1,29,30
 719 88 719 88 616 36.5 c 128,-1,31
 513 -15 513 -15 389 -15 c 0,32,33
 304 -15 304 -15 239 16 c 128,-1,34
 174 47 174 47 130 99.5 c 128,-1,35
 86 152 86 152 63.5 221.5 c 128,-1,36
 41 291 41 291 41 368 c 0,37,38
 41 539 41 539 87.5 669.5 c 128,-1,39
 134 800 134 800 212.5 888 c 128,-1,40
 291 976 291 976 393.5 1021 c 128,-1,41
 496 1066 496 1066 606 1066 c 0,42,43
 707 1066 707 1066 779.5 1023 c 128,-1,44
 852 980 852 980 894 903 c 1,45,46
 961 980 961 980 1052 1023 c 128,-1,47
 1143 1066 1143 1066 1260 1066 c 0,0,1
450 172 m 0,48,49
 508 172 508 172 552.5 195 c 128,-1,50
 597 218 597 218 630 256.5 c 128,-1,51
 663 295 663 295 684.5 345 c 128,-1,52
 706 395 706 395 719 449.5 c 128,-1,53
 732 504 732 504 737.5 558 c 128,-1,54
 743 612 743 612 743 660 c 0,55,56
 743 763 743 763 704 820.5 c 128,-1,57
 665 878 665 878 584 878 c 0,58,59
 514 878 514 878 459 842 c 128,-1,60
 404 806 404 806 366 741 c 128,-1,61
 328 676 328 676 307.5 584.5 c 128,-1,62
 287 493 287 493 287 381 c 0,63,64
 287 340 287 340 295 302 c 128,-1,65
 303 264 303 264 322.5 235.5 c 128,-1,66
 342 207 342 207 373.5 189.5 c 128,-1,67
 405 172 405 172 450 172 c 0,48,49
1220 891 m 0,68,69
 1120 891 1120 891 1047.5 815 c 128,-1,70
 975 739 975 739 950 596 c 1,71,72
 1074 612 1074 612 1153 634.5 c 128,-1,73
 1232 657 1232 657 1277 683 c 128,-1,74
 1322 709 1322 709 1339 737 c 128,-1,75
 1356 765 1356 765 1356 794 c 0,76,77
 1356 833 1356 833 1323.5 862 c 128,-1,78
 1291 891 1291 891 1220 891 c 0,68,69
EndSplineSet
Validated: 1
EndChar

StartChar: florin
Encoding: 402 402 218
Width: 1187
GlyphClass: 1
Flags: W
LayerCount: 2
Fore
SplineSet
752 766 m 1,0,-1
 579 55 l 2,1,2
 552 -53 552 -53 504.5 -130.5 c 128,-1,3
 457 -208 457 -208 384.5 -257.5 c 128,-1,4
 312 -307 312 -307 216 -330.5 c 128,-1,5
 120 -354 120 -354 -3 -354 c 1,6,-1
 13 -227 l 2,7,8
 22 -152 22 -152 98 -152 c 0,9,10
 99 -152 99 -152 100 -152 c 0,11,12
 142 -152 142 -152 179 -140.5 c 128,-1,13
 216 -129 216 -129 247 -103.5 c 128,-1,14
 278 -78 278 -78 301 -37.5 c 128,-1,15
 324 3 324 3 338 62 c 2,16,-1
 510 761 l 1,17,-1
 381 779 l 1,18,19
 333 790 333 790 333 829 c 0,20,21
 333 831 333 831 333.5 834.5 c 128,-1,22
 334 838 334 838 334 840 c 2,23,-1
 345 940 l 1,24,-1
 554 940 l 1,25,-1
 592 1095 l 2,26,27
 641 1299 641 1299 782.5 1402 c 128,-1,28
 924 1505 924 1505 1172 1505 c 1,29,-1
 1156 1371 l 2,30,31
 1151 1332 1151 1332 1130 1317 c 128,-1,32
 1109 1302 1109 1302 1069 1302 c 0,33,34
 1027 1302 1027 1302 989 1290.5 c 128,-1,35
 951 1279 951 1279 920 1253.5 c 128,-1,36
 889 1228 889 1228 865 1187 c 128,-1,37
 841 1146 841 1146 825 1087 c 2,38,-1
 787 940 l 1,39,-1
 1094 940 l 1,40,-1
 1072 766 l 1,41,-1
 752 766 l 1,0,-1
EndSplineSet
Validated: 1
EndChar

StartChar: circumflex
Encoding: 710 710 219
Width: 605
GlyphClass: 1
Flags: W
LayerCount: 2
Fore
SplineSet
719 1196 m 1,0,-1
 557 1196 l 2,1,2
 543 1196 543 1196 529.5 1201.5 c 128,-1,3
 516 1207 516 1207 510 1214 c 2,4,-1
 427 1316 l 2,5,6
 419 1324 419 1324 410 1336 c 1,7,8
 404 1330 404 1330 398 1325 c 128,-1,9
 392 1320 392 1320 387 1316 c 2,10,-1
 276 1214 l 2,11,12
 268 1207 268 1207 254.5 1201.5 c 128,-1,13
 241 1196 241 1196 225 1196 c 2,14,-1
 56 1196 l 1,15,-1
 308 1480 l 1,16,-1
 538 1480 l 1,17,-1
 719 1196 l 1,0,-1
EndSplineSet
Validated: 1
Substitution2: "'case' Case-Sensitive Forms in Latin lookup 0 subtable" circumflex.case
EndChar

StartChar: caron
Encoding: 711 711 220
Width: 605
GlyphClass: 1
Flags: W
LayerCount: 2
Fore
SplineSet
502 1196 m 1,0,-1
 273 1196 l 1,1,-1
 92 1480 l 1,2,-1
 260 1480 l 2,3,4
 274 1480 274 1480 287 1474 c 128,-1,5
 300 1468 300 1468 306 1461 c 2,6,-1
 390 1359 l 2,7,8
 398 1349 398 1349 408 1335 c 1,9,10
 414 1342 414 1342 420.5 1348 c 128,-1,11
 427 1354 427 1354 432 1359 c 2,12,-1
 541 1461 l 2,13,14
 548 1469 548 1469 562.5 1474.5 c 128,-1,15
 577 1480 577 1480 592 1480 c 2,16,-1
 754 1480 l 1,17,-1
 502 1196 l 1,0,-1
EndSplineSet
Validated: 1
Substitution2: "'case' Case-Sensitive Forms in Latin lookup 0 subtable" caron.case
EndChar

StartChar: breve
Encoding: 728 728 222
Width: 605
GlyphClass: 1
Flags: W
LayerCount: 2
Fore
SplineSet
389 1189 m 0,0,1
 317 1189 317 1189 268 1207 c 128,-1,2
 219 1225 219 1225 189 1256.5 c 128,-1,3
 159 1288 159 1288 145.5 1331 c 128,-1,4
 132 1374 132 1374 132 1423 c 0,5,6
 132 1437 132 1437 133 1451 c 128,-1,7
 134 1465 134 1465 136 1480 c 1,8,-1
 307 1480 l 1,9,10
 304 1458 304 1458 304 1440 c 0,11,12
 304 1394 304 1394 326.5 1368.5 c 128,-1,13
 349 1343 349 1343 409 1343 c 0,14,15
 445 1343 445 1343 469 1352.5 c 128,-1,16
 493 1362 493 1362 508.5 1380 c 128,-1,17
 524 1398 524 1398 532.5 1423 c 128,-1,18
 541 1448 541 1448 544 1480 c 1,19,-1
 714 1480 l 1,20,21
 707 1421 707 1421 686 1368 c 128,-1,22
 665 1315 665 1315 626.5 1275 c 128,-1,23
 588 1235 588 1235 529.5 1212 c 128,-1,24
 471 1189 471 1189 389 1189 c 0,0,1
EndSplineSet
Validated: 1
Substitution2: "'case' Case-Sensitive Forms in Latin lookup 0 subtable" breve.case
EndChar

StartChar: dotaccent
Encoding: 729 729 223
Width: 605
GlyphClass: 1
Flags: W
LayerCount: 2
Fore
SplineSet
579 1361 m 0,0,1
 579 1328 579 1328 565.5 1299 c 128,-1,2
 552 1270 552 1270 529.5 1248.5 c 128,-1,3
 507 1227 507 1227 477 1214 c 128,-1,4
 447 1201 447 1201 414 1201 c 256,5,6
 381 1201 381 1201 352 1214 c 128,-1,7
 323 1227 323 1227 301.5 1248.5 c 128,-1,8
 280 1270 280 1270 267 1299 c 128,-1,9
 254 1328 254 1328 254 1361 c 0,10,11
 254 1395 254 1395 267 1424 c 128,-1,12
 280 1453 280 1453 301.5 1475 c 128,-1,13
 323 1497 323 1497 352 1510 c 128,-1,14
 381 1523 381 1523 414 1523 c 0,15,16
 448 1523 448 1523 477.5 1510 c 128,-1,17
 507 1497 507 1497 529.5 1475 c 128,-1,18
 552 1453 552 1453 565.5 1424 c 128,-1,19
 579 1395 579 1395 579 1361 c 0,0,1
EndSplineSet
Validated: 1
Substitution2: "'case' Case-Sensitive Forms in Latin lookup 0 subtable" dotaccent.case
EndChar

StartChar: ring
Encoding: 730 730 224
Width: 605
GlyphClass: 1
Flags: W
LayerCount: 2
Fore
SplineSet
178 1357 m 0,0,1
 178 1404 178 1404 196.5 1443 c 128,-1,2
 215 1482 215 1482 246.5 1509.5 c 128,-1,3
 278 1537 278 1537 318.5 1552.5 c 128,-1,4
 359 1568 359 1568 404 1568 c 0,5,6
 450 1568 450 1568 492.5 1552.5 c 128,-1,7
 535 1537 535 1537 566.5 1509.5 c 128,-1,8
 598 1482 598 1482 617 1443 c 128,-1,9
 636 1404 636 1404 636 1357 c 0,10,11
 636 1311 636 1311 617 1273 c 128,-1,12
 598 1235 598 1235 566.5 1208 c 128,-1,13
 535 1181 535 1181 493 1166 c 128,-1,14
 451 1151 451 1151 404 1151 c 0,15,16
 359 1151 359 1151 318.5 1166 c 128,-1,17
 278 1181 278 1181 246.5 1208 c 128,-1,18
 215 1235 215 1235 196.5 1273 c 128,-1,19
 178 1311 178 1311 178 1357 c 0,0,1
315 1357 m 0,20,21
 315 1318 315 1318 339.5 1292 c 128,-1,22
 364 1266 364 1266 409 1266 c 0,23,24
 450 1266 450 1266 474.5 1292 c 128,-1,25
 499 1318 499 1318 499 1357 c 0,26,27
 499 1400 499 1400 474.5 1425 c 128,-1,28
 450 1450 450 1450 409 1450 c 0,29,30
 364 1450 364 1450 339.5 1425 c 128,-1,31
 315 1400 315 1400 315 1357 c 0,20,21
EndSplineSet
Validated: 1
Substitution2: "'case' Case-Sensitive Forms in Latin lookup 0 subtable" ring.case
EndChar

StartChar: ogonek
Encoding: 731 731 225
Width: 605
GlyphClass: 1
Flags: W
LayerCount: 2
Fore
SplineSet
355 -195 m 0,0,1
 373 -195 373 -195 377 -211 c 2,2,-1
 401 -301 l 1,3,4
 368 -324 368 -324 319 -338.5 c 128,-1,5
 270 -353 270 -353 218 -353 c 0,6,7
 131 -353 131 -353 86 -315.5 c 128,-1,8
 41 -278 41 -278 41 -219 c 0,9,10
 41 -154 41 -154 87.5 -94.5 c 128,-1,11
 134 -35 134 -35 221 12 c 1,12,-1
 345 0 l 1,13,14
 323 -11 323 -11 302.5 -27 c 128,-1,15
 282 -43 282 -43 266 -62.5 c 128,-1,16
 250 -82 250 -82 239.5 -104.5 c 128,-1,17
 229 -127 229 -127 229 -152 c 0,18,19
 229 -179 229 -179 244 -195 c 128,-1,20
 259 -211 259 -211 286 -211 c 0,21,22
 303 -211 303 -211 314.5 -208.5 c 128,-1,23
 326 -206 326 -206 333.5 -203 c 128,-1,24
 341 -200 341 -200 345.5 -197.5 c 128,-1,25
 350 -195 350 -195 355 -195 c 0,0,1
EndSplineSet
Validated: 1
EndChar

StartChar: tilde
Encoding: 732 732 226
Width: 605
GlyphClass: 1
Flags: W
LayerCount: 2
Fore
SplineSet
514 1388 m 0,0,1
 541 1388 541 1388 558 1405 c 128,-1,2
 575 1422 575 1422 583 1466 c 1,3,-1
 730 1466 l 1,4,5
 723 1410 723 1410 702.5 1364.5 c 128,-1,6
 682 1319 682 1319 652 1286.5 c 128,-1,7
 622 1254 622 1254 583.5 1236.5 c 128,-1,8
 545 1219 545 1219 502 1219 c 0,9,10
 468 1219 468 1219 440 1232 c 128,-1,11
 412 1245 412 1245 388.5 1261 c 128,-1,12
 365 1277 365 1277 344.5 1290.5 c 128,-1,13
 324 1304 324 1304 305 1304 c 0,14,15
 278 1304 278 1304 261 1285.5 c 128,-1,16
 244 1267 244 1267 239 1224 c 1,17,-1
 89 1224 l 1,18,19
 96 1280 96 1280 116.5 1325.5 c 128,-1,20
 137 1371 137 1371 168 1404 c 128,-1,21
 199 1437 199 1437 237 1455 c 128,-1,22
 275 1473 275 1473 317 1473 c 0,23,24
 351 1473 351 1473 379.5 1459.5 c 128,-1,25
 408 1446 408 1446 432 1430 c 128,-1,26
 456 1414 456 1414 476 1401 c 128,-1,27
 496 1388 496 1388 514 1388 c 0,0,1
EndSplineSet
Validated: 1
Substitution2: "'case' Case-Sensitive Forms in Latin lookup 0 subtable" tilde.case
EndChar

StartChar: hungarumlaut
Encoding: 733 733 227
Width: 605
GlyphClass: 1
Flags: W
LayerCount: 2
Fore
SplineSet
553 1496 m 1,0,-1
 333 1229 l 2,1,2
 316 1207 316 1207 295 1200.5 c 128,-1,3
 274 1194 274 1194 248 1194 c 2,4,-1
 147 1194 l 1,5,-1
 296 1443 l 2,6,7
 312 1470 312 1470 333.5 1483 c 128,-1,8
 355 1496 355 1496 394 1496 c 2,9,-1
 553 1496 l 1,0,-1
887 1496 m 1,10,-1
 614 1229 l 2,11,12
 594 1210 594 1210 576 1202 c 128,-1,13
 558 1194 558 1194 530 1194 c 2,14,-1
 415 1194 l 1,15,-1
 612 1443 l 2,16,17
 631 1468 631 1468 652 1482 c 128,-1,18
 673 1496 673 1496 712 1496 c 2,19,-1
 887 1496 l 1,10,-1
EndSplineSet
Validated: 1
Substitution2: "'case' Case-Sensitive Forms in Latin lookup 0 subtable" hungarumlaut.case
EndChar

StartChar: pi
Encoding: 960 960 228
Width: 1222
GlyphClass: 1
Flags: W
LayerCount: 2
Fore
SplineSet
1254 1050 m 1,0,-1
 1242 951 l 2,1,2
 1238 920 1238 920 1216 898 c 128,-1,3
 1194 876 1194 876 1158 876 c 2,4,-1
 1062 876 l 1,5,-1
 953 0 l 1,6,-1
 711 0 l 1,7,-1
 816 876 l 1,8,-1
 508 876 l 1,9,-1
 432 269 l 2,10,11
 424 204 424 204 403 152 c 128,-1,12
 382 100 382 100 345.5 63.5 c 128,-1,13
 309 27 309 27 256 6.5 c 128,-1,14
 203 -14 203 -14 130 -14 c 0,15,16
 96 -14 96 -14 59.5 -7 c 128,-1,17
 23 0 23 0 -10 19 c 1,18,-1
 9 121 l 2,19,20
 13 141 13 141 26.5 151 c 128,-1,21
 40 161 40 161 78 161 c 0,22,23
 107 161 107 161 126 167 c 128,-1,24
 145 173 145 173 158 187 c 128,-1,25
 171 201 171 201 178 222 c 128,-1,26
 185 243 185 243 189 272 c 2,27,-1
 263 876 l 1,28,-1
 96 876 l 1,29,-1
 108 963 l 2,30,31
 110 977 110 977 117.5 992.5 c 128,-1,32
 125 1008 125 1008 138.5 1020.5 c 128,-1,33
 152 1033 152 1033 169.5 1041.5 c 128,-1,34
 187 1050 187 1050 209 1050 c 2,35,-1
 1254 1050 l 1,0,-1
EndSplineSet
Validated: 1
EndChar

StartChar: endash
Encoding: 8211 8211 229
Width: 1075
GlyphClass: 1
Flags: W
LayerCount: 2
Fore
SplineSet
180 699 m 1,0,-1
 945 699 l 1,1,-1
 924 525 l 1,2,-1
 159 525 l 1,3,-1
 180 699 l 1,0,-1
EndSplineSet
Validated: 1
EndChar

StartChar: emdash
Encoding: 8212 8212 230
Width: 1592
GlyphClass: 1
Flags: W
LayerCount: 2
Fore
SplineSet
180 699 m 1,0,-1
 1462 699 l 1,1,-1
 1441 525 l 1,2,-1
 159 525 l 1,3,-1
 180 699 l 1,0,-1
EndSplineSet
Validated: 1
EndChar

StartChar: quoteleft
Encoding: 8216 8216 231
Width: 427
GlyphClass: 1
Flags: W
LayerCount: 2
Fore
SplineSet
217 1006 m 1,0,1
 176 1094 176 1094 176 1184 c 0,2,3
 176 1298 176 1298 237.5 1402.5 c 128,-1,4
 299 1507 299 1507 413 1594 c 1,5,-1
 481 1549 l 2,6,7
 496 1540 496 1540 497 1521 c 0,8,9
 497 1510 497 1510 491 1500 c 128,-1,10
 485 1490 485 1490 472 1476 c 0,11,12
 460 1462 460 1462 444 1439.5 c 128,-1,13
 428 1417 428 1417 414.5 1389 c 128,-1,14
 401 1361 401 1361 392 1327 c 128,-1,15
 383 1293 383 1293 383 1255 c 0,16,17
 383 1225 383 1225 389.5 1193.5 c 128,-1,18
 396 1162 396 1162 412 1128 c 0,19,20
 415 1120 415 1120 415 1112 c 0,21,22
 415 1097 415 1097 403.5 1084 c 128,-1,23
 392 1071 392 1071 372 1063 c 2,24,-1
 217 1006 l 1,0,1
EndSplineSet
Validated: 1
EndChar

StartChar: quoteright
Encoding: 8217 8217 232
Width: 427
GlyphClass: 1
Flags: W
LayerCount: 2
Fore
SplineSet
414 1563 m 1,0,1
 455 1475 455 1475 455 1384 c 0,2,3
 455 1270 455 1270 393.5 1165.5 c 128,-1,4
 332 1061 332 1061 217 974 c 1,5,-1
 148 1019 l 2,6,7
 133 1029 133 1029 133 1048 c 0,8,9
 133 1059 133 1059 139 1068 c 128,-1,10
 145 1077 145 1077 159 1092 c 0,11,12
 171 1106 171 1106 187 1128 c 128,-1,13
 203 1150 203 1150 216 1178.5 c 128,-1,14
 229 1207 229 1207 238.5 1241 c 128,-1,15
 248 1275 248 1275 248 1313 c 0,16,17
 248 1343 248 1343 241 1374.5 c 128,-1,18
 234 1406 234 1406 219 1439 c 0,19,20
 216 1448 216 1448 216 1455 c 0,21,22
 216 1471 216 1471 227.5 1484 c 128,-1,23
 239 1497 239 1497 259 1505 c 2,24,-1
 414 1563 l 1,0,1
EndSplineSet
Validated: 1
EndChar

StartChar: quotesinglbase
Encoding: 8218 8218 233
Width: 470
GlyphClass: 1
Flags: W
LayerCount: 2
Fore
SplineSet
271 292 m 1,0,1
 312 204 312 204 312 114 c 0,2,3
 312 0 312 0 250.5 -105 c 128,-1,4
 189 -210 189 -210 75 -297 c 1,5,-1
 6 -252 l 2,6,7
 -9 -242 -9 -242 -9 -223 c 0,8,9
 -9 -212 -9 -212 -3 -203 c 128,-1,10
 3 -194 3 -194 16 -179 c 0,11,12
 28 -165 28 -165 44 -143 c 128,-1,13
 60 -121 60 -121 73.5 -92 c 128,-1,14
 87 -63 87 -63 96 -29.5 c 128,-1,15
 105 4 105 4 105 42 c 0,16,17
 105 72 105 72 98.5 103.5 c 128,-1,18
 92 135 92 135 77 168 c 0,19,20
 74 177 74 177 74 184 c 0,21,22
 74 200 74 200 85 213 c 128,-1,23
 96 226 96 226 117 234 c 2,24,-1
 271 292 l 1,0,1
EndSplineSet
Validated: 1
EndChar

StartChar: quotedblleft
Encoding: 8220 8220 234
Width: 744
GlyphClass: 1
Flags: W
LayerCount: 2
Fore
SplineSet
217 1006 m 1,0,1
 176 1094 176 1094 176 1184 c 0,2,3
 176 1298 176 1298 237.5 1402.5 c 128,-1,4
 299 1507 299 1507 413 1594 c 1,5,-1
 481 1549 l 2,6,7
 496 1540 496 1540 497 1521 c 0,8,9
 497 1510 497 1510 491 1500 c 128,-1,10
 485 1490 485 1490 472 1476 c 0,11,12
 460 1462 460 1462 444 1439.5 c 128,-1,13
 428 1417 428 1417 414.5 1389 c 128,-1,14
 401 1361 401 1361 392 1327 c 128,-1,15
 383 1293 383 1293 383 1255 c 0,16,17
 383 1225 383 1225 389.5 1193.5 c 128,-1,18
 396 1162 396 1162 412 1128 c 0,19,20
 415 1120 415 1120 415 1112 c 0,21,22
 415 1097 415 1097 403.5 1084 c 128,-1,23
 392 1071 392 1071 372 1063 c 2,24,-1
 217 1006 l 1,0,1
536 1006 m 1,25,26
 495 1094 495 1094 495 1184 c 0,27,28
 495 1298 495 1298 556 1402.5 c 128,-1,29
 617 1507 617 1507 731 1594 c 1,30,-1
 800 1549 l 2,31,32
 815 1540 815 1540 815 1521 c 0,33,34
 815 1510 815 1510 809.5 1500 c 128,-1,35
 804 1490 804 1490 791 1476 c 0,36,37
 779 1462 779 1462 762.5 1439.5 c 128,-1,38
 746 1417 746 1417 733 1389 c 128,-1,39
 720 1361 720 1361 710.5 1327 c 128,-1,40
 701 1293 701 1293 701 1255 c 0,41,42
 701 1225 701 1225 708 1193.5 c 128,-1,43
 715 1162 715 1162 730 1128 c 0,44,45
 733 1120 733 1120 733 1112 c 0,46,47
 733 1097 733 1097 722 1084 c 128,-1,48
 711 1071 711 1071 690 1063 c 2,49,-1
 536 1006 l 1,25,26
EndSplineSet
Validated: 1
EndChar

StartChar: quotedblright
Encoding: 8221 8221 235
Width: 744
GlyphClass: 1
Flags: W
LayerCount: 2
Fore
SplineSet
418 1563 m 1,0,1
 459 1475 459 1475 459 1384 c 0,2,3
 459 1270 459 1270 397.5 1165.5 c 128,-1,4
 336 1061 336 1061 221 974 c 1,5,-1
 153 1019 l 2,6,7
 138 1029 138 1029 137 1048 c 0,8,9
 137 1059 137 1059 143.5 1068 c 128,-1,10
 150 1077 150 1077 163 1092 c 0,11,12
 175 1106 175 1106 191 1128 c 128,-1,13
 207 1150 207 1150 220 1178.5 c 128,-1,14
 233 1207 233 1207 242.5 1241 c 128,-1,15
 252 1275 252 1275 252 1313 c 0,16,17
 252 1343 252 1343 245.5 1374.5 c 128,-1,18
 239 1406 239 1406 223 1439 c 0,19,20
 220 1448 220 1448 220 1455 c 0,21,22
 220 1471 220 1471 231.5 1484 c 128,-1,23
 243 1497 243 1497 263 1505 c 2,24,-1
 418 1563 l 1,0,1
735 1563 m 1,25,26
 776 1475 776 1475 776 1384 c 0,27,28
 776 1270 776 1270 714.5 1165.5 c 128,-1,29
 653 1061 653 1061 539 974 c 1,30,-1
 470 1019 l 2,31,32
 455 1029 455 1029 455 1048 c 0,33,34
 455 1059 455 1059 461 1068 c 128,-1,35
 467 1077 467 1077 480 1092 c 0,36,37
 492 1106 492 1106 508 1128 c 128,-1,38
 524 1150 524 1150 537.5 1178.5 c 128,-1,39
 551 1207 551 1207 560 1241 c 128,-1,40
 569 1275 569 1275 569 1313 c 0,41,42
 569 1343 569 1343 562.5 1374.5 c 128,-1,43
 556 1406 556 1406 541 1439 c 0,44,45
 538 1448 538 1448 538 1455 c 0,46,47
 538 1471 538 1471 549 1484 c 128,-1,48
 560 1497 560 1497 581 1505 c 2,49,-1
 735 1563 l 1,25,26
EndSplineSet
Validated: 1
EndChar

